            <svg xmlns="http://www.w3.org/2000/svg" xmlns:xlink="http://www.w3.org/1999/xlink" version="1.1" xml:space="preserve" height="42" viewBox="300 312 540 540"><desc>Created with Fabric.js 5.2.4</desc><defs></defs><g transform="matrix(1 0 0 1 540 540)" id="ab355394-3668-4e45-8bbf-464442a8e408"><rect style="stroke: none; stroke-width: 1; stroke-dasharray: none; stroke-linecap: butt; stroke-dashoffset: 0; stroke-linejoin: miter; stroke-miterlimit: 4; fill: rgb(255,255,255); fill-rule: nonzero; opacity: 1; visibility: hidden;" vector-effect="non-scaling-stroke" x="-540" y="-540" rx="0" ry="0" width="1080" height="1080"></rect></g><g transform="matrix(1 0 0 1 540 540)" id="b7f5ceff-ac3a-443e-afc7-4ffb5b558b73"></g><g transform="matrix(1 0 0 1 605.75 567.69)"><path style="stroke: none; stroke-width: 1; stroke-dasharray: none; stroke-linecap: butt; stroke-dashoffset: 0; stroke-linejoin: miter; stroke-miterlimit: 4; fill: rgb(251,212,98); fill-rule: nonzero; opacity: 1;" vector-effect="non-scaling-stroke" transform=" translate(-316.75, -278.69)" d="M 241.804474 209.019394 C 242.687958 210.017319 243.396133 211.597702 244.481628 211.924423 C 257.46756 215.832977 264.891724 225.840851 271.125702 236.747437 C 275.05896 243.628891 277.509186 251.344482 281.154541 258.412628 C 282.196838 260.433655 284.915497 261.918579 287.191467 262.866913 C 288.890778 263.574951 291.114319 263.024811 293.904633 263.320679 C 304.477203 263.46521 314.249542 263.324005 324.021912 263.1828 C 339.128052 260.075287 352.678741 253.664047 365.56308 245.166031 C 378.986115 236.312683 392.957794 227.602982 408.998901 224.852844 C 420.198517 222.932739 431.907623 223.965164 443.390198 223.731247 C 445.529236 223.687668 447.685577 223.783905 449.810883 224.021667 C 451.262573 224.184052 452.674194 224.704346 455.700836 225.467148 C 452.947845 227.236649 451.631622 228.291382 450.150146 229.001129 C 440.294159 233.722916 430.613434 238.612656 423.283844 247.147781 C 417.246094 254.178635 410.461365 260.607452 404.828613 267.934265 C 400.259857 273.877014 396.973572 280.796387 392.999054 287.208618 C 390.359283 291.467529 387.509003 295.596008 384.117065 299.980927 C 382.638275 301.085114 381.795441 301.991241 380.753906 303.04364 C 380.298401 303.406036 380.105621 303.669067 379.988434 303.989502 C 380 304 379.977997 303.976685 379.768311 304.100159 C 379.302582 304.434052 379.108246 304.691132 378.989624 304.999268 C 379.003662 305.003723 378.994843 304.975677 378.772888 305.103546 C 378.32016 305.482635 378.089386 305.733856 377.687378 306.099854 C 377.304352 306.392761 377.132202 306.603302 376.664124 306.935272 C 372.824585 310.056824 369.418396 313.211731 365.800079 316.101044 C 348.099457 330.235413 328.128967 339.724945 306.006409 344.460266 C 276.776825 350.716797 248.08989 350.136261 220.222397 337.651062 C 198.664825 327.992798 183.699585 312.564392 178.903778 289.286255 C 176.841995 279.278717 178.248428 268.556671 178.385254 258.113892 C 179.442932 257.785522 180.19455 257.502502 180.946182 257.219482 C 181.420166 257.177765 181.894135 257.136017 183.066452 257.364075 C 191.917191 257.747528 200.06929 257.904602 208.222092 257.962036 C 215.750397 258.015106 215.269226 257.635162 217.13269 250.457458 C 219.918198 239.728226 223.325272 229.102615 227.394028 218.798615 C 228.653595 215.60878 232.76944 213.392456 235.880646 211.151123 C 237.517593 209.971848 239.808731 209.700638 241.804474 209.019394 z" stroke-linecap="round"></path></g><g transform="matrix(1 0 0 1 511.33 606.63)"><path style="stroke: none; stroke-width: 1; stroke-dasharray: none; stroke-linecap: butt; stroke-dashoffset: 0; stroke-linejoin: miter; stroke-miterlimit: 4; fill: rgb(238,173,69); fill-rule: nonzero; opacity: 1;" vector-effect="non-scaling-stroke" transform=" translate(-222.33, -317.63)" d="M 178.079163 258.159241 C 178.248428 268.556671 176.841995 279.278717 178.903778 289.286255 C 183.699585 312.564392 198.664825 327.992798 220.222397 337.651062 C 248.08989 350.136261 276.776825 350.716797 306.006409 344.460266 C 328.128967 339.724945 348.099457 330.235413 365.800079 316.101044 C 369.418396 313.211731 372.824585 310.056824 376.652496 307.338623 C 376.674103 309.460052 376.371796 311.267212 376.069458 313.074341 C 376.069458 313.074341 376.012756 313.001373 375.717896 313.107239 C 375.215485 313.963013 375.007965 314.712952 374.800476 315.46286 C 374.800476 315.46286 374.764557 315.69632 374.306427 315.669708 C 372.246521 318.123016 370.644745 320.602936 369.042969 323.082855 C 369.042969 323.082855 369.016968 323.017914 368.693176 323.079895 C 367.587738 324.466492 366.806091 325.791077 366.024445 327.115662 C 353.378204 345.356354 336.337616 358.597046 316.805023 368.401306 C 307.963562 372.839264 297.98114 375.081268 288.406067 377.951752 C 282.690277 379.665222 276.760773 380.665833 270.047394 381.994568 C 260.895782 382.323639 252.62056 382.941132 244.353973 382.841461 C 240.221298 382.791656 239.01947 384.575195 238.155502 388.088684 C 236.660431 394.168549 235.443573 400.496735 232.749512 406.062195 C 228.004623 415.864258 222.235352 425.170441 216.43808 434.755249 C 209.608734 435.138153 203.236343 435.450043 196.863937 435.761932 C 181.471649 437.031586 161.887466 436.25769 158.323212 433.631592 C 169.851349 427.086823 181.970886 422.102631 191.037521 412.507324 C 199.984161 403.039001 208.032333 393.028137 213.248245 380.12616 C 209.109406 378.737854 205.101379 377.278107 201.024689 376.045502 C 180.630539 369.879181 164.512314 357.998383 151.883087 340.805939 C 143.542114 329.451172 139.770477 317.034882 138.861069 303.157288 C 138.311218 294.766693 135.982742 286.502411 134.646652 278.150452 C 133.61438 271.697723 133.010925 265.176575 131.987167 258.72226 C 130.406815 248.758743 129.25264 238.665344 126.735374 228.932846 C 124.800552 221.452255 115.868652 212.760849 103.704315 213.881592 C 96.263756 214.567123 87.616112 222.143677 84.799919 230.131195 C 78.925026 246.794006 82.649261 262.000793 91.770203 275.973328 C 97.278198 284.411102 104.347656 291.872833 111.056061 299.472504 C 118.828224 308.277283 126.500069 317.010132 131.465973 327.895599 C 137.266708 340.611115 129.960388 361.155121 117.933868 364.56311 C 114.156128 365.633606 110.747063 365.301514 108.279488 361.735352 C 106.193367 358.720428 105.93026 355.325104 109.166016 353.585663 C 115.009842 350.444153 119.45443 346.639282 118.942009 339.517365 C 118.490234 333.238373 116.300598 327.407104 112.068436 322.629791 C 105.357391 315.054291 98.399506 307.697693 91.672012 300.136444 C 83.85128 291.346436 76.465866 282.11908 72.185165 271.077881 C 69.933647 265.270508 68.423294 258.850891 68.212166 252.652084 C 67.879677 242.889954 67.566269 233.201523 70.615845 223.352463 C 74.92276 209.442581 94.294792 194.922409 109.457169 199.915375 C 113.829834 201.355301 118.472084 201.964737 122.955368 203.0952 C 123.529854 203.240067 123.889954 204.235199 124.833672 205.178711 C 125.535538 205.714142 125.782272 205.856873 126.058189 205.949173 C 126.058189 205.949173 126 205.995224 126.103638 206.298752 C 127.148216 207.040955 128.089157 207.47963 129.03009 207.918304 C 129.03009 207.918304 129.033981 207.94545 129.170868 208.15329 C 129.509476 208.612137 129.756073 208.806061 130.047577 208.942871 C 130.047577 208.942871 130.054382 208.973984 130.062164 209.335373 C 130.754288 213.03952 132.379272 215.476395 136.068405 215.925385 C 136.068405 215.925385 136.003525 215.989639 136.024261 216.334106 C 136.716476 217.765961 137.387955 218.853363 138.059433 219.940765 C 138.059433 219.940765 138 219.998016 138.015045 220.385132 C 139.278976 227.404861 140.500336 234.042831 141.78804 240.667923 C 142.465027 244.151047 143.297653 247.603745 143.989197 251.084274 C 144.973755 256.039337 145.893204 261.007324 146.840454 265.969788 C 146.840454 265.969788 146.980728 266.420807 147.076111 266.959839 C 151.117996 269.467377 151.222305 266.304565 151.924362 263.940063 C 151.924362 263.940063 151.992798 263.986542 152.326477 263.918732 C 159.474823 259.758331 166.604996 256.819366 174.809937 257.665894 C 175.192307 257.705322 175.633301 257.176636 176.046982 256.912567 C 176.48204 256.965668 176.917084 257.018799 177.689621 257.380737 C 178.0271 257.689514 178.079163 258.159241 178.079163 258.159241 z" stroke-linecap="round"></path></g><g transform="matrix(1 0 0 1 726.97 441.93)"><path style="stroke: none; stroke-width: 1; stroke-dasharray: none; stroke-linecap: butt; stroke-dashoffset: 0; stroke-linejoin: miter; stroke-miterlimit: 4; fill: rgb(157,116,237); fill-rule: nonzero; opacity: 1;" vector-effect="non-scaling-stroke" transform=" translate(-437.97, -152.93)" d="M 435.316742 99.023201 C 441.130188 98.258713 443.21701 100.329826 444.280579 105.969711 C 446.056061 115.384567 448.43811 124.680138 454.785706 132.67926 C 459.599609 138.745636 465.769653 141.625504 472.540741 143.944839 C 477.090027 145.503098 481.748932 146.87233 486.464569 147.771469 C 490.089386 148.462631 491.445618 150.901688 490.758606 153.6129 C 490.236938 155.671722 488.003174 158.082199 485.975952 158.829163 C 479.481232 161.222183 472.646057 162.676224 466.095459 164.936508 C 457.542999 167.887512 452.011292 174.24971 449.065399 182.543472 C 446.855804 188.764359 445.929047 195.439545 443.741699 201.670456 C 442.993988 203.800385 440.419128 205.972885 438.200684 206.737045 C 435.126251 207.796051 432.901031 205.468735 432.074005 202.511017 C 430.598969 197.235565 430.138763 191.544678 427.899323 186.647018 C 424.91095 180.111465 421.732483 172.926834 416.574005 168.339142 C 411.976044 164.249985 404.605621 163.222992 398.390045 161.040115 C 396.420746 160.348495 394.221527 160.331863 392.143066 159.926727 C 386.560394 158.838562 384.843842 156.853928 385.019287 152.005371 C 385.215729 146.576828 389.644958 146.850616 393.110138 146.069199 C 400.825165 144.329407 408.313477 142.365204 414.998444 137.673416 C 424.266846 131.168488 427.357391 121.432915 430.028015 111.339027 C 430.81308 108.371643 431.153717 105.274826 432.096313 102.366409 C 432.513092 101.080246 433.921783 100.11554 435.316742 99.023201 z" stroke-linecap="round"></path></g><g transform="matrix(1 0 0 1 559.95 697.98)"><path style="stroke: none; stroke-width: 1; stroke-dasharray: none; stroke-linecap: butt; stroke-dashoffset: 0; stroke-linejoin: miter; stroke-miterlimit: 4; fill: rgb(250,211,99); fill-rule: nonzero; opacity: 1;" vector-effect="non-scaling-stroke" transform=" translate(-270.94, -408.98)" d="M 216.895004 434.684235 C 222.235352 425.170441 228.004623 415.864258 232.749512 406.062195 C 235.443573 400.496735 236.660431 394.168549 238.155502 388.088684 C 239.01947 384.575195 240.221298 382.791656 244.353973 382.841461 C 252.62056 382.941132 260.895782 382.323639 269.62204 381.999146 C 270.305664 383.408783 270.114502 385.100922 270.83609 386.186218 C 274.057861 391.03183 277.220154 395.981079 281.013184 400.365814 C 285.301239 405.322876 289.947815 410.067047 294.972961 414.263794 C 300.780396 419.1138 307.053406 423.442596 313.366699 427.632385 C 315.826324 429.264648 319.048615 429.702667 321.722961 431.075348 C 323.047974 431.755463 323.918671 433.320709 324.994904 434.485504 C 324.816254 434.974243 324.637604 435.463013 324.458954 435.951752 C 292.945648 435.951752 261.432373 435.951752 229.091187 435.690643 C 224.473862 435.181091 220.684433 434.932678 216.895004 434.684235 z" stroke-linecap="round"></path></g><g transform="matrix(1 0 0 1 508.52 501.09)"><path style="stroke: none; stroke-width: 1; stroke-dasharray: none; stroke-linecap: butt; stroke-dashoffset: 0; stroke-linejoin: miter; stroke-miterlimit: 4; fill: rgb(236,173,71); fill-rule: nonzero; opacity: 1;" vector-effect="non-scaling-stroke" transform=" translate(-219.52, -212.09)" d="M 241.888275 208.641632 C 239.808731 209.700638 237.517593 209.971848 235.880646 211.151123 C 232.76944 213.392456 228.653595 215.60878 227.394028 218.798615 C 223.325272 229.102615 219.918198 239.728226 217.13269 250.457458 C 215.269226 257.635162 215.750397 258.015106 208.222092 257.962036 C 200.06929 257.904602 191.917191 257.747528 183.419189 257.426697 C 185.26886 256.651642 187.464142 256.083771 188.760269 255.748505 C 194.212097 246.501724 199.582657 237.839737 204.496765 228.926117 C 208.968719 220.81456 216.176804 216.147156 224.157684 212.502258 C 228.008896 210.743378 228.654434 208.952118 227.1194 205.026627 C 222.833954 194.067657 218.943558 182.950668 215.105286 171.82428 C 214.545746 170.20224 215.124252 168.187607 215.972504 166.241821 C 229.461349 166.18663 242.153854 166.244247 254.846344 166.301865 C 256.821808 170.505035 254.569138 173.971985 253.126465 177.730026 C 249.24353 187.844696 245.669022 198.077774 241.888275 208.641632 z" stroke-linecap="round"></path></g><g transform="matrix(1 0 0 1 431.49 531.94)"><path style="stroke: none; stroke-width: 1; stroke-dasharray: none; stroke-linecap: butt; stroke-dashoffset: 0; stroke-linejoin: miter; stroke-miterlimit: 4; fill: rgb(236,173,71); fill-rule: nonzero; opacity: 1;" vector-effect="non-scaling-stroke" transform=" translate(-142.48, -242.94)" d="M 146.919495 265.52301 C 145.893204 261.007324 144.973755 256.039337 143.989197 251.084274 C 143.297653 247.603745 142.465027 244.151047 141.78804 240.667923 C 140.500336 234.042831 139.278976 227.404861 138.046463 220.358978 C 139.705719 224.18959 141.919357 228.311234 142.860489 232.705399 C 144.34967 239.658356 145.047852 246.78595 145.958908 253.855362 C 146.438721 257.578491 146.660324 261.334869 146.919495 265.52301 z" stroke-linecap="round"></path></g><g transform="matrix(1 0 0 1 453.06 548.92)"><path style="stroke: none; stroke-width: 1; stroke-dasharray: none; stroke-linecap: butt; stroke-dashoffset: 0; stroke-linejoin: miter; stroke-miterlimit: 4; fill: rgb(236,173,71); fill-rule: nonzero; opacity: 1;" vector-effect="non-scaling-stroke" transform=" translate(-164.06, -259.92)" d="M 175.827698 256.540558 C 175.633301 257.176636 175.192307 257.705322 174.809937 257.665894 C 166.604996 256.819366 159.474823 259.758331 152.29837 263.888123 C 155.4245 258.172577 161.174103 256.682068 167.241211 256.05658 C 169.997147 255.772446 172.817368 256.111938 175.827698 256.540558 z" stroke-linecap="round"></path></g><g transform="matrix(1 0 0 1 524.56 454.61)"><path style="stroke: none; stroke-width: 1; stroke-dasharray: none; stroke-linecap: butt; stroke-dashoffset: 0; stroke-linejoin: miter; stroke-miterlimit: 4; fill: rgb(254,229,179); fill-rule: nonzero; opacity: 1;" vector-effect="non-scaling-stroke" transform=" translate(-235.56, -165.61)" d="M 254.836365 165.832703 C 242.153854 166.244247 229.461349 166.18663 216.286377 166.086639 C 216.297668 165.699951 216.792923 165.053146 217.285019 165.055557 C 229.799011 165.116837 242.312683 165.24614 254.836365 165.832703 z" stroke-linecap="round"></path></g><g transform="matrix(1 0 0 1 501.98 724.31)"><path style="stroke: none; stroke-width: 1; stroke-dasharray: none; stroke-linecap: butt; stroke-dashoffset: 0; stroke-linejoin: miter; stroke-miterlimit: 4; fill: rgb(247,218,166); fill-rule: nonzero; opacity: 1;" vector-effect="non-scaling-stroke" transform=" translate(-212.99, -435.31)" d="M 216.43808 434.755249 C 220.684433 434.932678 224.473862 435.181091 228.629364 435.604065 C 218.604324 435.831482 208.213226 435.884338 197.343033 435.849548 C 203.236343 435.450043 209.608734 435.138153 216.43808 434.755249 z" stroke-linecap="round"></path></g><g transform="matrix(1 0 0 1 669.11 595.55)"><path style="stroke: none; stroke-width: 1; stroke-dasharray: none; stroke-linecap: butt; stroke-dashoffset: 0; stroke-linejoin: miter; stroke-miterlimit: 4; fill: rgb(221,170,91); fill-rule: nonzero; opacity: 1;" vector-effect="non-scaling-stroke" transform=" translate(-380.1, -306.55)" d="M 376.399963 312.96048 C 376.371796 311.267212 376.674103 309.460052 376.988037 307.249573 C 377.132202 306.603302 377.304352 306.392761 377.918762 305.980957 C 378.545898 305.490051 378.770355 305.23288 378.994843 304.975677 C 378.994843 304.975677 379.003662 305.003723 379.193817 304.868774 C 379.638428 304.525726 379.836456 304.273346 379.977997 303.976685 C 379.977997 303.976685 380 304 380.194489 303.852264 C 380.644348 303.482605 380.832214 303.213562 380.952606 302.897369 C 381.795441 301.991241 382.638275 301.085114 383.811523 300.129852 C 381.671448 304.336029 379.200958 308.591339 376.399963 312.96048 z" stroke-linecap="round"></path></g><g transform="matrix(1 0 0 1 597.95 552.25)"><path style="stroke: none; stroke-width: 1; stroke-dasharray: none; stroke-linecap: butt; stroke-dashoffset: 0; stroke-linejoin: miter; stroke-miterlimit: 4; fill: rgb(246,222,142); fill-rule: nonzero; opacity: 1;" vector-effect="non-scaling-stroke" transform=" translate(-308.95, -263.25)" d="M 323.556549 263.100006 C 314.249542 263.324005 304.477203 263.46521 294.349854 263.393555 C 303.693634 263.126221 313.392395 263.071716 323.556549 263.100006 z" stroke-linecap="round"></path></g><g transform="matrix(1 0 0 1 422.06 501.46)"><path style="stroke: none; stroke-width: 1; stroke-dasharray: none; stroke-linecap: butt; stroke-dashoffset: 0; stroke-linejoin: miter; stroke-miterlimit: 4; fill: rgb(236,173,71); fill-rule: nonzero; opacity: 1;" vector-effect="non-scaling-stroke" transform=" translate(-133.05, -212.46)" d="M 136.027634 215.582016 C 132.379272 215.476395 130.754288 213.03952 130.077408 209.330719 C 132.052185 211.056015 134.019531 213.147324 136.027634 215.582016 z" stroke-linecap="round"></path></g><g transform="matrix(1 0 0 1 660.78 608.32)"><path style="stroke: none; stroke-width: 1; stroke-dasharray: none; stroke-linecap: butt; stroke-dashoffset: 0; stroke-linejoin: miter; stroke-miterlimit: 4; fill: rgb(221,170,91); fill-rule: nonzero; opacity: 1;" vector-effect="non-scaling-stroke" transform=" translate(-371.78, -319.32)" d="M 369.358063 322.941101 C 370.644745 320.602936 372.246521 318.123016 374.192963 315.702423 C 372.916138 318.107635 371.294647 320.453491 369.358063 322.941101 z" stroke-linecap="round"></path></g><g transform="matrix(1 0 0 1 438.35 554.97)"><path style="stroke: none; stroke-width: 1; stroke-dasharray: none; stroke-linecap: butt; stroke-dashoffset: 0; stroke-linejoin: miter; stroke-miterlimit: 4; fill: rgb(236,173,71); fill-rule: nonzero; opacity: 1;" vector-effect="non-scaling-stroke" transform=" translate(-149.35, -265.97)" d="M 151.5867 263.962402 C 151.222305 266.304565 151.117996 269.467377 147.112778 267.193176 C 148.452377 265.919861 149.850708 264.952301 151.5867 263.962402 z" stroke-linecap="round"></path></g><g transform="matrix(1 0 0 1 656.54 614.04)"><path style="stroke: none; stroke-width: 1; stroke-dasharray: none; stroke-linecap: butt; stroke-dashoffset: 0; stroke-linejoin: miter; stroke-miterlimit: 4; fill: rgb(221,170,91); fill-rule: nonzero; opacity: 1;" vector-effect="non-scaling-stroke" transform=" translate(-367.53, -325.04)" d="M 366.336182 326.984009 C 366.806091 325.791077 367.587738 324.466492 368.726868 323.089355 C 368.272186 324.308685 367.460052 325.580536 366.336182 326.984009 z" stroke-linecap="round"></path></g><g transform="matrix(1 0 0 1 426.04 506.95)"><path style="stroke: none; stroke-width: 1; stroke-dasharray: none; stroke-linecap: butt; stroke-dashoffset: 0; stroke-linejoin: miter; stroke-miterlimit: 4; fill: rgb(236,173,71); fill-rule: nonzero; opacity: 1;" vector-effect="non-scaling-stroke" transform=" translate(-137.04, -217.95)" d="M 138.026398 219.590546 C 137.387955 218.853363 136.716476 217.765961 136.061279 216.307953 C 136.716156 217.038345 137.354767 218.139328 138.026398 219.590546 z" stroke-linecap="round"></path></g><g transform="matrix(1 0 0 1 416.52 495.94)"><path style="stroke: none; stroke-width: 1; stroke-dasharray: none; stroke-linecap: butt; stroke-dashoffset: 0; stroke-linejoin: miter; stroke-miterlimit: 4; fill: rgb(236,173,71); fill-rule: nonzero; opacity: 1;" vector-effect="non-scaling-stroke" transform=" translate(-127.53, -206.94)" d="M 128.919205 207.61441 C 128.089157 207.47963 127.148216 207.040955 126.132782 206.273346 C 126.974968 206.399765 127.891647 206.855133 128.919205 207.61441 z" stroke-linecap="round"></path></g><g transform="matrix(1 0 0 1 664.4 603.21)"><path style="stroke: none; stroke-width: 1; stroke-dasharray: none; stroke-linecap: butt; stroke-dashoffset: 0; stroke-linejoin: miter; stroke-miterlimit: 4; fill: rgb(221,170,91); fill-rule: nonzero; opacity: 1;" vector-effect="non-scaling-stroke" transform=" translate(-375.4, -314.21)" d="M 375.032532 315.287354 C 375.007965 314.712952 375.215485 313.963013 375.755951 313.133514 C 375.814117 313.739899 375.539337 314.425873 375.032532 315.287354 z" stroke-linecap="round"></path></g><g transform="matrix(1 0 0 1 468.3 546.62)"><path style="stroke: none; stroke-width: 1; stroke-dasharray: none; stroke-linecap: butt; stroke-dashoffset: 0; stroke-linejoin: miter; stroke-miterlimit: 4; fill: rgb(236,173,71); fill-rule: nonzero; opacity: 1;" vector-effect="non-scaling-stroke" transform=" translate(-179.3, -257.62)" d="M 178.385239 258.113892 C 178.079163 258.159241 178.0271 257.689514 178.01059 257.453796 C 178.736938 257.1586 179.479797 257.099182 180.584412 257.129608 C 180.19455 257.502502 179.442932 257.785522 178.385239 258.113892 z" stroke-linecap="round"></path></g><g transform="matrix(1 0 0 1 418.58 497.44)"><path style="stroke: none; stroke-width: 1; stroke-dasharray: none; stroke-linecap: butt; stroke-dashoffset: 0; stroke-linejoin: miter; stroke-miterlimit: 4; fill: rgb(236,173,71); fill-rule: nonzero; opacity: 1;" vector-effect="non-scaling-stroke" transform=" translate(-129.58, -208.44)" d="M 129.981537 208.695587 C 129.756073 208.806061 129.509476 208.612137 129.182983 208.15976 C 129.343948 208.121704 129.629715 208.285004 129.981537 208.695587 z" stroke-linecap="round"></path></g><g transform="matrix(1 0 0 1 414.57 494.55)"><path style="stroke: none; stroke-width: 1; stroke-dasharray: none; stroke-linecap: butt; stroke-dashoffset: 0; stroke-linejoin: miter; stroke-miterlimit: 4; fill: rgb(236,173,71); fill-rule: nonzero; opacity: 1;" vector-effect="non-scaling-stroke" transform=" translate(-125.58, -205.55)" d="M 125.98175 205.707306 C 125.782272 205.856873 125.535538 205.714142 125.173141 205.362183 C 125.320633 205.290741 125.612968 205.378098 125.98175 205.707306 z" stroke-linecap="round"></path></g><g transform="matrix(1 0 0 1 669.47 592.44)"><path style="stroke: none; stroke-width: 1; stroke-dasharray: none; stroke-linecap: butt; stroke-dashoffset: 0; stroke-linejoin: miter; stroke-miterlimit: 4; fill: rgb(238,173,69); fill-rule: nonzero; opacity: 1;" vector-effect="non-scaling-stroke" transform=" translate(-380.47, -303.44)" d="M 380.753906 303.04364 C 380.832214 303.213562 380.644348 303.482605 380.182922 303.841797 C 380.105621 303.669067 380.298401 303.406036 380.753906 303.04364 z" stroke-linecap="round"></path></g><g transform="matrix(1 0 0 1 668.48 593.48)"><path style="stroke: none; stroke-width: 1; stroke-dasharray: none; stroke-linecap: butt; stroke-dashoffset: 0; stroke-linejoin: miter; stroke-miterlimit: 4; fill: rgb(238,173,69); fill-rule: nonzero; opacity: 1;" vector-effect="non-scaling-stroke" transform=" translate(-379.47, -304.48)" d="M 379.768311 304.100159 C 379.836456 304.273346 379.638428 304.525726 379.179779 304.864319 C 379.108246 304.691132 379.302582 304.434052 379.768311 304.100159 z" stroke-linecap="round"></path></g><g transform="matrix(1 0 0 1 667.43 594.48)"><path style="stroke: none; stroke-width: 1; stroke-dasharray: none; stroke-linecap: butt; stroke-dashoffset: 0; stroke-linejoin: miter; stroke-miterlimit: 4; fill: rgb(238,173,69); fill-rule: nonzero; opacity: 1;" vector-effect="non-scaling-stroke" transform=" translate(-378.43, -305.48)" d="M 378.772888 305.103546 C 378.770355 305.23288 378.545898 305.490051 378.090027 305.86615 C 378.089386 305.733856 378.32016 305.482635 378.772888 305.103546 z" stroke-linecap="round"></path></g></svg>