<svg width="100" height="48" fill="none" xmlns="http://www.w3.org/2000/svg"><path fill-rule="evenodd" clip-rule="evenodd" d="M22.4 41.6c1.916-1.19 3.527-2.641 4.89-4.153.976 1.993 2.934 3.353 5.01 3.353 1.6 0 3.2-.8 4.3-2.3.4 1.4 1.4 2.3 3.1 2.3 1.275 0 4.057-1.302 6.578-3.231L46 39c-.1.4-.1.7-.1.9.1.6.5.9 1.1.9 1.2 0 2.9-1.1 3.3-2.9l.6-2.5c.7-3.2 5.4-8 6.7-8 .1 0 .3.1.3.3.04.318-.189.919-.522 1.797-.507 1.335-1.256 3.31-1.678 5.903-.2.8-.2 1.6-.1 2.2.2 1.9 1.3 3.2 3.4 3.2 1.797 0 5.693-1.534 8.424-4.602.206 1.665.558 3.082 1.076 4.002.2.4.7.5 1.2.5.6 0 1.4-.2 2.3-.7 2.1-1.1 4.8-3.7 7.4-7.5.4.1.7.1 1 .1 1.037 0 2.197-.366 3.274-1.014-.448 1.351-.622 2.731-.474 4.014.4 3 2.9 5.3 5.6 5.3 1.5 0 3.1-.9 4.2-2.3.4 1.9 1.6 3.9 4.6 5.1.2.1.4.1.6.1.6 0 1-.4.9-.9 0-.2-.1-.5-.4-.7-.7-.6-1.5-1.7-1.7-3.4-.1-.8-.1-1.8.4-2.8.6-2.7.7-3.5.7-3.8-.1-.7-.6-1-1.2-1-1.2 0-2.9 1.2-3.3 2.9-.7 2.6-2.5 4.3-3.7 4.3-1.5 0-2.3-1.6-2.5-3.3-.5-4.2 2.1-9.3 6-9.3 1.1 0 2.4.4 2.5 1.6.123 1.106-.547 1.382-1.059 1.592-.321.132-.58.238-.541.508.1.8 1.4 1 2.3 1 .8 0 3.4-.6 3-3.5-.3-2.3-2.8-3.4-5.6-3.4-3.343 0-6.188 1.692-8.125 4.034-.268.159-.55.441-.875.766-.6.7-1.8 1.4-3.3 1.4-.2 0-.6-.1-.6-.1 1-1.9 1.7-3.9 1.7-5.6 0-2.8-1.7-4.2-3.6-4.2-2.4 0-4.9 2.1-4.9 6.3 0 2.5 1 4.5 2.7 5.6-2 3.2-4.7 5.9-5.1 5.9-.138 0-.181-.143-.227-.297a1.319 1.319 0 0 0-.073-.203c-.3-1.1-.6-3.3-.6-4.6 0-2.4.4-4.8 1.3-7.3.1-.3.2-.6.2-.8 0-.7-.5-1-1.1-1-1.2 0-3.1 1.4-3.6 2.9-.4 1.4-.6 3.4-.6 5.8 0 .44.007.877.021 1.307C64.835 36.724 61.89 37.8 61 37.8c-1.1 0-1.3-1-1.1-1.4.7-2.9 1.6-6.2 2.4-8.5.4-1.1.6-2.1.5-2.7-.2-1.1-.9-1.6-1.9-1.6-2.4 0-6.2 2.4-8.7 5.7l.8-3.6c.1-.4.1-.7.1-.9-.1-.7-.5-1-1.1-1-2.8 0-3.3 1.4-3.6 2.8-.058.348-.854 4.452-1.514 7.845-2.134 1.958-4.525 3.255-5.186 3.255-.8 0-1.1-.6-1.1-1.1 0-.345.198-1.287.386-2.176.139-.656.271-1.284.314-1.624.1-.4.1-.7.1-.9-.1-.6-.6-.9-1.2-.9-1.2 0-2.9 1.2-3.3 2.9-.6 2.6-2.4 4.3-3.6 4.3-1.5 0-2.3-1.6-2.5-3.2-.5-3.6 1.8-9.4 6-9.4 1.2 0 2.4.4 2.5 1.6.12 1.15-.491 1.421-.97 1.633-.313.138-.57.252-.53.567.1.8 1.4 1 2.2 1 .9 0 3.4-.6 3-3.5-.3-2.3-2.7-3.5-5.6-3.5-6.726 0-11.202 6.653-10.718 11.926-1.708 1.999-3.415 3.2-6.482 4.774-1.7.9-3.7 1.4-5.5 1.4-5.6 0-8.3-5.1-8.8-9.5C4.5 20.8 14.5 5.3 21.4 5.3c1.6 0 3 1.4 3.3 3.6.4 3.4.3 5.8-3.2 8.7-.4.3-.5.8-.3 1.1.3.4 1.3.5 3.2-.5 3.8-1.9 5.1-4.8 4.7-8.2-.4-3.8-3.7-6.9-8.1-6.9-2.2 0-4.5.6-6.6 1.9C5.3 10.6-.6 23.2.5 32.8c.4 3.1 1.7 6.4 4.1 8.7 1.6 1.5 4.5 3.3 8 3.3 3.8 0 7-1.4 9.8-3.2Zm56.2-13.2c-1-1.1-1.8-2.8-1.8-4.4 0-.9.3-1.9 1-1.9.6 0 1.4.9 1.4 3 0 1.1-.2 2.2-.6 3.3Z" fill="#24BECA"/></svg>