<svg width="450" height="468" viewBox="0 0 450 468" fill="none" xmlns="http://www.w3.org/2000/svg">
<g filter="url(#filter0_d_444_2911)">
<rect x="10" y="8" width="430" height="448" rx="20" fill="#151623"/>
</g>
<path d="M60.4609 46.8516H57.5312V45.1641H60.4609C60.9401 45.1641 61.3281 45.0859 61.625 44.9297C61.9271 44.7682 62.1484 44.5495 62.2891 44.2734C62.4297 43.9922 62.5 43.6719 62.5 43.3125C62.5 42.9635 62.4297 42.638 62.2891 42.3359C62.1484 42.0339 61.9271 41.7891 61.625 41.6016C61.3281 41.4141 60.9401 41.3203 60.4609 41.3203H58.2344V51H56.0859V39.625H60.4609C61.3464 39.625 62.1016 39.7839 62.7266 40.1016C63.3568 40.4141 63.8359 40.849 64.1641 41.4062C64.4974 41.9583 64.6641 42.5885 64.6641 43.2969C64.6641 44.0312 64.4974 44.6641 64.1641 45.1953C63.8359 45.7266 63.3568 46.1354 62.7266 46.4219C62.1016 46.7083 61.3464 46.8516 60.4609 46.8516ZM66.3516 39.625H70.4844C71.349 39.625 72.0911 39.7552 72.7109 40.0156C73.3307 40.276 73.8073 40.6615 74.1406 41.1719C74.474 41.6823 74.6406 42.3099 74.6406 43.0547C74.6406 43.6432 74.5365 44.1536 74.3281 44.5859C74.1198 45.0182 73.8255 45.3802 73.4453 45.6719C73.0703 45.9635 72.6276 46.1927 72.1172 46.3594L71.4453 46.7031H67.7969L67.7812 45.0078H70.5078C70.9505 45.0078 71.3177 44.9297 71.6094 44.7734C71.901 44.6172 72.1198 44.401 72.2656 44.125C72.4167 43.849 72.4922 43.5339 72.4922 43.1797C72.4922 42.7995 72.4193 42.4714 72.2734 42.1953C72.1276 41.9141 71.9062 41.6979 71.6094 41.5469C71.3125 41.3958 70.9375 41.3203 70.4844 41.3203H68.5V51H66.3516V39.625ZM72.7734 51L70.1406 45.9062L72.4141 45.8984L75.0781 50.8906V51H72.7734ZM78.8125 39.625V51H76.6641V39.625H78.8125ZM82.0703 39.625H83.9297L87.0391 48.1875L90.1406 39.625H92.0078L87.7812 51H86.2891L82.0703 39.625ZM81.1328 39.625H82.9531L83.2812 47.4922V51H81.1328V39.625ZM91.1172 39.625H92.9453V51H90.7969V47.4922L91.1172 39.625ZM99.7969 41.3516L96.5547 51H94.2812L98.5312 39.625H99.9844L99.7969 41.3516ZM102.508 51L99.25 41.3516L99.0547 39.625H100.516L104.789 51H102.508ZM102.359 46.7734V48.4688H96.2578V46.7734H102.359ZM105.961 39.625H110.094C110.958 39.625 111.701 39.7552 112.32 40.0156C112.94 40.276 113.417 40.6615 113.75 41.1719C114.083 41.6823 114.25 42.3099 114.25 43.0547C114.25 43.6432 114.146 44.1536 113.938 44.5859C113.729 45.0182 113.435 45.3802 113.055 45.6719C112.68 45.9635 112.237 46.1927 111.727 46.3594L111.055 46.7031H107.406L107.391 45.0078H110.117C110.56 45.0078 110.927 44.9297 111.219 44.7734C111.51 44.6172 111.729 44.401 111.875 44.125C112.026 43.849 112.102 43.5339 112.102 43.1797C112.102 42.7995 112.029 42.4714 111.883 42.1953C111.737 41.9141 111.516 41.6979 111.219 41.5469C110.922 41.3958 110.547 41.3203 110.094 41.3203H108.109V51H105.961V39.625ZM112.383 51L109.75 45.9062L112.023 45.8984L114.688 50.8906V51H112.383ZM117.086 39.625L119.586 44.9297L122.102 39.625H124.461L120.68 46.8359V51H118.5V46.8359L114.711 39.625H117.086ZM134.078 39.625V51H131.938V39.625H134.078ZM137.609 39.625V41.3203H128.445V39.625H137.609ZM146.578 49.3125V51H140.531V49.3125H146.578ZM141.188 39.625V51H139.039V39.625H141.188ZM145.789 44.3203V45.9688H140.531V44.3203H145.789ZM146.555 39.625V41.3203H140.531V39.625H146.555ZM149.781 39.625L152.055 43.6797L154.336 39.625H156.805L153.43 45.2656L156.891 51H154.398L152.055 46.8672L149.719 51H147.219L150.68 45.2656L147.305 39.625H149.781ZM163.094 39.625V51H160.953V39.625H163.094ZM166.625 39.625V41.3203H157.461V39.625H166.625Z" fill="#828282"/>
<path d="M61.46 120.484C61.46 120.252 61.4235 120.047 61.3506 119.869C61.2822 119.687 61.1592 119.523 60.9814 119.377C60.8083 119.231 60.5667 119.092 60.2568 118.96C59.9515 118.828 59.5641 118.693 59.0947 118.557C58.6025 118.411 58.1582 118.249 57.7617 118.071C57.3652 117.889 57.0257 117.682 56.7432 117.449C56.4606 117.217 56.2441 116.95 56.0938 116.649C55.9434 116.349 55.8682 116.005 55.8682 115.617C55.8682 115.23 55.9479 114.872 56.1074 114.544C56.2669 114.216 56.4948 113.931 56.791 113.689C57.0918 113.443 57.4495 113.252 57.8643 113.115C58.279 112.979 58.7415 112.91 59.252 112.91C59.9993 112.91 60.6328 113.054 61.1523 113.341C61.6764 113.623 62.0752 113.995 62.3486 114.455C62.6221 114.911 62.7588 115.398 62.7588 115.918H61.4463C61.4463 115.544 61.3665 115.214 61.207 114.927C61.0475 114.635 60.806 114.407 60.4824 114.243C60.1589 114.075 59.7487 113.99 59.252 113.99C58.7826 113.99 58.3952 114.061 58.0898 114.202C57.7845 114.343 57.5566 114.535 57.4062 114.776C57.2604 115.018 57.1875 115.294 57.1875 115.604C57.1875 115.813 57.2308 116.005 57.3174 116.178C57.4085 116.346 57.5475 116.504 57.7344 116.649C57.9258 116.795 58.1673 116.93 58.459 117.053C58.7552 117.176 59.1084 117.294 59.5186 117.408C60.0837 117.568 60.5713 117.745 60.9814 117.941C61.3916 118.137 61.7288 118.358 61.9932 118.604C62.262 118.846 62.4603 119.122 62.5879 119.432C62.7201 119.737 62.7861 120.083 62.7861 120.471C62.7861 120.876 62.7041 121.243 62.54 121.571C62.376 121.899 62.1413 122.18 61.8359 122.412C61.5306 122.645 61.1637 122.825 60.7354 122.952C60.3115 123.075 59.8376 123.137 59.3135 123.137C58.8532 123.137 58.3997 123.073 57.9531 122.945C57.5111 122.818 57.1077 122.626 56.7432 122.371C56.3831 122.116 56.0938 121.801 55.875 121.428C55.6608 121.049 55.5537 120.612 55.5537 120.115H56.8662C56.8662 120.457 56.9323 120.751 57.0645 120.997C57.1966 121.239 57.3766 121.439 57.6045 121.599C57.8369 121.758 58.099 121.877 58.3906 121.954C58.6868 122.027 58.9945 122.063 59.3135 122.063C59.7738 122.063 60.1634 122 60.4824 121.872C60.8014 121.744 61.043 121.562 61.207 121.325C61.3757 121.088 61.46 120.808 61.46 120.484ZM67.3457 123.137C66.8307 123.137 66.3636 123.05 65.9443 122.877C65.5296 122.699 65.1719 122.451 64.8711 122.132C64.5749 121.813 64.347 121.435 64.1875 120.997C64.028 120.56 63.9482 120.081 63.9482 119.562V119.274C63.9482 118.673 64.0371 118.137 64.2148 117.668C64.3926 117.194 64.6341 116.793 64.9395 116.465C65.2448 116.137 65.5911 115.888 65.9785 115.72C66.3659 115.551 66.7669 115.467 67.1816 115.467C67.7103 115.467 68.166 115.558 68.5488 115.74C68.9362 115.923 69.2529 116.178 69.499 116.506C69.7451 116.829 69.9274 117.212 70.0459 117.654C70.1644 118.092 70.2236 118.57 70.2236 119.09V119.657H64.7002V118.625H68.959V118.529C68.9408 118.201 68.8724 117.882 68.7539 117.572C68.64 117.262 68.4577 117.007 68.207 116.807C67.9564 116.606 67.6146 116.506 67.1816 116.506C66.8945 116.506 66.6302 116.567 66.3887 116.69C66.1471 116.809 65.9398 116.987 65.7666 117.224C65.5934 117.461 65.459 117.75 65.3633 118.092C65.2676 118.434 65.2197 118.828 65.2197 119.274V119.562C65.2197 119.912 65.2676 120.243 65.3633 120.553C65.4635 120.858 65.6071 121.127 65.7939 121.359C65.9854 121.592 66.2155 121.774 66.4844 121.906C66.7578 122.038 67.0677 122.104 67.4141 122.104C67.8607 122.104 68.2389 122.013 68.5488 121.831C68.8587 121.649 69.1299 121.405 69.3623 121.1L70.1279 121.708C69.9684 121.95 69.7656 122.18 69.5195 122.398C69.2734 122.617 68.9704 122.795 68.6104 122.932C68.2549 123.068 67.8333 123.137 67.3457 123.137ZM74.6602 122.098C74.9609 122.098 75.2389 122.036 75.4941 121.913C75.7493 121.79 75.959 121.621 76.123 121.407C76.2871 121.188 76.3805 120.94 76.4033 120.662H77.6064C77.5837 121.1 77.4355 121.507 77.1621 121.886C76.8932 122.259 76.54 122.562 76.1025 122.795C75.665 123.023 75.1842 123.137 74.6602 123.137C74.1042 123.137 73.6188 123.039 73.2041 122.843C72.7939 122.647 72.4521 122.378 72.1787 122.036C71.9098 121.694 71.707 121.302 71.5703 120.86C71.4382 120.414 71.3721 119.942 71.3721 119.445V119.158C71.3721 118.661 71.4382 118.192 71.5703 117.75C71.707 117.303 71.9098 116.909 72.1787 116.567C72.4521 116.226 72.7939 115.957 73.2041 115.761C73.6188 115.565 74.1042 115.467 74.6602 115.467C75.2389 115.467 75.7448 115.585 76.1777 115.822C76.6107 116.055 76.9502 116.374 77.1963 116.779C77.4469 117.18 77.5837 117.636 77.6064 118.146H76.4033C76.3805 117.841 76.2939 117.565 76.1436 117.319C75.9977 117.073 75.7972 116.877 75.542 116.731C75.2913 116.581 74.9974 116.506 74.6602 116.506C74.2728 116.506 73.9469 116.583 73.6826 116.738C73.4229 116.889 73.2155 117.094 73.0605 117.354C72.9102 117.609 72.8008 117.894 72.7324 118.208C72.6686 118.518 72.6367 118.835 72.6367 119.158V119.445C72.6367 119.769 72.6686 120.088 72.7324 120.402C72.7962 120.717 72.9033 121.002 73.0537 121.257C73.2087 121.512 73.416 121.717 73.6758 121.872C73.9401 122.022 74.2682 122.098 74.6602 122.098ZM78.6934 119.384V119.227C78.6934 118.693 78.7708 118.199 78.9258 117.743C79.0807 117.283 79.304 116.884 79.5957 116.547C79.8874 116.205 80.2406 115.941 80.6553 115.754C81.07 115.562 81.5348 115.467 82.0498 115.467C82.5693 115.467 83.0365 115.562 83.4512 115.754C83.8704 115.941 84.2259 116.205 84.5176 116.547C84.8138 116.884 85.0394 117.283 85.1943 117.743C85.3493 118.199 85.4268 118.693 85.4268 119.227V119.384C85.4268 119.917 85.3493 120.411 85.1943 120.867C85.0394 121.323 84.8138 121.722 84.5176 122.063C84.2259 122.401 83.8727 122.665 83.458 122.856C83.0479 123.043 82.583 123.137 82.0635 123.137C81.5439 123.137 81.0768 123.043 80.6621 122.856C80.2474 122.665 79.8919 122.401 79.5957 122.063C79.304 121.722 79.0807 121.323 78.9258 120.867C78.7708 120.411 78.6934 119.917 78.6934 119.384ZM79.958 119.227V119.384C79.958 119.753 80.0013 120.102 80.0879 120.43C80.1745 120.753 80.3044 121.04 80.4775 121.291C80.6553 121.542 80.8763 121.74 81.1406 121.886C81.4049 122.027 81.7126 122.098 82.0635 122.098C82.4098 122.098 82.7129 122.027 82.9727 121.886C83.237 121.74 83.4557 121.542 83.6289 121.291C83.8021 121.04 83.932 120.753 84.0186 120.43C84.1097 120.102 84.1553 119.753 84.1553 119.384V119.227C84.1553 118.862 84.1097 118.518 84.0186 118.194C83.932 117.866 83.7998 117.577 83.6221 117.326C83.4489 117.071 83.2301 116.87 82.9658 116.725C82.7061 116.579 82.4007 116.506 82.0498 116.506C81.7035 116.506 81.3981 116.579 81.1338 116.725C80.874 116.87 80.6553 117.071 80.4775 117.326C80.3044 117.577 80.1745 117.866 80.0879 118.194C80.0013 118.518 79.958 118.862 79.958 119.227ZM88.2773 117.183V123H87.0127V115.604H88.209L88.2773 117.183ZM87.9766 119.021L87.4502 119.001C87.4548 118.495 87.5299 118.028 87.6758 117.6C87.8216 117.167 88.0267 116.791 88.291 116.472C88.5553 116.153 88.8698 115.907 89.2344 115.733C89.6035 115.556 90.0114 115.467 90.458 115.467C90.8226 115.467 91.1507 115.517 91.4424 115.617C91.734 115.713 91.9824 115.868 92.1875 116.082C92.3971 116.296 92.5566 116.574 92.666 116.916C92.7754 117.253 92.8301 117.666 92.8301 118.153V123H91.5586V118.14C91.5586 117.752 91.5016 117.442 91.3877 117.21C91.2738 116.973 91.1074 116.802 90.8887 116.697C90.6699 116.588 90.401 116.533 90.082 116.533C89.7676 116.533 89.4805 116.599 89.2207 116.731C88.9655 116.864 88.7445 117.046 88.5576 117.278C88.3753 117.511 88.2318 117.777 88.127 118.078C88.0267 118.374 87.9766 118.689 87.9766 119.021ZM99.4131 121.564V112.5H100.685V123H99.5225L99.4131 121.564ZM94.4365 119.384V119.24C94.4365 118.675 94.5049 118.162 94.6416 117.702C94.7829 117.237 94.9811 116.839 95.2363 116.506C95.4961 116.173 95.8037 115.918 96.1592 115.74C96.5192 115.558 96.9202 115.467 97.3623 115.467C97.8271 115.467 98.2327 115.549 98.5791 115.713C98.93 115.872 99.2262 116.107 99.4678 116.417C99.7139 116.722 99.9076 117.091 100.049 117.524C100.19 117.957 100.288 118.447 100.343 118.994V119.623C100.293 120.165 100.195 120.653 100.049 121.086C99.9076 121.519 99.7139 121.888 99.4678 122.193C99.2262 122.499 98.93 122.733 98.5791 122.897C98.2282 123.057 97.818 123.137 97.3486 123.137C96.9157 123.137 96.5192 123.043 96.1592 122.856C95.8037 122.67 95.4961 122.408 95.2363 122.07C94.9811 121.733 94.7829 121.337 94.6416 120.881C94.5049 120.421 94.4365 119.922 94.4365 119.384ZM95.708 119.24V119.384C95.708 119.753 95.7445 120.099 95.8174 120.423C95.8949 120.746 96.0133 121.031 96.1729 121.277C96.3324 121.523 96.5352 121.717 96.7812 121.858C97.0273 121.995 97.3213 122.063 97.6631 122.063C98.0824 122.063 98.4264 121.975 98.6953 121.797C98.9688 121.619 99.1875 121.384 99.3516 121.093C99.5156 120.801 99.6432 120.484 99.7344 120.143V118.495C99.6797 118.244 99.5999 118.003 99.4951 117.771C99.3949 117.534 99.2627 117.324 99.0986 117.142C98.9391 116.955 98.7409 116.807 98.5039 116.697C98.2715 116.588 97.9958 116.533 97.6768 116.533C97.3304 116.533 97.0319 116.606 96.7812 116.752C96.5352 116.893 96.3324 117.089 96.1729 117.34C96.0133 117.586 95.8949 117.873 95.8174 118.201C95.7445 118.525 95.708 118.871 95.708 119.24ZM107.015 121.735V117.928C107.015 117.636 106.955 117.383 106.837 117.169C106.723 116.95 106.55 116.782 106.317 116.663C106.085 116.545 105.798 116.485 105.456 116.485C105.137 116.485 104.857 116.54 104.615 116.649C104.378 116.759 104.191 116.902 104.055 117.08C103.923 117.258 103.856 117.449 103.856 117.654H102.592C102.592 117.39 102.66 117.128 102.797 116.868C102.934 116.608 103.13 116.374 103.385 116.164C103.645 115.95 103.954 115.781 104.314 115.658C104.679 115.531 105.085 115.467 105.531 115.467C106.069 115.467 106.543 115.558 106.953 115.74C107.368 115.923 107.691 116.198 107.924 116.567C108.161 116.932 108.279 117.39 108.279 117.941V121.387C108.279 121.633 108.3 121.895 108.341 122.173C108.386 122.451 108.452 122.69 108.539 122.891V123H107.22C107.156 122.854 107.106 122.66 107.069 122.419C107.033 122.173 107.015 121.945 107.015 121.735ZM107.233 118.516L107.247 119.404H105.969C105.609 119.404 105.287 119.434 105.005 119.493C104.722 119.548 104.485 119.632 104.294 119.746C104.103 119.86 103.957 120.004 103.856 120.177C103.756 120.345 103.706 120.544 103.706 120.771C103.706 121.004 103.758 121.216 103.863 121.407C103.968 121.599 104.125 121.751 104.335 121.865C104.549 121.975 104.811 122.029 105.121 122.029C105.508 122.029 105.85 121.947 106.146 121.783C106.443 121.619 106.677 121.419 106.851 121.182C107.028 120.945 107.124 120.715 107.138 120.491L107.678 121.1C107.646 121.291 107.559 121.503 107.418 121.735C107.277 121.968 107.088 122.191 106.851 122.405C106.618 122.615 106.34 122.79 106.017 122.932C105.698 123.068 105.338 123.137 104.937 123.137C104.435 123.137 103.995 123.039 103.617 122.843C103.243 122.647 102.952 122.385 102.742 122.057C102.537 121.724 102.435 121.353 102.435 120.942C102.435 120.546 102.512 120.197 102.667 119.896C102.822 119.591 103.045 119.338 103.337 119.138C103.629 118.933 103.979 118.778 104.39 118.673C104.8 118.568 105.258 118.516 105.764 118.516H107.233ZM111.533 116.766V123H110.269V115.604H111.499L111.533 116.766ZM113.844 115.562L113.837 116.738C113.732 116.715 113.632 116.702 113.536 116.697C113.445 116.688 113.34 116.684 113.222 116.684C112.93 116.684 112.673 116.729 112.449 116.82C112.226 116.911 112.037 117.039 111.882 117.203C111.727 117.367 111.604 117.563 111.513 117.791C111.426 118.014 111.369 118.26 111.342 118.529L110.986 118.734C110.986 118.288 111.03 117.868 111.116 117.477C111.207 117.085 111.346 116.738 111.533 116.438C111.72 116.132 111.957 115.895 112.244 115.727C112.536 115.553 112.882 115.467 113.283 115.467C113.374 115.467 113.479 115.478 113.598 115.501C113.716 115.519 113.798 115.54 113.844 115.562ZM117.214 122.234L119.271 115.604H120.625L117.658 124.142C117.59 124.324 117.499 124.52 117.385 124.729C117.275 124.944 117.134 125.146 116.961 125.338C116.788 125.529 116.578 125.684 116.332 125.803C116.09 125.926 115.801 125.987 115.464 125.987C115.364 125.987 115.236 125.974 115.081 125.946C114.926 125.919 114.817 125.896 114.753 125.878L114.746 124.853C114.783 124.857 114.84 124.862 114.917 124.866C114.999 124.875 115.056 124.88 115.088 124.88C115.375 124.88 115.619 124.841 115.819 124.764C116.02 124.691 116.188 124.565 116.325 124.388C116.466 124.215 116.587 123.975 116.688 123.67L117.214 122.234ZM115.703 115.604L117.624 121.346L117.952 122.679L117.043 123.144L114.322 115.604H115.703ZM128.336 115.604V116.574H124.337V115.604H128.336ZM125.69 113.806H126.955V121.168C126.955 121.419 126.994 121.608 127.071 121.735C127.149 121.863 127.249 121.947 127.372 121.988C127.495 122.029 127.627 122.05 127.769 122.05C127.873 122.05 127.983 122.041 128.097 122.022C128.215 122 128.304 121.981 128.363 121.968L128.37 123C128.27 123.032 128.138 123.062 127.974 123.089C127.814 123.121 127.62 123.137 127.393 123.137C127.083 123.137 126.798 123.075 126.538 122.952C126.278 122.829 126.071 122.624 125.916 122.337C125.766 122.045 125.69 121.653 125.69 121.161V113.806ZM132.889 123.137C132.374 123.137 131.907 123.05 131.487 122.877C131.073 122.699 130.715 122.451 130.414 122.132C130.118 121.813 129.89 121.435 129.73 120.997C129.571 120.56 129.491 120.081 129.491 119.562V119.274C129.491 118.673 129.58 118.137 129.758 117.668C129.936 117.194 130.177 116.793 130.482 116.465C130.788 116.137 131.134 115.888 131.521 115.72C131.909 115.551 132.31 115.467 132.725 115.467C133.253 115.467 133.709 115.558 134.092 115.74C134.479 115.923 134.796 116.178 135.042 116.506C135.288 116.829 135.47 117.212 135.589 117.654C135.707 118.092 135.767 118.57 135.767 119.09V119.657H130.243V118.625H134.502V118.529C134.484 118.201 134.415 117.882 134.297 117.572C134.183 117.262 134.001 117.007 133.75 116.807C133.499 116.606 133.158 116.506 132.725 116.506C132.438 116.506 132.173 116.567 131.932 116.69C131.69 116.809 131.483 116.987 131.31 117.224C131.136 117.461 131.002 117.75 130.906 118.092C130.811 118.434 130.763 118.828 130.763 119.274V119.562C130.763 119.912 130.811 120.243 130.906 120.553C131.007 120.858 131.15 121.127 131.337 121.359C131.528 121.592 131.758 121.774 132.027 121.906C132.301 122.038 132.611 122.104 132.957 122.104C133.404 122.104 133.782 122.013 134.092 121.831C134.402 121.649 134.673 121.405 134.905 121.1L135.671 121.708C135.511 121.95 135.309 122.18 135.062 122.398C134.816 122.617 134.513 122.795 134.153 122.932C133.798 123.068 133.376 123.137 132.889 123.137ZM138.098 115.604L139.718 118.297L141.358 115.604H142.842L140.422 119.254L142.917 123H141.454L139.745 120.225L138.036 123H136.566L139.055 119.254L136.642 115.604H138.098ZM147.285 115.604V116.574H143.286V115.604H147.285ZM144.64 113.806H145.904V121.168C145.904 121.419 145.943 121.608 146.021 121.735C146.098 121.863 146.198 121.947 146.321 121.988C146.444 122.029 146.576 122.05 146.718 122.05C146.823 122.05 146.932 122.041 147.046 122.022C147.164 122 147.253 121.981 147.312 121.968L147.319 123C147.219 123.032 147.087 123.062 146.923 123.089C146.763 123.121 146.57 123.137 146.342 123.137C146.032 123.137 145.747 123.075 145.487 122.952C145.228 122.829 145.02 122.624 144.865 122.337C144.715 122.045 144.64 121.653 144.64 121.161V113.806Z" fill="#9AA4B2"/>
<path d="M60.0898 82.7773L56.3398 81.8594L57.8828 67.5625H73.2148V71.5469H61.7891L61.0078 78.5195C61.4505 78.2591 62.0625 78.0052 62.8438 77.7578C63.625 77.4974 64.5169 77.3672 65.5195 77.3672C66.8607 77.3672 68.0586 77.5885 69.1133 78.0312C70.181 78.4609 71.0859 79.0924 71.8281 79.9258C72.5703 80.7461 73.1367 81.7487 73.5273 82.9336C73.918 84.1055 74.1133 85.4271 74.1133 86.8984C74.1133 88.2135 73.918 89.444 73.5273 90.5898C73.1497 91.7357 72.5768 92.7448 71.8086 93.6172C71.0404 94.4896 70.0703 95.1732 68.8984 95.668C67.7396 96.1497 66.3659 96.3906 64.7773 96.3906C63.5924 96.3906 62.4531 96.2214 61.3594 95.8828C60.2786 95.5312 59.3086 95.0169 58.4492 94.3398C57.5898 93.6497 56.8997 92.8034 56.3789 91.8008C55.8581 90.7852 55.5586 89.6198 55.4805 88.3047H60.0898C60.207 89.2292 60.4609 90.0169 60.8516 90.668C61.2552 91.306 61.7891 91.7943 62.4531 92.1328C63.1172 92.4714 63.8854 92.6406 64.7578 92.6406C65.5521 92.6406 66.2357 92.5039 66.8086 92.2305C67.3815 91.944 67.8568 91.5404 68.2344 91.0195C68.625 90.4857 68.9115 89.8607 69.0938 89.1445C69.2891 88.4284 69.3867 87.6341 69.3867 86.7617C69.3867 85.9284 69.276 85.1667 69.0547 84.4766C68.8464 83.7865 68.5273 83.1875 68.0977 82.6797C67.681 82.1719 67.1536 81.7812 66.5156 81.5078C65.8776 81.2214 65.1419 81.0781 64.3086 81.0781C63.1888 81.0781 62.3294 81.2409 61.7305 81.5664C61.1445 81.8919 60.5977 82.2956 60.0898 82.7773ZM76.8516 93.6562C76.8516 92.9271 77.099 92.3151 77.5938 91.8203C78.0885 91.3125 78.7591 91.0586 79.6055 91.0586C80.4648 91.0586 81.1354 91.3125 81.6172 91.8203C82.112 92.3151 82.3594 92.9271 82.3594 93.6562C82.3594 94.3854 82.112 94.9974 81.6172 95.4922C81.1354 95.987 80.4648 96.2344 79.6055 96.2344C78.7591 96.2344 78.0885 95.987 77.5938 95.4922C77.099 94.9974 76.8516 94.3854 76.8516 93.6562ZM89.8047 92.2891H90.1953C91.9922 92.2891 93.4896 92.0547 94.6875 91.5859C95.8984 91.1042 96.862 90.4401 97.5781 89.5938C98.2943 88.7474 98.8086 87.7513 99.1211 86.6055C99.4336 85.4596 99.5898 84.2161 99.5898 82.875V77.9727C99.5898 76.8138 99.4661 75.7982 99.2188 74.9258C98.9844 74.0404 98.6458 73.3047 98.2031 72.7188C97.7734 72.1198 97.2721 71.6706 96.6992 71.3711C96.1393 71.0716 95.5339 70.9219 94.8828 70.9219C94.1667 70.9219 93.5221 71.0846 92.9492 71.4102C92.3893 71.7227 91.9141 72.1589 91.5234 72.7188C91.1458 73.2656 90.8529 73.9102 90.6445 74.6523C90.4492 75.3815 90.3516 76.1628 90.3516 76.9961C90.3516 77.7773 90.4427 78.5326 90.625 79.2617C90.8203 79.9779 91.1068 80.6159 91.4844 81.1758C91.862 81.7357 92.3372 82.1784 92.9102 82.5039C93.4831 82.8294 94.1536 82.9922 94.9219 82.9922C95.651 82.9922 96.3216 82.8555 96.9336 82.582C97.5456 82.2956 98.0794 81.9115 98.5352 81.4297C98.9909 80.9479 99.349 80.4076 99.6094 79.8086C99.8698 79.2096 100.013 78.5977 100.039 77.9727L101.836 78.5195C101.836 79.5091 101.628 80.4857 101.211 81.4492C100.807 82.3997 100.241 83.2721 99.5117 84.0664C98.7956 84.8477 97.9557 85.4727 96.9922 85.9414C96.0417 86.4102 95.0065 86.6445 93.8867 86.6445C92.5326 86.6445 91.3346 86.3906 90.293 85.8828C89.2643 85.362 88.4049 84.6589 87.7148 83.7734C87.0378 82.888 86.5299 81.8724 86.1914 80.7266C85.8529 79.5807 85.6836 78.3763 85.6836 77.1133C85.6836 75.7461 85.8919 74.4635 86.3086 73.2656C86.7253 72.0677 87.3307 71.013 88.125 70.1016C88.9193 69.1771 89.8828 68.4609 91.0156 67.9531C92.1615 67.4323 93.457 67.1719 94.9023 67.1719C96.4388 67.1719 97.7865 67.4714 98.9453 68.0703C100.104 68.6693 101.081 69.4961 101.875 70.5508C102.669 71.6055 103.268 72.8294 103.672 74.2227C104.076 75.6159 104.277 77.1133 104.277 78.7148V80.375C104.277 82.0547 104.128 83.6758 103.828 85.2383C103.529 86.7878 103.04 88.2266 102.363 89.5547C101.699 90.8698 100.82 92.0286 99.7266 93.0312C98.6458 94.0208 97.3177 94.7956 95.7422 95.3555C94.1797 95.9023 92.3438 96.1758 90.2344 96.1758H89.8047V92.2891ZM125.844 88.2461C125.844 90.0169 125.434 91.5078 124.613 92.7188C123.793 93.9297 122.673 94.8477 121.254 95.4727C119.848 96.0846 118.259 96.3906 116.488 96.3906C114.717 96.3906 113.122 96.0846 111.703 95.4727C110.284 94.8477 109.164 93.9297 108.344 92.7188C107.523 91.5078 107.113 90.0169 107.113 88.2461C107.113 87.0742 107.341 86.013 107.797 85.0625C108.253 84.099 108.897 83.2721 109.73 82.582C110.577 81.8789 111.566 81.3385 112.699 80.9609C113.845 80.5833 115.095 80.3945 116.449 80.3945C118.246 80.3945 119.854 80.7266 121.273 81.3906C122.693 82.0547 123.806 82.9727 124.613 84.1445C125.434 85.3164 125.844 86.6836 125.844 88.2461ZM121.117 88.0117C121.117 87.0612 120.922 86.2279 120.531 85.5117C120.141 84.7956 119.594 84.2422 118.891 83.8516C118.188 83.4609 117.374 83.2656 116.449 83.2656C115.512 83.2656 114.698 83.4609 114.008 83.8516C113.318 84.2422 112.777 84.7956 112.387 85.5117C112.009 86.2279 111.82 87.0612 111.82 88.0117C111.82 88.9753 112.009 89.8086 112.387 90.5117C112.764 91.2018 113.305 91.7292 114.008 92.0938C114.711 92.4583 115.538 92.6406 116.488 92.6406C117.439 92.6406 118.259 92.4583 118.949 92.0938C119.639 91.7292 120.173 91.2018 120.551 90.5117C120.928 89.8086 121.117 88.9753 121.117 88.0117ZM125.199 75.043C125.199 76.4622 124.822 77.7253 124.066 78.832C123.324 79.9388 122.296 80.8112 120.98 81.4492C119.665 82.0742 118.168 82.3867 116.488 82.3867C114.796 82.3867 113.285 82.0742 111.957 81.4492C110.642 80.8112 109.607 79.9388 108.852 78.832C108.109 77.7253 107.738 76.4622 107.738 75.043C107.738 73.3503 108.109 71.9245 108.852 70.7656C109.607 69.5938 110.642 68.7018 111.957 68.0898C113.272 67.4779 114.776 67.1719 116.469 67.1719C118.161 67.1719 119.665 67.4779 120.98 68.0898C122.296 68.7018 123.324 69.5938 124.066 70.7656C124.822 71.9245 125.199 73.3503 125.199 75.043ZM120.492 75.1992C120.492 74.3529 120.323 73.6107 119.984 72.9727C119.659 72.3216 119.197 71.8138 118.598 71.4492C117.999 71.0846 117.289 70.9023 116.469 70.9023C115.648 70.9023 114.939 71.0781 114.34 71.4297C113.741 71.7812 113.279 72.276 112.953 72.9141C112.628 73.5521 112.465 74.3138 112.465 75.1992C112.465 76.0716 112.628 76.8333 112.953 77.4844C113.279 78.1224 113.741 78.6237 114.34 78.9883C114.952 79.3529 115.668 79.5352 116.488 79.5352C117.309 79.5352 118.018 79.3529 118.617 78.9883C119.216 78.6237 119.678 78.1224 120.004 77.4844C120.329 76.8333 120.492 76.0716 120.492 75.1992ZM147.371 67.5625V70.1406L136.004 96H131.043L142.391 71.3125H127.664V67.5625H147.371ZM154.406 91.4688L154.387 94.8281C154.387 96.1562 154.055 97.5234 153.391 98.9297C152.727 100.336 151.848 101.495 150.754 102.406L148.234 100.941C148.599 100.355 148.931 99.763 149.23 99.1641C149.53 98.5651 149.771 97.9271 149.953 97.25C150.135 96.5729 150.227 95.8242 150.227 95.0039V91.4688H154.406ZM162.691 79.6523H165.504C166.598 79.6523 167.503 79.4635 168.219 79.0859C168.948 78.7083 169.488 78.1875 169.84 77.5234C170.191 76.8594 170.367 76.0977 170.367 75.2383C170.367 74.3398 170.204 73.5716 169.879 72.9336C169.566 72.2826 169.085 71.7812 168.434 71.4297C167.796 71.0781 166.982 70.9023 165.992 70.9023C165.159 70.9023 164.404 71.0716 163.727 71.4102C163.062 71.7357 162.535 72.2044 162.145 72.8164C161.754 73.4154 161.559 74.1315 161.559 74.9648H156.832C156.832 73.4544 157.229 72.1133 158.023 70.9414C158.818 69.7695 159.898 68.8516 161.266 68.1875C162.646 67.5104 164.195 67.1719 165.914 67.1719C167.75 67.1719 169.352 67.4779 170.719 68.0898C172.099 68.6888 173.173 69.5872 173.941 70.7852C174.71 71.9831 175.094 73.4674 175.094 75.2383C175.094 76.0456 174.905 76.8659 174.527 77.6992C174.15 78.5326 173.59 79.2943 172.848 79.9844C172.105 80.6615 171.181 81.2148 170.074 81.6445C168.967 82.0612 167.685 82.2695 166.227 82.2695H162.691V79.6523ZM162.691 83.3242V80.7461H166.227C167.893 80.7461 169.312 80.9414 170.484 81.332C171.669 81.7227 172.633 82.263 173.375 82.9531C174.117 83.6302 174.658 84.4049 174.996 85.2773C175.348 86.1497 175.523 87.0742 175.523 88.0508C175.523 89.3789 175.283 90.5638 174.801 91.6055C174.332 92.6341 173.661 93.5065 172.789 94.2227C171.917 94.9388 170.895 95.4792 169.723 95.8438C168.564 96.2083 167.301 96.3906 165.934 96.3906C164.71 96.3906 163.538 96.2214 162.418 95.8828C161.298 95.5443 160.296 95.043 159.41 94.3789C158.525 93.7018 157.822 92.862 157.301 91.8594C156.793 90.8438 156.539 89.6719 156.539 88.3438H161.246C161.246 89.1901 161.441 89.9388 161.832 90.5898C162.236 91.2279 162.796 91.7292 163.512 92.0938C164.241 92.4583 165.074 92.6406 166.012 92.6406C167.001 92.6406 167.854 92.4648 168.57 92.1133C169.286 91.7617 169.833 91.2409 170.211 90.5508C170.602 89.8607 170.797 89.0273 170.797 88.0508C170.797 86.944 170.582 86.0456 170.152 85.3555C169.723 84.6654 169.111 84.1576 168.316 83.832C167.522 83.4935 166.585 83.3242 165.504 83.3242H162.691ZM197.988 85.8633V89.6133H177.48L177.324 86.7812L189.59 67.5625H193.359L189.277 74.5547L182.227 85.8633H197.988ZM194.434 67.5625V96H189.727V67.5625H194.434Z" fill="white"/>
<circle cx="391" cy="48" r="12" fill="#3A3E45"/>
<rect x="389" y="45.3334" width="3.99999" height="10.6666" rx="2" fill="white"/>
<rect x="389" y="40" width="3.99999" height="3.99999" rx="2" fill="white"/>
<rect x="82.5" y="182.5" width="320" height="166" stroke="#27294D"/>
<path d="M82 213H403" stroke="#27294D"/>
<path d="M82 248H403" stroke="#27294D"/>
<path d="M82 283H403" stroke="#27294D"/>
<path d="M82 318H403" stroke="#27294D"/>
<path d="M135.586 182L135.586 349" stroke="#27294D"/>
<path d="M188.66 182L188.66 349" stroke="#27294D"/>
<path d="M241.734 182L241.734 349" stroke="#27294D"/>
<path d="M295.32 182L295.32 349" stroke="#27294D"/>
<path d="M348.395 182L348.395 349" stroke="#27294D"/>
<path d="M45.5728 344.168V345.105H41.7546V344.168H45.5728ZM50.3935 340.273V349H49.3366V341.381H49.2855L47.1548 342.795V341.722L49.3366 340.273H50.3935ZM55.75 349.119C55.108 349.119 54.5611 348.945 54.1094 348.595C53.6577 348.243 53.3125 347.733 53.0739 347.065C52.8352 346.395 52.7159 345.585 52.7159 344.636C52.7159 343.693 52.8352 342.888 53.0739 342.22C53.3153 341.55 53.6619 341.038 54.1136 340.686C54.5682 340.331 55.1136 340.153 55.75 340.153C56.3864 340.153 56.9304 340.331 57.3821 340.686C57.8366 341.038 58.1832 341.55 58.4219 342.22C58.6634 342.888 58.7841 343.693 58.7841 344.636C58.7841 345.585 58.6648 346.395 58.4261 347.065C58.1875 347.733 57.8423 348.243 57.3906 348.595C56.9389 348.945 56.392 349.119 55.75 349.119ZM55.75 348.182C56.3864 348.182 56.8807 347.875 57.233 347.261C57.5852 346.648 57.7614 345.773 57.7614 344.636C57.7614 343.881 57.6804 343.237 57.5185 342.706C57.3594 342.175 57.1293 341.77 56.8281 341.491C56.5298 341.213 56.1705 341.074 55.75 341.074C55.1193 341.074 54.6264 341.385 54.2713 342.007C53.9162 342.626 53.7386 343.503 53.7386 344.636C53.7386 345.392 53.8182 346.034 53.9773 346.562C54.1364 347.091 54.3651 347.493 54.6634 347.768C54.9645 348.044 55.3267 348.182 55.75 348.182ZM63.25 349.119C62.608 349.119 62.0611 348.945 61.6094 348.595C61.1577 348.243 60.8125 347.733 60.5739 347.065C60.3352 346.395 60.2159 345.585 60.2159 344.636C60.2159 343.693 60.3352 342.888 60.5739 342.22C60.8153 341.55 61.1619 341.038 61.6136 340.686C62.0682 340.331 62.6136 340.153 63.25 340.153C63.8864 340.153 64.4304 340.331 64.8821 340.686C65.3366 341.038 65.6832 341.55 65.9219 342.22C66.1634 342.888 66.2841 343.693 66.2841 344.636C66.2841 345.585 66.1648 346.395 65.9261 347.065C65.6875 347.733 65.3423 348.243 64.8906 348.595C64.4389 348.945 63.892 349.119 63.25 349.119ZM63.25 348.182C63.8864 348.182 64.3807 347.875 64.733 347.261C65.0852 346.648 65.2614 345.773 65.2614 344.636C65.2614 343.881 65.1804 343.237 65.0185 342.706C64.8594 342.175 64.6293 341.77 64.3281 341.491C64.0298 341.213 63.6705 341.074 63.25 341.074C62.6193 341.074 62.1264 341.385 61.7713 342.007C61.4162 342.626 61.2386 343.503 61.2386 344.636C61.2386 345.392 61.3182 346.034 61.4773 346.562C61.6364 347.091 61.8651 347.493 62.1634 347.768C62.4645 348.044 62.8267 348.182 63.25 348.182Z" fill="#9AA4B2"/>
<path d="M51.1626 313.168V314.105H47.3445V313.168H51.1626ZM55.8129 318.119C55.4549 318.114 55.0969 318.045 54.739 317.915C54.381 317.784 54.0543 317.564 53.7589 317.254C53.4634 316.942 53.2262 316.52 53.0472 315.989C52.8683 315.455 52.7788 314.784 52.7788 313.977C52.7788 313.205 52.8512 312.52 52.9961 311.923C53.141 311.324 53.3512 310.82 53.6268 310.411C53.9023 309.999 54.2347 309.686 54.6239 309.473C55.016 309.26 55.4577 309.153 55.9492 309.153C56.4379 309.153 56.8725 309.251 57.2532 309.447C57.6367 309.641 57.9492 309.911 58.1907 310.257C58.4322 310.604 58.5884 311.003 58.6594 311.455H57.6197C57.5231 311.062 57.3356 310.737 57.0572 310.479C56.7788 310.22 56.4094 310.091 55.9492 310.091C55.2731 310.091 54.7404 310.385 54.3512 310.973C53.9648 311.561 53.7702 312.386 53.7674 313.449H53.8356C53.9947 313.207 54.1836 313.001 54.4023 312.831C54.6239 312.658 54.8683 312.524 55.1353 312.43C55.4023 312.337 55.685 312.29 55.9833 312.29C56.4833 312.29 56.9407 312.415 57.3555 312.665C57.7702 312.912 58.1026 313.254 58.3526 313.692C58.6026 314.126 58.7276 314.625 58.7276 315.188C58.7276 315.727 58.6069 316.222 58.3654 316.67C58.1239 317.116 57.7844 317.472 57.3469 317.736C56.9123 317.997 56.4009 318.125 55.8129 318.119ZM55.8129 317.182C56.1708 317.182 56.4918 317.092 56.7759 316.913C57.0629 316.734 57.2887 316.494 57.4535 316.193C57.6211 315.892 57.7049 315.557 57.7049 315.188C57.7049 314.827 57.6239 314.499 57.462 314.203C57.3029 313.905 57.0827 313.668 56.8015 313.491C56.5231 313.315 56.2049 313.227 55.8469 313.227C55.5771 313.227 55.3256 313.281 55.0927 313.389C54.8597 313.494 54.6552 313.639 54.479 313.824C54.3058 314.009 54.1694 314.22 54.07 314.459C53.9705 314.695 53.9208 314.943 53.9208 315.205C53.9208 315.551 54.0018 315.875 54.1637 316.176C54.3285 316.477 54.5529 316.72 54.837 316.905C55.1239 317.089 55.4492 317.182 55.8129 317.182ZM63.25 318.119C62.608 318.119 62.0611 317.945 61.6094 317.595C61.1577 317.243 60.8125 316.733 60.5739 316.065C60.3352 315.395 60.2159 314.585 60.2159 313.636C60.2159 312.693 60.3352 311.888 60.5739 311.22C60.8153 310.55 61.1619 310.038 61.6136 309.686C62.0682 309.331 62.6136 309.153 63.25 309.153C63.8864 309.153 64.4304 309.331 64.8821 309.686C65.3366 310.038 65.6832 310.55 65.9219 311.22C66.1634 311.888 66.2841 312.693 66.2841 313.636C66.2841 314.585 66.1648 315.395 65.9261 316.065C65.6875 316.733 65.3423 317.243 64.8906 317.595C64.4389 317.945 63.892 318.119 63.25 318.119ZM63.25 317.182C63.8864 317.182 64.3807 316.875 64.733 316.261C65.0852 315.648 65.2614 314.773 65.2614 313.636C65.2614 312.881 65.1804 312.237 65.0185 311.706C64.8594 311.175 64.6293 310.77 64.3281 310.491C64.0298 310.213 63.6705 310.074 63.25 310.074C62.6193 310.074 62.1264 310.385 61.7713 311.007C61.4162 311.626 61.2386 312.503 61.2386 313.636C61.2386 314.392 61.3182 315.034 61.4773 315.562C61.6364 316.091 61.8651 316.493 62.1634 316.768C62.4645 317.044 62.8267 317.182 63.25 317.182Z" fill="#9AA4B2"/>
<path d="M51.7955 278.168V279.105H47.9773V278.168H51.7955ZM53.1378 283V282.233L56.0185 279.08C56.3565 278.71 56.6349 278.389 56.8537 278.116C57.0724 277.841 57.2344 277.582 57.3395 277.341C57.4474 277.097 57.5014 276.841 57.5014 276.574C57.5014 276.267 57.4276 276.001 57.2798 275.777C57.1349 275.553 56.9361 275.379 56.6832 275.257C56.4304 275.135 56.1463 275.074 55.831 275.074C55.4957 275.074 55.2031 275.143 54.9531 275.283C54.706 275.419 54.5142 275.611 54.3778 275.858C54.2443 276.105 54.1776 276.395 54.1776 276.727H53.1719C53.1719 276.216 53.2898 275.767 53.5256 275.381C53.7614 274.994 54.0824 274.693 54.4886 274.477C54.8977 274.261 55.3565 274.153 55.8651 274.153C56.3764 274.153 56.8295 274.261 57.2244 274.477C57.6193 274.693 57.929 274.984 58.1534 275.351C58.3778 275.717 58.4901 276.125 58.4901 276.574C58.4901 276.895 58.4318 277.209 58.3153 277.516C58.2017 277.82 58.0028 278.159 57.7188 278.534C57.4375 278.906 57.0469 279.361 56.5469 279.898L54.5866 281.994V282.062H58.6435V283H53.1378ZM63.25 283.119C62.608 283.119 62.0611 282.945 61.6094 282.595C61.1577 282.243 60.8125 281.733 60.5739 281.065C60.3352 280.395 60.2159 279.585 60.2159 278.636C60.2159 277.693 60.3352 276.888 60.5739 276.22C60.8153 275.55 61.1619 275.038 61.6136 274.686C62.0682 274.331 62.6136 274.153 63.25 274.153C63.8864 274.153 64.4304 274.331 64.8821 274.686C65.3366 275.038 65.6832 275.55 65.9219 276.22C66.1634 276.888 66.2841 277.693 66.2841 278.636C66.2841 279.585 66.1648 280.395 65.9261 281.065C65.6875 281.733 65.3423 282.243 64.8906 282.595C64.4389 282.945 63.892 283.119 63.25 283.119ZM63.25 282.182C63.8864 282.182 64.3807 281.875 64.733 281.261C65.0852 280.648 65.2614 279.773 65.2614 278.636C65.2614 277.881 65.1804 277.237 65.0185 276.706C64.8594 276.175 64.6293 275.77 64.3281 275.491C64.0298 275.213 63.6705 275.074 63.25 275.074C62.6193 275.074 62.1264 275.385 61.7713 276.007C61.4162 276.626 61.2386 277.503 61.2386 278.636C61.2386 279.392 61.3182 280.034 61.4773 280.562C61.6364 281.091 61.8651 281.493 62.1634 281.768C62.4645 282.044 62.8267 282.182 63.25 282.182Z" fill="#9AA4B2"/>
<path d="M53.1378 248V247.233L56.0185 244.08C56.3565 243.71 56.6349 243.389 56.8537 243.116C57.0724 242.841 57.2344 242.582 57.3395 242.341C57.4474 242.097 57.5014 241.841 57.5014 241.574C57.5014 241.267 57.4276 241.001 57.2798 240.777C57.1349 240.553 56.9361 240.379 56.6832 240.257C56.4304 240.135 56.1463 240.074 55.831 240.074C55.4957 240.074 55.2031 240.143 54.9531 240.283C54.706 240.419 54.5142 240.611 54.3778 240.858C54.2443 241.105 54.1776 241.395 54.1776 241.727H53.1719C53.1719 241.216 53.2898 240.767 53.5256 240.381C53.7614 239.994 54.0824 239.693 54.4886 239.477C54.8977 239.261 55.3565 239.153 55.8651 239.153C56.3764 239.153 56.8295 239.261 57.2244 239.477C57.6193 239.693 57.929 239.984 58.1534 240.351C58.3778 240.717 58.4901 241.125 58.4901 241.574C58.4901 241.895 58.4318 242.209 58.3153 242.516C58.2017 242.82 58.0028 243.159 57.7188 243.534C57.4375 243.906 57.0469 244.361 56.5469 244.898L54.5866 246.994V247.062H58.6435V248H53.1378ZM63.25 248.119C62.608 248.119 62.0611 247.945 61.6094 247.595C61.1577 247.243 60.8125 246.733 60.5739 246.065C60.3352 245.395 60.2159 244.585 60.2159 243.636C60.2159 242.693 60.3352 241.888 60.5739 241.22C60.8153 240.55 61.1619 240.038 61.6136 239.686C62.0682 239.331 62.6136 239.153 63.25 239.153C63.8864 239.153 64.4304 239.331 64.8821 239.686C65.3366 240.038 65.6832 240.55 65.9219 241.22C66.1634 241.888 66.2841 242.693 66.2841 243.636C66.2841 244.585 66.1648 245.395 65.9261 246.065C65.6875 246.733 65.3423 247.243 64.8906 247.595C64.4389 247.945 63.892 248.119 63.25 248.119ZM63.25 247.182C63.8864 247.182 64.3807 246.875 64.733 246.261C65.0852 245.648 65.2614 244.773 65.2614 243.636C65.2614 242.881 65.1804 242.237 65.0185 241.706C64.8594 241.175 64.6293 240.77 64.3281 240.491C64.0298 240.213 63.6705 240.074 63.25 240.074C62.6193 240.074 62.1264 240.385 61.7713 241.007C61.4162 241.626 61.2386 242.503 61.2386 243.636C61.2386 244.392 61.3182 245.034 61.4773 245.562C61.6364 246.091 61.8651 246.493 62.1634 246.768C62.4645 247.044 62.8267 247.182 63.25 247.182Z" fill="#9AA4B2"/>
<path d="M55.8129 213.119C55.4549 213.114 55.0969 213.045 54.739 212.915C54.381 212.784 54.0543 212.564 53.7589 212.254C53.4634 211.942 53.2262 211.52 53.0472 210.989C52.8683 210.455 52.7788 209.784 52.7788 208.977C52.7788 208.205 52.8512 207.52 52.9961 206.923C53.141 206.324 53.3512 205.82 53.6268 205.411C53.9023 204.999 54.2347 204.686 54.6239 204.473C55.016 204.26 55.4577 204.153 55.9492 204.153C56.4379 204.153 56.8725 204.251 57.2532 204.447C57.6367 204.641 57.9492 204.911 58.1907 205.257C58.4322 205.604 58.5884 206.003 58.6594 206.455H57.6197C57.5231 206.062 57.3356 205.737 57.0572 205.479C56.7788 205.22 56.4094 205.091 55.9492 205.091C55.2731 205.091 54.7404 205.385 54.3512 205.973C53.9648 206.561 53.7702 207.386 53.7674 208.449H53.8356C53.9947 208.207 54.1836 208.001 54.4023 207.831C54.6239 207.658 54.8683 207.524 55.1353 207.43C55.4023 207.337 55.685 207.29 55.9833 207.29C56.4833 207.29 56.9407 207.415 57.3555 207.665C57.7702 207.912 58.1026 208.254 58.3526 208.692C58.6026 209.126 58.7276 209.625 58.7276 210.188C58.7276 210.727 58.6069 211.222 58.3654 211.67C58.1239 212.116 57.7844 212.472 57.3469 212.736C56.9123 212.997 56.4009 213.125 55.8129 213.119ZM55.8129 212.182C56.1708 212.182 56.4918 212.092 56.7759 211.913C57.0629 211.734 57.2887 211.494 57.4535 211.193C57.6211 210.892 57.7049 210.557 57.7049 210.188C57.7049 209.827 57.6239 209.499 57.462 209.203C57.3029 208.905 57.0827 208.668 56.8015 208.491C56.5231 208.315 56.2049 208.227 55.8469 208.227C55.5771 208.227 55.3256 208.281 55.0927 208.389C54.8597 208.494 54.6552 208.639 54.479 208.824C54.3058 209.009 54.1694 209.22 54.07 209.459C53.9705 209.695 53.9208 209.943 53.9208 210.205C53.9208 210.551 54.0018 210.875 54.1637 211.176C54.3285 211.477 54.5529 211.72 54.837 211.905C55.1239 212.089 55.4492 212.182 55.8129 212.182ZM63.25 213.119C62.608 213.119 62.0611 212.945 61.6094 212.595C61.1577 212.243 60.8125 211.733 60.5739 211.065C60.3352 210.395 60.2159 209.585 60.2159 208.636C60.2159 207.693 60.3352 206.888 60.5739 206.22C60.8153 205.55 61.1619 205.038 61.6136 204.686C62.0682 204.331 62.6136 204.153 63.25 204.153C63.8864 204.153 64.4304 204.331 64.8821 204.686C65.3366 205.038 65.6832 205.55 65.9219 206.22C66.1634 206.888 66.2841 207.693 66.2841 208.636C66.2841 209.585 66.1648 210.395 65.9261 211.065C65.6875 211.733 65.3423 212.243 64.8906 212.595C64.4389 212.945 63.892 213.119 63.25 213.119ZM63.25 212.182C63.8864 212.182 64.3807 211.875 64.733 211.261C65.0852 210.648 65.2614 209.773 65.2614 208.636C65.2614 207.881 65.1804 207.237 65.0185 206.706C64.8594 206.175 64.6293 205.77 64.3281 205.491C64.0298 205.213 63.6705 205.074 63.25 205.074C62.6193 205.074 62.1264 205.385 61.7713 206.007C61.4162 206.626 61.2386 207.503 61.2386 208.636C61.2386 209.392 61.3182 210.034 61.4773 210.562C61.6364 211.091 61.8651 211.493 62.1634 211.768C62.4645 212.044 62.8267 212.182 63.25 212.182Z" fill="#9AA4B2"/>
<path d="M50.3935 173.273V182H49.3366V174.381H49.2855L47.1548 175.795V174.722L49.3366 173.273H50.3935ZM55.75 182.119C55.108 182.119 54.5611 181.945 54.1094 181.595C53.6577 181.243 53.3125 180.733 53.0739 180.065C52.8352 179.395 52.7159 178.585 52.7159 177.636C52.7159 176.693 52.8352 175.888 53.0739 175.22C53.3153 174.55 53.6619 174.038 54.1136 173.686C54.5682 173.331 55.1136 173.153 55.75 173.153C56.3864 173.153 56.9304 173.331 57.3821 173.686C57.8366 174.038 58.1832 174.55 58.4219 175.22C58.6634 175.888 58.7841 176.693 58.7841 177.636C58.7841 178.585 58.6648 179.395 58.4261 180.065C58.1875 180.733 57.8423 181.243 57.3906 181.595C56.9389 181.945 56.392 182.119 55.75 182.119ZM55.75 181.182C56.3864 181.182 56.8807 180.875 57.233 180.261C57.5852 179.648 57.7614 178.773 57.7614 177.636C57.7614 176.881 57.6804 176.237 57.5185 175.706C57.3594 175.175 57.1293 174.77 56.8281 174.491C56.5298 174.213 56.1705 174.074 55.75 174.074C55.1193 174.074 54.6264 174.385 54.2713 175.007C53.9162 175.626 53.7386 176.503 53.7386 177.636C53.7386 178.392 53.8182 179.034 53.9773 179.562C54.1364 180.091 54.3651 180.493 54.6634 180.768C54.9645 181.044 55.3267 181.182 55.75 181.182ZM63.25 182.119C62.608 182.119 62.0611 181.945 61.6094 181.595C61.1577 181.243 60.8125 180.733 60.5739 180.065C60.3352 179.395 60.2159 178.585 60.2159 177.636C60.2159 176.693 60.3352 175.888 60.5739 175.22C60.8153 174.55 61.1619 174.038 61.6136 173.686C62.0682 173.331 62.6136 173.153 63.25 173.153C63.8864 173.153 64.4304 173.331 64.8821 173.686C65.3366 174.038 65.6832 174.55 65.9219 175.22C66.1634 175.888 66.2841 176.693 66.2841 177.636C66.2841 178.585 66.1648 179.395 65.9261 180.065C65.6875 180.733 65.3423 181.243 64.8906 181.595C64.4389 181.945 63.892 182.119 63.25 182.119ZM63.25 181.182C63.8864 181.182 64.3807 180.875 64.733 180.261C65.0852 179.648 65.2614 178.773 65.2614 177.636C65.2614 176.881 65.1804 176.237 65.0185 175.706C64.8594 175.175 64.6293 174.77 64.3281 174.491C64.0298 174.213 63.6705 174.074 63.25 174.074C62.6193 174.074 62.1264 174.385 61.7713 175.007C61.4162 175.626 61.2386 176.503 61.2386 177.636C61.2386 178.392 61.3182 179.034 61.4773 179.562C61.6364 180.091 61.8651 180.493 62.1634 180.768C62.4645 181.044 62.8267 181.182 63.25 181.182Z" fill="#9AA4B2"/>
<path d="M10 153H440" stroke="#27294D" stroke-width="2"/>
<rect x="172" y="223" width="16" height="41" rx="8" fill="#FAFAFA" stroke="#FAFAFA" stroke-width="2"/>
<rect x="118" y="224" width="16" height="41" rx="8" fill="#FAFAFA" stroke="#FAFAFA" stroke-width="2"/>
<rect x="100" y="267" width="16" height="11" rx="3" fill="#9AA4B2" stroke="#9AA4B2" stroke-width="2"/>
<rect x="154" y="249" width="16" height="15" rx="3" fill="#9AA4B2" stroke="#9AA4B2" stroke-width="2"/>
<rect x="207" y="266" width="16" height="39" rx="3" fill="#9AA4B2" stroke="#9AA4B2" stroke-width="2"/>
<rect x="262" y="266" width="16" height="10" rx="3" fill="#9AA4B2" stroke="#9AA4B2" stroke-width="2"/>
<rect x="225" y="266" width="16" height="10" rx="3" fill="#FAFAFA" stroke="#FAFAFA" stroke-width="2"/>
<rect x="313" y="247" width="17" height="17" rx="3" fill="#9AA4B2" stroke="#9AA4B2" stroke-width="2"/>
<rect x="332" y="247" width="16" height="17" rx="3" fill="#FAFAFA" stroke="#FAFAFA" stroke-width="2"/>
<rect x="368" y="266" width="16" height="23" rx="3" fill="#9AA4B2" stroke="#9AA4B2" stroke-width="2"/>
<rect x="83" y="263" width="16" height="2" rx="1" fill="#FAFAFA" stroke="#FAFAFA" stroke-width="2"/>
<rect x="189" y="256" width="16" height="8" rx="4" fill="#FAFAFA" stroke="#FAFAFA" stroke-width="2"/>
<rect x="136" y="256" width="16" height="8" rx="4" fill="#FAFAFA" stroke="#FAFAFA" stroke-width="2"/>
<rect x="242" y="266" width="18" height="40" rx="9" fill="#FAFAFA" stroke="#FAFAFA" stroke-width="2"/>
<rect x="297" y="266" width="16" height="15" rx="7.5" fill="#FAFAFA" stroke="#FAFAFA" stroke-width="2"/>
<rect x="278" y="266" width="17" height="15" rx="7.5" fill="#FAFAFA" stroke="#FAFAFA" stroke-width="2"/>
<rect x="350" y="266" width="16" height="36" rx="8" fill="#FAFAFA" stroke="#FAFAFA" stroke-width="2"/>
<rect x="386" y="228" width="16" height="36" rx="8" fill="#FAFAFA" stroke="#FAFAFA" stroke-width="2"/>
<path d="M113.057 420V411.273H116.006C116.69 411.273 117.25 411.396 117.685 411.643C118.122 411.888 118.446 412.219 118.656 412.636C118.866 413.054 118.972 413.52 118.972 414.034C118.972 414.548 118.866 415.016 118.656 415.436C118.449 415.857 118.128 416.192 117.693 416.442C117.259 416.689 116.702 416.812 116.023 416.812H113.909V415.875H115.989C116.457 415.875 116.834 415.794 117.118 415.632C117.402 415.47 117.608 415.251 117.736 414.976C117.866 414.697 117.932 414.384 117.932 414.034C117.932 413.685 117.866 413.372 117.736 413.097C117.608 412.821 117.401 412.605 117.114 412.449C116.827 412.29 116.446 412.21 115.972 412.21H114.114V420H113.057ZM120.538 420V413.455H121.509V414.443H121.577C121.697 414.119 121.913 413.857 122.225 413.655C122.538 413.453 122.89 413.352 123.282 413.352C123.356 413.352 123.448 413.354 123.559 413.357C123.67 413.359 123.754 413.364 123.81 413.369V414.392C123.776 414.384 123.698 414.371 123.576 414.354C123.457 414.334 123.33 414.324 123.197 414.324C122.879 414.324 122.594 414.391 122.344 414.524C122.097 414.655 121.901 414.837 121.756 415.07C121.614 415.3 121.543 415.562 121.543 415.858V420H120.538ZM127.462 420.136C126.871 420.136 126.353 419.996 125.907 419.714C125.464 419.433 125.117 419.04 124.867 418.534C124.62 418.028 124.496 417.437 124.496 416.761C124.496 416.08 124.62 415.484 124.867 414.976C125.117 414.467 125.464 414.072 125.907 413.791C126.353 413.51 126.871 413.369 127.462 413.369C128.053 413.369 128.57 413.51 129.013 413.791C129.46 414.072 129.806 414.467 130.053 414.976C130.303 415.484 130.428 416.08 130.428 416.761C130.428 417.437 130.303 418.028 130.053 418.534C129.806 419.04 129.46 419.433 129.013 419.714C128.57 419.996 128.053 420.136 127.462 420.136ZM127.462 419.233C127.911 419.233 128.281 419.118 128.57 418.888C128.86 418.658 129.075 418.355 129.214 417.98C129.353 417.605 129.423 417.199 129.423 416.761C129.423 416.324 129.353 415.916 129.214 415.538C129.075 415.161 128.86 414.855 128.57 414.622C128.281 414.389 127.911 414.273 127.462 414.273C127.013 414.273 126.644 414.389 126.354 414.622C126.065 414.855 125.85 415.161 125.711 415.538C125.572 415.916 125.502 416.324 125.502 416.761C125.502 417.199 125.572 417.605 125.711 417.98C125.85 418.355 126.065 418.658 126.354 418.888C126.644 419.118 127.013 419.233 127.462 419.233ZM134.435 420.136C133.89 420.136 133.408 419.999 132.99 419.723C132.573 419.445 132.246 419.053 132.01 418.547C131.775 418.038 131.657 417.438 131.657 416.744C131.657 416.057 131.775 415.46 132.01 414.955C132.246 414.449 132.574 414.058 132.995 413.783C133.415 413.507 133.901 413.369 134.452 413.369C134.878 413.369 135.215 413.44 135.462 413.582C135.712 413.722 135.902 413.881 136.033 414.06C136.167 414.236 136.27 414.381 136.344 414.494H136.429V411.273H137.435V420H136.463V418.994H136.344C136.27 419.114 136.165 419.264 136.029 419.446C135.892 419.625 135.698 419.786 135.445 419.928C135.192 420.067 134.855 420.136 134.435 420.136ZM134.571 419.233C134.975 419.233 135.316 419.128 135.594 418.918C135.873 418.705 136.084 418.411 136.229 418.036C136.374 417.658 136.446 417.222 136.446 416.727C136.446 416.239 136.375 415.811 136.233 415.445C136.091 415.075 135.881 414.788 135.603 414.584C135.324 414.376 134.98 414.273 134.571 414.273C134.145 414.273 133.79 414.382 133.506 414.601C133.225 414.817 133.013 415.111 132.871 415.483C132.732 415.852 132.662 416.267 132.662 416.727C132.662 417.193 132.733 417.616 132.875 417.997C133.02 418.375 133.233 418.676 133.515 418.901C133.799 419.122 134.151 419.233 134.571 419.233ZM143.542 417.324V413.455H144.547V420H143.542V418.892H143.473C143.32 419.224 143.081 419.507 142.757 419.74C142.434 419.97 142.025 420.085 141.53 420.085C141.121 420.085 140.757 419.996 140.439 419.817C140.121 419.635 139.871 419.362 139.689 418.999C139.507 418.632 139.417 418.17 139.417 417.614V413.455H140.422V417.545C140.422 418.023 140.556 418.403 140.823 418.688C141.093 418.972 141.436 419.114 141.854 419.114C142.104 419.114 142.358 419.05 142.617 418.922C142.878 418.794 143.097 418.598 143.273 418.334C143.452 418.07 143.542 417.733 143.542 417.324ZM149.048 420.136C148.435 420.136 147.906 419.991 147.463 419.702C147.02 419.412 146.679 419.013 146.44 418.504C146.202 417.996 146.082 417.415 146.082 416.761C146.082 416.097 146.205 415.51 146.449 415.001C146.696 414.49 147.04 414.091 147.48 413.804C147.923 413.514 148.44 413.369 149.031 413.369C149.491 413.369 149.906 413.455 150.276 413.625C150.645 413.795 150.947 414.034 151.183 414.341C151.419 414.648 151.565 415.006 151.622 415.415H150.616C150.54 415.116 150.369 414.852 150.105 414.622C149.844 414.389 149.491 414.273 149.048 414.273C148.656 414.273 148.313 414.375 148.017 414.58C147.724 414.781 147.496 415.067 147.331 415.436C147.169 415.803 147.088 416.233 147.088 416.727C147.088 417.233 147.168 417.673 147.327 418.048C147.489 418.423 147.716 418.714 148.009 418.922C148.304 419.129 148.651 419.233 149.048 419.233C149.31 419.233 149.547 419.188 149.76 419.097C149.973 419.006 150.153 418.875 150.301 418.705C150.449 418.534 150.554 418.33 150.616 418.091H151.622C151.565 418.477 151.425 418.825 151.2 419.135C150.979 419.442 150.685 419.686 150.318 419.868C149.955 420.047 149.531 420.136 149.048 420.136ZM155.939 413.455V414.307H152.547V413.455H155.939ZM153.536 411.886H154.541V418.125C154.541 418.409 154.582 418.622 154.665 418.764C154.75 418.903 154.858 418.997 154.989 419.045C155.122 419.091 155.263 419.114 155.411 419.114C155.521 419.114 155.612 419.108 155.683 419.097C155.754 419.082 155.811 419.071 155.854 419.062L156.058 419.966C155.99 419.991 155.895 420.017 155.773 420.043C155.651 420.071 155.496 420.085 155.308 420.085C155.024 420.085 154.746 420.024 154.473 419.902C154.203 419.78 153.979 419.594 153.8 419.344C153.624 419.094 153.536 418.778 153.536 418.398V411.886ZM163.878 411.273V420H162.821V412.381H162.77L160.639 413.795V412.722L162.821 411.273H163.878Z" fill="#9AA4B2"/>
<rect x="82" y="412" width="21" height="8" fill="#FAFAFA"/>
<path d="M218.057 420V411.273H221.006C221.69 411.273 222.25 411.396 222.685 411.643C223.122 411.888 223.446 412.219 223.656 412.636C223.866 413.054 223.972 413.52 223.972 414.034C223.972 414.548 223.866 415.016 223.656 415.436C223.449 415.857 223.128 416.192 222.693 416.442C222.259 416.689 221.702 416.812 221.023 416.812H218.909V415.875H220.989C221.457 415.875 221.834 415.794 222.118 415.632C222.402 415.47 222.608 415.251 222.736 414.976C222.866 414.697 222.932 414.384 222.932 414.034C222.932 413.685 222.866 413.372 222.736 413.097C222.608 412.821 222.401 412.605 222.114 412.449C221.827 412.29 221.446 412.21 220.972 412.21H219.114V420H218.057ZM225.538 420V413.455H226.509V414.443H226.577C226.697 414.119 226.913 413.857 227.225 413.655C227.538 413.453 227.89 413.352 228.282 413.352C228.356 413.352 228.448 413.354 228.559 413.357C228.67 413.359 228.754 413.364 228.81 413.369V414.392C228.776 414.384 228.698 414.371 228.576 414.354C228.457 414.334 228.33 414.324 228.197 414.324C227.879 414.324 227.594 414.391 227.344 414.524C227.097 414.655 226.901 414.837 226.756 415.07C226.614 415.3 226.543 415.562 226.543 415.858V420H225.538ZM232.462 420.136C231.871 420.136 231.353 419.996 230.907 419.714C230.464 419.433 230.117 419.04 229.867 418.534C229.62 418.028 229.496 417.437 229.496 416.761C229.496 416.08 229.62 415.484 229.867 414.976C230.117 414.467 230.464 414.072 230.907 413.791C231.353 413.51 231.871 413.369 232.462 413.369C233.053 413.369 233.57 413.51 234.013 413.791C234.46 414.072 234.806 414.467 235.053 414.976C235.303 415.484 235.428 416.08 235.428 416.761C235.428 417.437 235.303 418.028 235.053 418.534C234.806 419.04 234.46 419.433 234.013 419.714C233.57 419.996 233.053 420.136 232.462 420.136ZM232.462 419.233C232.911 419.233 233.281 419.118 233.57 418.888C233.86 418.658 234.075 418.355 234.214 417.98C234.353 417.605 234.423 417.199 234.423 416.761C234.423 416.324 234.353 415.916 234.214 415.538C234.075 415.161 233.86 414.855 233.57 414.622C233.281 414.389 232.911 414.273 232.462 414.273C232.013 414.273 231.644 414.389 231.354 414.622C231.065 414.855 230.85 415.161 230.711 415.538C230.572 415.916 230.502 416.324 230.502 416.761C230.502 417.199 230.572 417.605 230.711 417.98C230.85 418.355 231.065 418.658 231.354 418.888C231.644 419.118 232.013 419.233 232.462 419.233ZM239.435 420.136C238.89 420.136 238.408 419.999 237.99 419.723C237.573 419.445 237.246 419.053 237.01 418.547C236.775 418.038 236.657 417.438 236.657 416.744C236.657 416.057 236.775 415.46 237.01 414.955C237.246 414.449 237.574 414.058 237.995 413.783C238.415 413.507 238.901 413.369 239.452 413.369C239.878 413.369 240.215 413.44 240.462 413.582C240.712 413.722 240.902 413.881 241.033 414.06C241.167 414.236 241.27 414.381 241.344 414.494H241.429V411.273H242.435V420H241.463V418.994H241.344C241.27 419.114 241.165 419.264 241.029 419.446C240.892 419.625 240.698 419.786 240.445 419.928C240.192 420.067 239.855 420.136 239.435 420.136ZM239.571 419.233C239.975 419.233 240.316 419.128 240.594 418.918C240.873 418.705 241.084 418.411 241.229 418.036C241.374 417.658 241.446 417.222 241.446 416.727C241.446 416.239 241.375 415.811 241.233 415.445C241.091 415.075 240.881 414.788 240.603 414.584C240.324 414.376 239.98 414.273 239.571 414.273C239.145 414.273 238.79 414.382 238.506 414.601C238.225 414.817 238.013 415.111 237.871 415.483C237.732 415.852 237.662 416.267 237.662 416.727C237.662 417.193 237.733 417.616 237.875 417.997C238.02 418.375 238.233 418.676 238.515 418.901C238.799 419.122 239.151 419.233 239.571 419.233ZM248.542 417.324V413.455H249.547V420H248.542V418.892H248.473C248.32 419.224 248.081 419.507 247.757 419.74C247.434 419.97 247.025 420.085 246.53 420.085C246.121 420.085 245.757 419.996 245.439 419.817C245.121 419.635 244.871 419.362 244.689 418.999C244.507 418.632 244.417 418.17 244.417 417.614V413.455H245.422V417.545C245.422 418.023 245.556 418.403 245.823 418.688C246.093 418.972 246.436 419.114 246.854 419.114C247.104 419.114 247.358 419.05 247.617 418.922C247.878 418.794 248.097 418.598 248.273 418.334C248.452 418.07 248.542 417.733 248.542 417.324ZM254.048 420.136C253.435 420.136 252.906 419.991 252.463 419.702C252.02 419.412 251.679 419.013 251.44 418.504C251.202 417.996 251.082 417.415 251.082 416.761C251.082 416.097 251.205 415.51 251.449 415.001C251.696 414.49 252.04 414.091 252.48 413.804C252.923 413.514 253.44 413.369 254.031 413.369C254.491 413.369 254.906 413.455 255.276 413.625C255.645 413.795 255.947 414.034 256.183 414.341C256.419 414.648 256.565 415.006 256.622 415.415H255.616C255.54 415.116 255.369 414.852 255.105 414.622C254.844 414.389 254.491 414.273 254.048 414.273C253.656 414.273 253.313 414.375 253.017 414.58C252.724 414.781 252.496 415.067 252.331 415.436C252.169 415.803 252.088 416.233 252.088 416.727C252.088 417.233 252.168 417.673 252.327 418.048C252.489 418.423 252.716 418.714 253.009 418.922C253.304 419.129 253.651 419.233 254.048 419.233C254.31 419.233 254.547 419.188 254.76 419.097C254.973 419.006 255.153 418.875 255.301 418.705C255.449 418.534 255.554 418.33 255.616 418.091H256.622C256.565 418.477 256.425 418.825 256.2 419.135C255.979 419.442 255.685 419.686 255.318 419.868C254.955 420.047 254.531 420.136 254.048 420.136ZM260.939 413.455V414.307H257.547V413.455H260.939ZM258.536 411.886H259.541V418.125C259.541 418.409 259.582 418.622 259.665 418.764C259.75 418.903 259.858 418.997 259.989 419.045C260.122 419.091 260.263 419.114 260.411 419.114C260.521 419.114 260.612 419.108 260.683 419.097C260.754 419.082 260.811 419.071 260.854 419.062L261.058 419.966C260.99 419.991 260.895 420.017 260.773 420.043C260.651 420.071 260.496 420.085 260.308 420.085C260.024 420.085 259.746 420.024 259.473 419.902C259.203 419.78 258.979 419.594 258.8 419.344C258.624 419.094 258.536 418.778 258.536 418.398V411.886ZM265.81 420V419.233L268.69 416.08C269.028 415.71 269.307 415.389 269.526 415.116C269.744 414.841 269.906 414.582 270.011 414.341C270.119 414.097 270.173 413.841 270.173 413.574C270.173 413.267 270.099 413.001 269.952 412.777C269.807 412.553 269.608 412.379 269.355 412.257C269.102 412.135 268.818 412.074 268.503 412.074C268.168 412.074 267.875 412.143 267.625 412.283C267.378 412.419 267.186 412.611 267.05 412.858C266.916 413.105 266.849 413.395 266.849 413.727H265.844C265.844 413.216 265.962 412.767 266.197 412.381C266.433 411.994 266.754 411.693 267.161 411.477C267.57 411.261 268.028 411.153 268.537 411.153C269.048 411.153 269.501 411.261 269.896 411.477C270.291 411.693 270.601 411.984 270.825 412.351C271.05 412.717 271.162 413.125 271.162 413.574C271.162 413.895 271.104 414.209 270.987 414.516C270.874 414.82 270.675 415.159 270.391 415.534C270.109 415.906 269.719 416.361 269.219 416.898L267.259 418.994V419.062H271.315V420H265.81Z" fill="#9AA4B2"/>
<rect x="187" y="412" width="21" height="8" fill="#9AA4B2"/>
<path d="M327.057 420V411.273H330.006C330.69 411.273 331.25 411.396 331.685 411.643C332.122 411.888 332.446 412.219 332.656 412.636C332.866 413.054 332.972 413.52 332.972 414.034C332.972 414.548 332.866 415.016 332.656 415.436C332.449 415.857 332.128 416.192 331.693 416.442C331.259 416.689 330.702 416.812 330.023 416.812H327.909V415.875H329.989C330.457 415.875 330.834 415.794 331.118 415.632C331.402 415.47 331.608 415.251 331.736 414.976C331.866 414.697 331.932 414.384 331.932 414.034C331.932 413.685 331.866 413.372 331.736 413.097C331.608 412.821 331.401 412.605 331.114 412.449C330.827 412.29 330.446 412.21 329.972 412.21H328.114V420H327.057ZM334.538 420V413.455H335.509V414.443H335.577C335.697 414.119 335.913 413.857 336.225 413.655C336.538 413.453 336.89 413.352 337.282 413.352C337.356 413.352 337.448 413.354 337.559 413.357C337.67 413.359 337.754 413.364 337.81 413.369V414.392C337.776 414.384 337.698 414.371 337.576 414.354C337.457 414.334 337.33 414.324 337.197 414.324C336.879 414.324 336.594 414.391 336.344 414.524C336.097 414.655 335.901 414.837 335.756 415.07C335.614 415.3 335.543 415.562 335.543 415.858V420H334.538ZM341.462 420.136C340.871 420.136 340.353 419.996 339.907 419.714C339.464 419.433 339.117 419.04 338.867 418.534C338.62 418.028 338.496 417.437 338.496 416.761C338.496 416.08 338.62 415.484 338.867 414.976C339.117 414.467 339.464 414.072 339.907 413.791C340.353 413.51 340.871 413.369 341.462 413.369C342.053 413.369 342.57 413.51 343.013 413.791C343.46 414.072 343.806 414.467 344.053 414.976C344.303 415.484 344.428 416.08 344.428 416.761C344.428 417.437 344.303 418.028 344.053 418.534C343.806 419.04 343.46 419.433 343.013 419.714C342.57 419.996 342.053 420.136 341.462 420.136ZM341.462 419.233C341.911 419.233 342.281 419.118 342.57 418.888C342.86 418.658 343.075 418.355 343.214 417.98C343.353 417.605 343.423 417.199 343.423 416.761C343.423 416.324 343.353 415.916 343.214 415.538C343.075 415.161 342.86 414.855 342.57 414.622C342.281 414.389 341.911 414.273 341.462 414.273C341.013 414.273 340.644 414.389 340.354 414.622C340.065 414.855 339.85 415.161 339.711 415.538C339.572 415.916 339.502 416.324 339.502 416.761C339.502 417.199 339.572 417.605 339.711 417.98C339.85 418.355 340.065 418.658 340.354 418.888C340.644 419.118 341.013 419.233 341.462 419.233ZM348.435 420.136C347.89 420.136 347.408 419.999 346.99 419.723C346.573 419.445 346.246 419.053 346.01 418.547C345.775 418.038 345.657 417.438 345.657 416.744C345.657 416.057 345.775 415.46 346.01 414.955C346.246 414.449 346.574 414.058 346.995 413.783C347.415 413.507 347.901 413.369 348.452 413.369C348.878 413.369 349.215 413.44 349.462 413.582C349.712 413.722 349.902 413.881 350.033 414.06C350.167 414.236 350.27 414.381 350.344 414.494H350.429V411.273H351.435V420H350.463V418.994H350.344C350.27 419.114 350.165 419.264 350.029 419.446C349.892 419.625 349.698 419.786 349.445 419.928C349.192 420.067 348.855 420.136 348.435 420.136ZM348.571 419.233C348.975 419.233 349.316 419.128 349.594 418.918C349.873 418.705 350.084 418.411 350.229 418.036C350.374 417.658 350.446 417.222 350.446 416.727C350.446 416.239 350.375 415.811 350.233 415.445C350.091 415.075 349.881 414.788 349.603 414.584C349.324 414.376 348.98 414.273 348.571 414.273C348.145 414.273 347.79 414.382 347.506 414.601C347.225 414.817 347.013 415.111 346.871 415.483C346.732 415.852 346.662 416.267 346.662 416.727C346.662 417.193 346.733 417.616 346.875 417.997C347.02 418.375 347.233 418.676 347.515 418.901C347.799 419.122 348.151 419.233 348.571 419.233ZM357.542 417.324V413.455H358.547V420H357.542V418.892H357.473C357.32 419.224 357.081 419.507 356.757 419.74C356.434 419.97 356.025 420.085 355.53 420.085C355.121 420.085 354.757 419.996 354.439 419.817C354.121 419.635 353.871 419.362 353.689 418.999C353.507 418.632 353.417 418.17 353.417 417.614V413.455H354.422V417.545C354.422 418.023 354.556 418.403 354.823 418.688C355.093 418.972 355.436 419.114 355.854 419.114C356.104 419.114 356.358 419.05 356.617 418.922C356.878 418.794 357.097 418.598 357.273 418.334C357.452 418.07 357.542 417.733 357.542 417.324ZM363.048 420.136C362.435 420.136 361.906 419.991 361.463 419.702C361.02 419.412 360.679 419.013 360.44 418.504C360.202 417.996 360.082 417.415 360.082 416.761C360.082 416.097 360.205 415.51 360.449 415.001C360.696 414.49 361.04 414.091 361.48 413.804C361.923 413.514 362.44 413.369 363.031 413.369C363.491 413.369 363.906 413.455 364.276 413.625C364.645 413.795 364.947 414.034 365.183 414.341C365.419 414.648 365.565 415.006 365.622 415.415H364.616C364.54 415.116 364.369 414.852 364.105 414.622C363.844 414.389 363.491 414.273 363.048 414.273C362.656 414.273 362.313 414.375 362.017 414.58C361.724 414.781 361.496 415.067 361.331 415.436C361.169 415.803 361.088 416.233 361.088 416.727C361.088 417.233 361.168 417.673 361.327 418.048C361.489 418.423 361.716 418.714 362.009 418.922C362.304 419.129 362.651 419.233 363.048 419.233C363.31 419.233 363.547 419.188 363.76 419.097C363.973 419.006 364.153 418.875 364.301 418.705C364.449 418.534 364.554 418.33 364.616 418.091H365.622C365.565 418.477 365.425 418.825 365.2 419.135C364.979 419.442 364.685 419.686 364.318 419.868C363.955 420.047 363.531 420.136 363.048 420.136ZM369.939 413.455V414.307H366.547V413.455H369.939ZM367.536 411.886H368.541V418.125C368.541 418.409 368.582 418.622 368.665 418.764C368.75 418.903 368.858 418.997 368.989 419.045C369.122 419.091 369.263 419.114 369.411 419.114C369.521 419.114 369.612 419.108 369.683 419.097C369.754 419.082 369.811 419.071 369.854 419.062L370.058 419.966C369.99 419.991 369.895 420.017 369.773 420.043C369.651 420.071 369.496 420.085 369.308 420.085C369.024 420.085 368.746 420.024 368.473 419.902C368.203 419.78 367.979 419.594 367.8 419.344C367.624 419.094 367.536 418.778 367.536 418.398V411.886ZM377.759 420.119C377.196 420.119 376.695 420.023 376.254 419.83C375.817 419.636 375.469 419.368 375.21 419.024C374.955 418.678 374.815 418.276 374.793 417.818H375.866C375.889 418.099 375.986 418.342 376.156 418.547C376.327 418.749 376.55 418.905 376.825 419.016C377.101 419.126 377.406 419.182 377.741 419.182C378.116 419.182 378.449 419.116 378.739 418.986C379.028 418.855 379.256 418.673 379.42 418.44C379.585 418.207 379.668 417.938 379.668 417.631C379.668 417.31 379.588 417.027 379.429 416.783C379.27 416.536 379.037 416.342 378.73 416.203C378.423 416.064 378.048 415.994 377.605 415.994H376.906V415.057H377.605C377.952 415.057 378.256 414.994 378.517 414.869C378.781 414.744 378.987 414.568 379.135 414.341C379.286 414.114 379.361 413.847 379.361 413.54C379.361 413.244 379.295 412.987 379.165 412.768C379.034 412.55 378.849 412.379 378.611 412.257C378.375 412.135 378.097 412.074 377.776 412.074C377.474 412.074 377.19 412.129 376.923 412.24C376.659 412.348 376.443 412.506 376.276 412.713C376.108 412.918 376.017 413.165 376.003 413.455H374.98C374.997 412.997 375.135 412.597 375.393 412.253C375.652 411.906 375.99 411.636 376.408 411.443C376.828 411.25 377.29 411.153 377.793 411.153C378.332 411.153 378.795 411.263 379.182 411.482C379.568 411.697 379.865 411.983 380.072 412.338C380.28 412.693 380.384 413.077 380.384 413.489C380.384 413.98 380.254 414.399 379.996 414.746C379.74 415.092 379.392 415.332 378.952 415.466V415.534C379.503 415.625 379.933 415.859 380.243 416.237C380.553 416.612 380.707 417.077 380.707 417.631C380.707 418.105 380.578 418.531 380.32 418.909C380.064 419.284 379.714 419.58 379.271 419.795C378.828 420.011 378.324 420.119 377.759 420.119Z" fill="#9AA4B2"/>
<rect x="296" y="412" width="21" height="8" fill="#FAFAFA"/>
<path d="M98.2077 355.727H99.0884V360.926C99.0884 361.39 99.0032 361.784 98.8327 362.109C98.6623 362.433 98.422 362.679 98.1119 362.847C97.8017 363.015 97.436 363.099 97.0146 363.099C96.6168 363.099 96.2629 363.027 95.9528 362.883C95.6426 362.736 95.3988 362.528 95.2212 362.258C95.0437 361.988 94.9549 361.667 94.9549 361.295H95.8214C95.8214 361.501 95.8723 361.681 95.9741 361.835C96.0782 361.987 96.2203 362.105 96.4002 362.19C96.5801 362.276 96.7849 362.318 97.0146 362.318C97.2679 362.318 97.4833 362.265 97.6609 362.158C97.8384 362.052 97.9734 361.896 98.0657 361.69C98.1604 361.481 98.2077 361.227 98.2077 360.926V355.727ZM102.345 363.128C101.999 363.128 101.685 363.063 101.404 362.933C101.122 362.8 100.898 362.609 100.733 362.361C100.567 362.11 100.484 361.807 100.484 361.452C100.484 361.139 100.546 360.886 100.669 360.692C100.792 360.495 100.956 360.341 101.162 360.23C101.368 360.119 101.596 360.036 101.844 359.982C102.095 359.925 102.347 359.88 102.6 359.847C102.932 359.804 103.201 359.772 103.407 359.751C103.615 359.727 103.766 359.688 103.861 359.634C103.958 359.579 104.007 359.484 104.007 359.349V359.321C104.007 358.971 103.911 358.698 103.719 358.504C103.53 358.31 103.242 358.213 102.856 358.213C102.456 358.213 102.142 358.301 101.915 358.476C101.688 358.651 101.528 358.838 101.436 359.037L100.64 358.753C100.782 358.421 100.972 358.163 101.208 357.979C101.448 357.792 101.708 357.661 101.99 357.588C102.274 357.512 102.553 357.474 102.828 357.474C103.003 357.474 103.204 357.496 103.431 357.538C103.661 357.579 103.882 357.663 104.096 357.79C104.311 357.918 104.49 358.111 104.632 358.369C104.774 358.627 104.845 358.973 104.845 359.406V363H104.007V362.261H103.964C103.907 362.38 103.813 362.506 103.68 362.641C103.547 362.776 103.371 362.891 103.151 362.986C102.931 363.08 102.662 363.128 102.345 363.128ZM102.473 362.375C102.804 362.375 103.083 362.31 103.311 362.18C103.54 362.049 103.713 361.881 103.829 361.675C103.948 361.469 104.007 361.253 104.007 361.026V360.259C103.971 360.301 103.893 360.34 103.772 360.376C103.654 360.409 103.517 360.438 103.36 360.464C103.207 360.488 103.056 360.509 102.909 360.528C102.765 360.545 102.648 360.559 102.558 360.571C102.34 360.599 102.136 360.646 101.947 360.71C101.76 360.771 101.609 360.865 101.493 360.99C101.379 361.113 101.322 361.281 101.322 361.494C101.322 361.786 101.43 362.006 101.645 362.155C101.863 362.302 102.139 362.375 102.473 362.375ZM107.213 359.719V363H106.374V357.545H107.184V358.398H107.255C107.383 358.121 107.577 357.898 107.838 357.73C108.098 357.56 108.434 357.474 108.846 357.474C109.215 357.474 109.539 357.55 109.816 357.702C110.093 357.851 110.308 358.078 110.462 358.384C110.616 358.687 110.693 359.07 110.693 359.534V363H109.855V359.591C109.855 359.162 109.743 358.829 109.521 358.589C109.298 358.348 108.993 358.227 108.605 358.227C108.337 358.227 108.098 358.285 107.887 358.401C107.679 358.517 107.514 358.687 107.394 358.909C107.273 359.132 107.213 359.402 107.213 359.719Z" fill="#9AA4B2"/>
<path d="M153.131 363V355.727H157.491V356.509H154.011V358.966H157.165V359.747H154.011V363H153.131ZM160.773 363.114C160.247 363.114 159.794 362.998 159.413 362.766C159.034 362.531 158.741 362.205 158.536 361.786C158.332 361.364 158.23 360.874 158.23 360.315C158.23 359.757 158.332 359.264 158.536 358.838C158.741 358.41 159.028 358.076 159.395 357.837C159.764 357.595 160.195 357.474 160.688 357.474C160.972 357.474 161.252 357.522 161.529 357.616C161.806 357.711 162.058 357.865 162.286 358.078C162.513 358.289 162.694 358.568 162.829 358.916C162.964 359.264 163.031 359.693 163.031 360.202V360.557H158.827V359.832H162.179C162.179 359.525 162.117 359.25 161.994 359.009C161.874 358.767 161.701 358.576 161.476 358.437C161.253 358.297 160.991 358.227 160.688 358.227C160.354 358.227 160.065 358.31 159.821 358.476C159.58 358.639 159.394 358.852 159.263 359.115C159.133 359.378 159.068 359.66 159.068 359.96V360.443C159.068 360.855 159.139 361.204 159.281 361.491C159.426 361.775 159.626 361.991 159.881 362.141C160.137 362.287 160.434 362.361 160.773 362.361C160.993 362.361 161.192 362.33 161.369 362.268C161.549 362.205 161.704 362.11 161.835 361.984C161.965 361.857 162.065 361.698 162.136 361.509L162.946 361.736C162.861 362.01 162.718 362.252 162.516 362.46C162.315 362.666 162.067 362.827 161.771 362.943C161.475 363.057 161.142 363.114 160.773 363.114ZM164.42 363V355.727H165.258V358.412H165.329C165.39 358.317 165.476 358.196 165.585 358.05C165.696 357.901 165.854 357.768 166.06 357.652C166.269 357.534 166.55 357.474 166.906 357.474C167.365 357.474 167.77 357.589 168.12 357.819C168.47 358.049 168.744 358.374 168.94 358.795C169.137 359.217 169.235 359.714 169.235 360.287C169.235 360.865 169.137 361.365 168.94 361.789C168.744 362.21 168.472 362.537 168.124 362.769C167.776 362.999 167.374 363.114 166.92 363.114C166.569 363.114 166.289 363.056 166.078 362.94C165.867 362.821 165.705 362.687 165.592 362.538C165.478 362.387 165.39 362.261 165.329 362.162H165.229V363H164.42ZM165.244 360.273C165.244 360.685 165.304 361.048 165.425 361.363C165.545 361.675 165.722 361.92 165.954 362.098C166.186 362.273 166.47 362.361 166.806 362.361C167.156 362.361 167.449 362.268 167.683 362.084C167.92 361.897 168.098 361.646 168.216 361.331C168.337 361.014 168.397 360.661 168.397 360.273C168.397 359.889 168.338 359.544 168.219 359.236C168.103 358.926 167.927 358.681 167.69 358.501C167.456 358.318 167.161 358.227 166.806 358.227C166.465 358.227 166.179 358.314 165.947 358.487C165.715 358.657 165.54 358.896 165.421 359.204C165.303 359.509 165.244 359.866 165.244 360.273Z" fill="#9AA4B2"/>
<path d="M205.755 355.727H206.806L209.277 361.764H209.363L211.834 355.727H212.885V363H212.062V357.474H211.991L209.718 363H208.922L206.65 357.474H206.579V363H205.755V355.727ZM216.143 363.128C215.797 363.128 215.483 363.063 215.202 362.933C214.92 362.8 214.696 362.609 214.53 362.361C214.365 362.11 214.282 361.807 214.282 361.452C214.282 361.139 214.343 360.886 214.467 360.692C214.59 360.495 214.754 360.341 214.96 360.23C215.166 360.119 215.393 360.036 215.642 359.982C215.893 359.925 216.145 359.88 216.398 359.847C216.73 359.804 216.998 359.772 217.204 359.751C217.413 359.727 217.564 359.688 217.659 359.634C217.756 359.579 217.805 359.484 217.805 359.349V359.321C217.805 358.971 217.709 358.698 217.517 358.504C217.328 358.31 217.04 358.213 216.654 358.213C216.254 358.213 215.94 358.301 215.713 358.476C215.486 358.651 215.326 358.838 215.234 359.037L214.438 358.753C214.58 358.421 214.77 358.163 215.006 357.979C215.245 357.792 215.506 357.661 215.788 357.588C216.072 357.512 216.351 357.474 216.626 357.474C216.801 357.474 217.002 357.496 217.229 357.538C217.459 357.579 217.68 357.663 217.893 357.79C218.109 357.918 218.288 358.111 218.43 358.369C218.572 358.627 218.643 358.973 218.643 359.406V363H217.805V362.261H217.762C217.705 362.38 217.61 362.506 217.478 362.641C217.345 362.776 217.169 362.891 216.949 362.986C216.729 363.08 216.46 363.128 216.143 363.128ZM216.271 362.375C216.602 362.375 216.881 362.31 217.109 362.18C217.338 362.049 217.511 361.881 217.627 361.675C217.745 361.469 217.805 361.253 217.805 361.026V360.259C217.769 360.301 217.691 360.34 217.57 360.376C217.452 360.409 217.315 360.438 217.158 360.464C217.004 360.488 216.854 360.509 216.707 360.528C216.563 360.545 216.446 360.559 216.356 360.571C216.138 360.599 215.934 360.646 215.745 360.71C215.558 360.771 215.406 360.865 215.29 360.99C215.177 361.113 215.12 361.281 215.12 361.494C215.12 361.786 215.228 362.006 215.443 362.155C215.661 362.302 215.937 362.375 216.271 362.375ZM220.172 363V357.545H220.982V358.369H221.039C221.138 358.099 221.318 357.88 221.579 357.712C221.839 357.544 222.133 357.46 222.459 357.46C222.521 357.46 222.598 357.461 222.69 357.464C222.782 357.466 222.852 357.47 222.9 357.474V358.327C222.871 358.32 222.806 358.309 222.704 358.295C222.605 358.278 222.499 358.27 222.388 358.27C222.123 358.27 221.886 358.326 221.678 358.437C221.472 358.546 221.309 358.697 221.188 358.891C221.07 359.083 221.01 359.302 221.01 359.548V363H220.172Z" fill="#9AA4B2"/>
<path d="M259.893 363H258.97L261.64 355.727H262.549L265.22 363H264.296L262.123 356.878H262.066L259.893 363ZM260.234 360.159H263.955V360.94H260.234V360.159ZM266.239 365.045V357.545H267.048V358.412H267.148C267.209 358.317 267.295 358.196 267.403 358.05C267.515 357.901 267.673 357.768 267.879 357.652C268.088 357.534 268.369 357.474 268.725 357.474C269.184 357.474 269.589 357.589 269.939 357.819C270.289 358.049 270.563 358.374 270.759 358.795C270.956 359.217 271.054 359.714 271.054 360.287C271.054 360.865 270.956 361.365 270.759 361.789C270.563 362.21 270.291 362.537 269.943 362.769C269.595 362.999 269.193 363.114 268.739 363.114C268.388 363.114 268.108 363.056 267.897 362.94C267.686 362.821 267.524 362.687 267.411 362.538C267.297 362.387 267.209 362.261 267.148 362.162H267.077V365.045H266.239ZM267.063 360.273C267.063 360.685 267.123 361.048 267.244 361.363C267.364 361.675 267.541 361.92 267.773 362.098C268.005 362.273 268.289 362.361 268.625 362.361C268.975 362.361 269.268 362.268 269.502 362.084C269.739 361.897 269.917 361.646 270.035 361.331C270.156 361.014 270.216 360.661 270.216 360.273C270.216 359.889 270.157 359.544 270.038 359.236C269.922 358.926 269.746 358.681 269.509 358.501C269.275 358.318 268.98 358.227 268.625 358.227C268.284 358.227 267.998 358.314 267.766 358.487C267.534 358.657 267.359 358.896 267.24 359.204C267.122 359.509 267.063 359.866 267.063 360.273ZM272.332 363V357.545H273.142V358.369H273.199C273.298 358.099 273.478 357.88 273.739 357.712C273.999 357.544 274.293 357.46 274.619 357.46C274.681 357.46 274.758 357.461 274.85 357.464C274.943 357.466 275.012 357.47 275.06 357.474V358.327C275.031 358.32 274.966 358.309 274.864 358.295C274.765 358.278 274.66 358.27 274.548 358.27C274.283 358.27 274.046 358.326 273.838 358.437C273.632 358.546 273.469 358.697 273.348 358.891C273.23 359.083 273.171 359.302 273.171 359.548V363H272.332Z" fill="#9AA4B2"/>
<path d="M312.429 355.727H313.48L315.951 361.764H316.036L318.508 355.727H319.559V363H318.735V357.474H318.664L316.392 363H315.596L313.323 357.474H313.252V363H312.429V355.727ZM322.816 363.128C322.471 363.128 322.157 363.063 321.875 362.933C321.594 362.8 321.37 362.609 321.204 362.361C321.039 362.11 320.956 361.807 320.956 361.452C320.956 361.139 321.017 360.886 321.14 360.692C321.263 360.495 321.428 360.341 321.634 360.23C321.84 360.119 322.067 360.036 322.316 359.982C322.567 359.925 322.819 359.88 323.072 359.847C323.404 359.804 323.672 359.772 323.878 359.751C324.087 359.727 324.238 359.688 324.333 359.634C324.43 359.579 324.478 359.484 324.478 359.349V359.321C324.478 358.971 324.383 358.698 324.191 358.504C324.001 358.31 323.714 358.213 323.328 358.213C322.928 358.213 322.614 358.301 322.387 358.476C322.16 358.651 322 358.838 321.907 359.037L321.112 358.753C321.254 358.421 321.443 358.163 321.68 357.979C321.919 357.792 322.18 357.661 322.461 357.588C322.745 357.512 323.025 357.474 323.299 357.474C323.475 357.474 323.676 357.496 323.903 357.538C324.133 357.579 324.354 357.663 324.567 357.79C324.783 357.918 324.961 358.111 325.103 358.369C325.245 358.627 325.316 358.973 325.316 359.406V363H324.478V362.261H324.436C324.379 362.38 324.284 362.506 324.152 362.641C324.019 362.776 323.843 362.891 323.623 362.986C323.402 363.08 323.134 363.128 322.816 363.128ZM322.944 362.375C323.276 362.375 323.555 362.31 323.782 362.18C324.012 362.049 324.185 361.881 324.301 361.675C324.419 361.469 324.478 361.253 324.478 361.026V360.259C324.443 360.301 324.365 360.34 324.244 360.376C324.126 360.409 323.988 360.438 323.832 360.464C323.678 360.488 323.528 360.509 323.381 360.528C323.237 360.545 323.12 360.559 323.03 360.571C322.812 360.599 322.608 360.646 322.419 360.71C322.232 360.771 322.08 360.865 321.964 360.99C321.851 361.113 321.794 361.281 321.794 361.494C321.794 361.786 321.901 362.006 322.117 362.155C322.335 362.302 322.611 362.375 322.944 362.375ZM326.846 363V357.545H327.684V363H326.846ZM327.272 356.636C327.109 356.636 326.968 356.581 326.85 356.469C326.734 356.358 326.676 356.224 326.676 356.068C326.676 355.912 326.734 355.778 326.85 355.667C326.968 355.556 327.109 355.5 327.272 355.5C327.436 355.5 327.575 355.556 327.691 355.667C327.81 355.778 327.869 355.912 327.869 356.068C327.869 356.224 327.81 356.358 327.691 356.469C327.575 356.581 327.436 356.636 327.272 356.636Z" fill="#9AA4B2"/>
<path d="M367.12 355.727H368.001V360.926C368.001 361.39 367.915 361.784 367.745 362.109C367.574 362.433 367.334 362.679 367.024 362.847C366.714 363.015 366.348 363.099 365.927 363.099C365.529 363.099 365.175 363.027 364.865 362.883C364.555 362.736 364.311 362.528 364.133 362.258C363.956 361.988 363.867 361.667 363.867 361.295H364.733C364.733 361.501 364.784 361.681 364.886 361.835C364.99 361.987 365.132 362.105 365.312 362.19C365.492 362.276 365.697 362.318 365.927 362.318C366.18 362.318 366.395 362.265 366.573 362.158C366.751 362.052 366.885 361.896 366.978 361.69C367.073 361.481 367.12 361.227 367.12 360.926V355.727ZM373.089 360.77V357.545H373.927V363H373.089V362.077H373.032C372.905 362.354 372.706 362.589 372.436 362.783C372.166 362.975 371.825 363.071 371.413 363.071C371.072 363.071 370.769 362.996 370.504 362.847C370.239 362.696 370.031 362.469 369.879 362.165C369.728 361.86 369.652 361.475 369.652 361.011V357.545H370.49V360.955C370.49 361.352 370.601 361.67 370.824 361.906C371.049 362.143 371.335 362.261 371.683 362.261C371.891 362.261 372.103 362.208 372.319 362.102C372.537 361.995 372.719 361.832 372.866 361.612C373.015 361.391 373.089 361.111 373.089 360.77ZM376.3 359.719V363H375.462V357.545H376.272V358.398H376.343C376.471 358.121 376.665 357.898 376.925 357.73C377.186 357.56 377.522 357.474 377.934 357.474C378.303 357.474 378.626 357.55 378.903 357.702C379.18 357.851 379.396 358.078 379.55 358.384C379.704 358.687 379.781 359.07 379.781 359.534V363H378.942V359.591C378.942 359.162 378.831 358.829 378.609 358.589C378.386 358.348 378.081 358.227 377.692 358.227C377.425 358.227 377.186 358.285 376.975 358.401C376.767 358.517 376.602 358.687 376.482 358.909C376.361 359.132 376.3 359.402 376.3 359.719Z" fill="#9AA4B2"/>
<defs>
<filter id="filter0_d_444_2911" x="0" y="0" width="450" height="468" filterUnits="userSpaceOnUse" color-interpolation-filters="sRGB">
<feFlood flood-opacity="0" result="BackgroundImageFix"/>
<feColorMatrix in="SourceAlpha" type="matrix" values="0 0 0 0 0 0 0 0 0 0 0 0 0 0 0 0 0 0 127 0" result="hardAlpha"/>
<feOffset dy="2"/>
<feGaussianBlur stdDeviation="5"/>
<feComposite in2="hardAlpha" operator="out"/>
<feColorMatrix type="matrix" values="0 0 0 0 0 0 0 0 0 0 0 0 0 0 0 0 0 0 0.1 0"/>
<feBlend mode="normal" in2="BackgroundImageFix" result="effect1_dropShadow_444_2911"/>
<feBlend mode="normal" in="SourceGraphic" in2="effect1_dropShadow_444_2911" result="shape"/>
</filter>
</defs>
</svg>
