<svg width="450" height="420" viewBox="0 0 450 420" fill="none" xmlns="http://www.w3.org/2000/svg">
<g filter="url(#filter0_d_444_3000)">
<rect x="10" y="8" width="430" height="400" rx="20" fill="#151623"/>
</g>
<path d="M60.4609 46.8516H57.5312V45.1641H60.4609C60.9401 45.1641 61.3281 45.0859 61.625 44.9297C61.9271 44.7682 62.1484 44.5495 62.2891 44.2734C62.4297 43.9922 62.5 43.6719 62.5 43.3125C62.5 42.9635 62.4297 42.638 62.2891 42.3359C62.1484 42.0339 61.9271 41.7891 61.625 41.6016C61.3281 41.4141 60.9401 41.3203 60.4609 41.3203H58.2344V51H56.0859V39.625H60.4609C61.3464 39.625 62.1016 39.7839 62.7266 40.1016C63.3568 40.4141 63.8359 40.849 64.1641 41.4062C64.4974 41.9583 64.6641 42.5885 64.6641 43.2969C64.6641 44.0312 64.4974 44.6641 64.1641 45.1953C63.8359 45.7266 63.3568 46.1354 62.7266 46.4219C62.1016 46.7083 61.3464 46.8516 60.4609 46.8516ZM66.3516 39.625H70.4844C71.349 39.625 72.0911 39.7552 72.7109 40.0156C73.3307 40.276 73.8073 40.6615 74.1406 41.1719C74.474 41.6823 74.6406 42.3099 74.6406 43.0547C74.6406 43.6432 74.5365 44.1536 74.3281 44.5859C74.1198 45.0182 73.8255 45.3802 73.4453 45.6719C73.0703 45.9635 72.6276 46.1927 72.1172 46.3594L71.4453 46.7031H67.7969L67.7812 45.0078H70.5078C70.9505 45.0078 71.3177 44.9297 71.6094 44.7734C71.901 44.6172 72.1198 44.401 72.2656 44.125C72.4167 43.849 72.4922 43.5339 72.4922 43.1797C72.4922 42.7995 72.4193 42.4714 72.2734 42.1953C72.1276 41.9141 71.9062 41.6979 71.6094 41.5469C71.3125 41.3958 70.9375 41.3203 70.4844 41.3203H68.5V51H66.3516V39.625ZM72.7734 51L70.1406 45.9062L72.4141 45.8984L75.0781 50.8906V51H72.7734ZM78.8125 39.625V51H76.6641V39.625H78.8125ZM82.0703 39.625H83.9297L87.0391 48.1875L90.1406 39.625H92.0078L87.7812 51H86.2891L82.0703 39.625ZM81.1328 39.625H82.9531L83.2812 47.4922V51H81.1328V39.625ZM91.1172 39.625H92.9453V51H90.7969V47.4922L91.1172 39.625ZM99.7969 41.3516L96.5547 51H94.2812L98.5312 39.625H99.9844L99.7969 41.3516ZM102.508 51L99.25 41.3516L99.0547 39.625H100.516L104.789 51H102.508ZM102.359 46.7734V48.4688H96.2578V46.7734H102.359ZM105.961 39.625H110.094C110.958 39.625 111.701 39.7552 112.32 40.0156C112.94 40.276 113.417 40.6615 113.75 41.1719C114.083 41.6823 114.25 42.3099 114.25 43.0547C114.25 43.6432 114.146 44.1536 113.938 44.5859C113.729 45.0182 113.435 45.3802 113.055 45.6719C112.68 45.9635 112.237 46.1927 111.727 46.3594L111.055 46.7031H107.406L107.391 45.0078H110.117C110.56 45.0078 110.927 44.9297 111.219 44.7734C111.51 44.6172 111.729 44.401 111.875 44.125C112.026 43.849 112.102 43.5339 112.102 43.1797C112.102 42.7995 112.029 42.4714 111.883 42.1953C111.737 41.9141 111.516 41.6979 111.219 41.5469C110.922 41.3958 110.547 41.3203 110.094 41.3203H108.109V51H105.961V39.625ZM112.383 51L109.75 45.9062L112.023 45.8984L114.688 50.8906V51H112.383ZM117.086 39.625L119.586 44.9297L122.102 39.625H124.461L120.68 46.8359V51H118.5V46.8359L114.711 39.625H117.086ZM134.078 39.625V51H131.938V39.625H134.078ZM137.609 39.625V41.3203H128.445V39.625H137.609ZM146.578 49.3125V51H140.531V49.3125H146.578ZM141.188 39.625V51H139.039V39.625H141.188ZM145.789 44.3203V45.9688H140.531V44.3203H145.789ZM146.555 39.625V41.3203H140.531V39.625H146.555ZM149.781 39.625L152.055 43.6797L154.336 39.625H156.805L153.43 45.2656L156.891 51H154.398L152.055 46.8672L149.719 51H147.219L150.68 45.2656L147.305 39.625H149.781ZM163.094 39.625V51H160.953V39.625H163.094ZM166.625 39.625V41.3203H157.461V39.625H166.625Z" fill="#9AA4B2"/>
<path d="M61.46 120.484C61.46 120.252 61.4235 120.047 61.3506 119.869C61.2822 119.687 61.1592 119.523 60.9814 119.377C60.8083 119.231 60.5667 119.092 60.2568 118.96C59.9515 118.828 59.5641 118.693 59.0947 118.557C58.6025 118.411 58.1582 118.249 57.7617 118.071C57.3652 117.889 57.0257 117.682 56.7432 117.449C56.4606 117.217 56.2441 116.95 56.0938 116.649C55.9434 116.349 55.8682 116.005 55.8682 115.617C55.8682 115.23 55.9479 114.872 56.1074 114.544C56.2669 114.216 56.4948 113.931 56.791 113.689C57.0918 113.443 57.4495 113.252 57.8643 113.115C58.279 112.979 58.7415 112.91 59.252 112.91C59.9993 112.91 60.6328 113.054 61.1523 113.341C61.6764 113.623 62.0752 113.995 62.3486 114.455C62.6221 114.911 62.7588 115.398 62.7588 115.918H61.4463C61.4463 115.544 61.3665 115.214 61.207 114.927C61.0475 114.635 60.806 114.407 60.4824 114.243C60.1589 114.075 59.7487 113.99 59.252 113.99C58.7826 113.99 58.3952 114.061 58.0898 114.202C57.7845 114.343 57.5566 114.535 57.4062 114.776C57.2604 115.018 57.1875 115.294 57.1875 115.604C57.1875 115.813 57.2308 116.005 57.3174 116.178C57.4085 116.346 57.5475 116.504 57.7344 116.649C57.9258 116.795 58.1673 116.93 58.459 117.053C58.7552 117.176 59.1084 117.294 59.5186 117.408C60.0837 117.568 60.5713 117.745 60.9814 117.941C61.3916 118.137 61.7288 118.358 61.9932 118.604C62.262 118.846 62.4603 119.122 62.5879 119.432C62.7201 119.737 62.7861 120.083 62.7861 120.471C62.7861 120.876 62.7041 121.243 62.54 121.571C62.376 121.899 62.1413 122.18 61.8359 122.412C61.5306 122.645 61.1637 122.825 60.7354 122.952C60.3115 123.075 59.8376 123.137 59.3135 123.137C58.8532 123.137 58.3997 123.073 57.9531 122.945C57.5111 122.818 57.1077 122.626 56.7432 122.371C56.3831 122.116 56.0938 121.801 55.875 121.428C55.6608 121.049 55.5537 120.612 55.5537 120.115H56.8662C56.8662 120.457 56.9323 120.751 57.0645 120.997C57.1966 121.239 57.3766 121.439 57.6045 121.599C57.8369 121.758 58.099 121.877 58.3906 121.954C58.6868 122.027 58.9945 122.063 59.3135 122.063C59.7738 122.063 60.1634 122 60.4824 121.872C60.8014 121.744 61.043 121.562 61.207 121.325C61.3757 121.088 61.46 120.808 61.46 120.484ZM67.3457 123.137C66.8307 123.137 66.3636 123.05 65.9443 122.877C65.5296 122.699 65.1719 122.451 64.8711 122.132C64.5749 121.813 64.347 121.435 64.1875 120.997C64.028 120.56 63.9482 120.081 63.9482 119.562V119.274C63.9482 118.673 64.0371 118.137 64.2148 117.668C64.3926 117.194 64.6341 116.793 64.9395 116.465C65.2448 116.137 65.5911 115.888 65.9785 115.72C66.3659 115.551 66.7669 115.467 67.1816 115.467C67.7103 115.467 68.166 115.558 68.5488 115.74C68.9362 115.923 69.2529 116.178 69.499 116.506C69.7451 116.829 69.9274 117.212 70.0459 117.654C70.1644 118.092 70.2236 118.57 70.2236 119.09V119.657H64.7002V118.625H68.959V118.529C68.9408 118.201 68.8724 117.882 68.7539 117.572C68.64 117.262 68.4577 117.007 68.207 116.807C67.9564 116.606 67.6146 116.506 67.1816 116.506C66.8945 116.506 66.6302 116.567 66.3887 116.69C66.1471 116.809 65.9398 116.987 65.7666 117.224C65.5934 117.461 65.459 117.75 65.3633 118.092C65.2676 118.434 65.2197 118.828 65.2197 119.274V119.562C65.2197 119.912 65.2676 120.243 65.3633 120.553C65.4635 120.858 65.6071 121.127 65.7939 121.359C65.9854 121.592 66.2155 121.774 66.4844 121.906C66.7578 122.038 67.0677 122.104 67.4141 122.104C67.8607 122.104 68.2389 122.013 68.5488 121.831C68.8587 121.649 69.1299 121.405 69.3623 121.1L70.1279 121.708C69.9684 121.95 69.7656 122.18 69.5195 122.398C69.2734 122.617 68.9704 122.795 68.6104 122.932C68.2549 123.068 67.8333 123.137 67.3457 123.137ZM74.6602 122.098C74.9609 122.098 75.2389 122.036 75.4941 121.913C75.7493 121.79 75.959 121.621 76.123 121.407C76.2871 121.188 76.3805 120.94 76.4033 120.662H77.6064C77.5837 121.1 77.4355 121.507 77.1621 121.886C76.8932 122.259 76.54 122.562 76.1025 122.795C75.665 123.023 75.1842 123.137 74.6602 123.137C74.1042 123.137 73.6188 123.039 73.2041 122.843C72.7939 122.647 72.4521 122.378 72.1787 122.036C71.9098 121.694 71.707 121.302 71.5703 120.86C71.4382 120.414 71.3721 119.942 71.3721 119.445V119.158C71.3721 118.661 71.4382 118.192 71.5703 117.75C71.707 117.303 71.9098 116.909 72.1787 116.567C72.4521 116.226 72.7939 115.957 73.2041 115.761C73.6188 115.565 74.1042 115.467 74.6602 115.467C75.2389 115.467 75.7448 115.585 76.1777 115.822C76.6107 116.055 76.9502 116.374 77.1963 116.779C77.4469 117.18 77.5837 117.636 77.6064 118.146H76.4033C76.3805 117.841 76.2939 117.565 76.1436 117.319C75.9977 117.073 75.7972 116.877 75.542 116.731C75.2913 116.581 74.9974 116.506 74.6602 116.506C74.2728 116.506 73.9469 116.583 73.6826 116.738C73.4229 116.889 73.2155 117.094 73.0605 117.354C72.9102 117.609 72.8008 117.894 72.7324 118.208C72.6686 118.518 72.6367 118.835 72.6367 119.158V119.445C72.6367 119.769 72.6686 120.088 72.7324 120.402C72.7962 120.717 72.9033 121.002 73.0537 121.257C73.2087 121.512 73.416 121.717 73.6758 121.872C73.9401 122.022 74.2682 122.098 74.6602 122.098ZM78.6934 119.384V119.227C78.6934 118.693 78.7708 118.199 78.9258 117.743C79.0807 117.283 79.304 116.884 79.5957 116.547C79.8874 116.205 80.2406 115.941 80.6553 115.754C81.07 115.562 81.5348 115.467 82.0498 115.467C82.5693 115.467 83.0365 115.562 83.4512 115.754C83.8704 115.941 84.2259 116.205 84.5176 116.547C84.8138 116.884 85.0394 117.283 85.1943 117.743C85.3493 118.199 85.4268 118.693 85.4268 119.227V119.384C85.4268 119.917 85.3493 120.411 85.1943 120.867C85.0394 121.323 84.8138 121.722 84.5176 122.063C84.2259 122.401 83.8727 122.665 83.458 122.856C83.0479 123.043 82.583 123.137 82.0635 123.137C81.5439 123.137 81.0768 123.043 80.6621 122.856C80.2474 122.665 79.8919 122.401 79.5957 122.063C79.304 121.722 79.0807 121.323 78.9258 120.867C78.7708 120.411 78.6934 119.917 78.6934 119.384ZM79.958 119.227V119.384C79.958 119.753 80.0013 120.102 80.0879 120.43C80.1745 120.753 80.3044 121.04 80.4775 121.291C80.6553 121.542 80.8763 121.74 81.1406 121.886C81.4049 122.027 81.7126 122.098 82.0635 122.098C82.4098 122.098 82.7129 122.027 82.9727 121.886C83.237 121.74 83.4557 121.542 83.6289 121.291C83.8021 121.04 83.932 120.753 84.0186 120.43C84.1097 120.102 84.1553 119.753 84.1553 119.384V119.227C84.1553 118.862 84.1097 118.518 84.0186 118.194C83.932 117.866 83.7998 117.577 83.6221 117.326C83.4489 117.071 83.2301 116.87 82.9658 116.725C82.7061 116.579 82.4007 116.506 82.0498 116.506C81.7035 116.506 81.3981 116.579 81.1338 116.725C80.874 116.87 80.6553 117.071 80.4775 117.326C80.3044 117.577 80.1745 117.866 80.0879 118.194C80.0013 118.518 79.958 118.862 79.958 119.227ZM88.2773 117.183V123H87.0127V115.604H88.209L88.2773 117.183ZM87.9766 119.021L87.4502 119.001C87.4548 118.495 87.5299 118.028 87.6758 117.6C87.8216 117.167 88.0267 116.791 88.291 116.472C88.5553 116.153 88.8698 115.907 89.2344 115.733C89.6035 115.556 90.0114 115.467 90.458 115.467C90.8226 115.467 91.1507 115.517 91.4424 115.617C91.734 115.713 91.9824 115.868 92.1875 116.082C92.3971 116.296 92.5566 116.574 92.666 116.916C92.7754 117.253 92.8301 117.666 92.8301 118.153V123H91.5586V118.14C91.5586 117.752 91.5016 117.442 91.3877 117.21C91.2738 116.973 91.1074 116.802 90.8887 116.697C90.6699 116.588 90.401 116.533 90.082 116.533C89.7676 116.533 89.4805 116.599 89.2207 116.731C88.9655 116.864 88.7445 117.046 88.5576 117.278C88.3753 117.511 88.2318 117.777 88.127 118.078C88.0267 118.374 87.9766 118.689 87.9766 119.021ZM99.4131 121.564V112.5H100.685V123H99.5225L99.4131 121.564ZM94.4365 119.384V119.24C94.4365 118.675 94.5049 118.162 94.6416 117.702C94.7829 117.237 94.9811 116.839 95.2363 116.506C95.4961 116.173 95.8037 115.918 96.1592 115.74C96.5192 115.558 96.9202 115.467 97.3623 115.467C97.8271 115.467 98.2327 115.549 98.5791 115.713C98.93 115.872 99.2262 116.107 99.4678 116.417C99.7139 116.722 99.9076 117.091 100.049 117.524C100.19 117.957 100.288 118.447 100.343 118.994V119.623C100.293 120.165 100.195 120.653 100.049 121.086C99.9076 121.519 99.7139 121.888 99.4678 122.193C99.2262 122.499 98.93 122.733 98.5791 122.897C98.2282 123.057 97.818 123.137 97.3486 123.137C96.9157 123.137 96.5192 123.043 96.1592 122.856C95.8037 122.67 95.4961 122.408 95.2363 122.07C94.9811 121.733 94.7829 121.337 94.6416 120.881C94.5049 120.421 94.4365 119.922 94.4365 119.384ZM95.708 119.24V119.384C95.708 119.753 95.7445 120.099 95.8174 120.423C95.8949 120.746 96.0133 121.031 96.1729 121.277C96.3324 121.523 96.5352 121.717 96.7812 121.858C97.0273 121.995 97.3213 122.063 97.6631 122.063C98.0824 122.063 98.4264 121.975 98.6953 121.797C98.9688 121.619 99.1875 121.384 99.3516 121.093C99.5156 120.801 99.6432 120.484 99.7344 120.143V118.495C99.6797 118.244 99.5999 118.003 99.4951 117.771C99.3949 117.534 99.2627 117.324 99.0986 117.142C98.9391 116.955 98.7409 116.807 98.5039 116.697C98.2715 116.588 97.9958 116.533 97.6768 116.533C97.3304 116.533 97.0319 116.606 96.7812 116.752C96.5352 116.893 96.3324 117.089 96.1729 117.34C96.0133 117.586 95.8949 117.873 95.8174 118.201C95.7445 118.525 95.708 118.871 95.708 119.24ZM107.015 121.735V117.928C107.015 117.636 106.955 117.383 106.837 117.169C106.723 116.95 106.55 116.782 106.317 116.663C106.085 116.545 105.798 116.485 105.456 116.485C105.137 116.485 104.857 116.54 104.615 116.649C104.378 116.759 104.191 116.902 104.055 117.08C103.923 117.258 103.856 117.449 103.856 117.654H102.592C102.592 117.39 102.66 117.128 102.797 116.868C102.934 116.608 103.13 116.374 103.385 116.164C103.645 115.95 103.954 115.781 104.314 115.658C104.679 115.531 105.085 115.467 105.531 115.467C106.069 115.467 106.543 115.558 106.953 115.74C107.368 115.923 107.691 116.198 107.924 116.567C108.161 116.932 108.279 117.39 108.279 117.941V121.387C108.279 121.633 108.3 121.895 108.341 122.173C108.386 122.451 108.452 122.69 108.539 122.891V123H107.22C107.156 122.854 107.106 122.66 107.069 122.419C107.033 122.173 107.015 121.945 107.015 121.735ZM107.233 118.516L107.247 119.404H105.969C105.609 119.404 105.287 119.434 105.005 119.493C104.722 119.548 104.485 119.632 104.294 119.746C104.103 119.86 103.957 120.004 103.856 120.177C103.756 120.345 103.706 120.544 103.706 120.771C103.706 121.004 103.758 121.216 103.863 121.407C103.968 121.599 104.125 121.751 104.335 121.865C104.549 121.975 104.811 122.029 105.121 122.029C105.508 122.029 105.85 121.947 106.146 121.783C106.443 121.619 106.677 121.419 106.851 121.182C107.028 120.945 107.124 120.715 107.138 120.491L107.678 121.1C107.646 121.291 107.559 121.503 107.418 121.735C107.277 121.968 107.088 122.191 106.851 122.405C106.618 122.615 106.34 122.79 106.017 122.932C105.698 123.068 105.338 123.137 104.937 123.137C104.435 123.137 103.995 123.039 103.617 122.843C103.243 122.647 102.952 122.385 102.742 122.057C102.537 121.724 102.435 121.353 102.435 120.942C102.435 120.546 102.512 120.197 102.667 119.896C102.822 119.591 103.045 119.338 103.337 119.138C103.629 118.933 103.979 118.778 104.39 118.673C104.8 118.568 105.258 118.516 105.764 118.516H107.233ZM111.533 116.766V123H110.269V115.604H111.499L111.533 116.766ZM113.844 115.562L113.837 116.738C113.732 116.715 113.632 116.702 113.536 116.697C113.445 116.688 113.34 116.684 113.222 116.684C112.93 116.684 112.673 116.729 112.449 116.82C112.226 116.911 112.037 117.039 111.882 117.203C111.727 117.367 111.604 117.563 111.513 117.791C111.426 118.014 111.369 118.26 111.342 118.529L110.986 118.734C110.986 118.288 111.03 117.868 111.116 117.477C111.207 117.085 111.346 116.738 111.533 116.438C111.72 116.132 111.957 115.895 112.244 115.727C112.536 115.553 112.882 115.467 113.283 115.467C113.374 115.467 113.479 115.478 113.598 115.501C113.716 115.519 113.798 115.54 113.844 115.562ZM117.214 122.234L119.271 115.604H120.625L117.658 124.142C117.59 124.324 117.499 124.52 117.385 124.729C117.275 124.944 117.134 125.146 116.961 125.338C116.788 125.529 116.578 125.684 116.332 125.803C116.09 125.926 115.801 125.987 115.464 125.987C115.364 125.987 115.236 125.974 115.081 125.946C114.926 125.919 114.817 125.896 114.753 125.878L114.746 124.853C114.783 124.857 114.84 124.862 114.917 124.866C114.999 124.875 115.056 124.88 115.088 124.88C115.375 124.88 115.619 124.841 115.819 124.764C116.02 124.691 116.188 124.565 116.325 124.388C116.466 124.215 116.587 123.975 116.688 123.67L117.214 122.234ZM115.703 115.604L117.624 121.346L117.952 122.679L117.043 123.144L114.322 115.604H115.703ZM128.336 115.604V116.574H124.337V115.604H128.336ZM125.69 113.806H126.955V121.168C126.955 121.419 126.994 121.608 127.071 121.735C127.149 121.863 127.249 121.947 127.372 121.988C127.495 122.029 127.627 122.05 127.769 122.05C127.873 122.05 127.983 122.041 128.097 122.022C128.215 122 128.304 121.981 128.363 121.968L128.37 123C128.27 123.032 128.138 123.062 127.974 123.089C127.814 123.121 127.62 123.137 127.393 123.137C127.083 123.137 126.798 123.075 126.538 122.952C126.278 122.829 126.071 122.624 125.916 122.337C125.766 122.045 125.69 121.653 125.69 121.161V113.806ZM132.889 123.137C132.374 123.137 131.907 123.05 131.487 122.877C131.073 122.699 130.715 122.451 130.414 122.132C130.118 121.813 129.89 121.435 129.73 120.997C129.571 120.56 129.491 120.081 129.491 119.562V119.274C129.491 118.673 129.58 118.137 129.758 117.668C129.936 117.194 130.177 116.793 130.482 116.465C130.788 116.137 131.134 115.888 131.521 115.72C131.909 115.551 132.31 115.467 132.725 115.467C133.253 115.467 133.709 115.558 134.092 115.74C134.479 115.923 134.796 116.178 135.042 116.506C135.288 116.829 135.47 117.212 135.589 117.654C135.707 118.092 135.767 118.57 135.767 119.09V119.657H130.243V118.625H134.502V118.529C134.484 118.201 134.415 117.882 134.297 117.572C134.183 117.262 134.001 117.007 133.75 116.807C133.499 116.606 133.158 116.506 132.725 116.506C132.438 116.506 132.173 116.567 131.932 116.69C131.69 116.809 131.483 116.987 131.31 117.224C131.136 117.461 131.002 117.75 130.906 118.092C130.811 118.434 130.763 118.828 130.763 119.274V119.562C130.763 119.912 130.811 120.243 130.906 120.553C131.007 120.858 131.15 121.127 131.337 121.359C131.528 121.592 131.758 121.774 132.027 121.906C132.301 122.038 132.611 122.104 132.957 122.104C133.404 122.104 133.782 122.013 134.092 121.831C134.402 121.649 134.673 121.405 134.905 121.1L135.671 121.708C135.511 121.95 135.309 122.18 135.062 122.398C134.816 122.617 134.513 122.795 134.153 122.932C133.798 123.068 133.376 123.137 132.889 123.137ZM138.098 115.604L139.718 118.297L141.358 115.604H142.842L140.422 119.254L142.917 123H141.454L139.745 120.225L138.036 123H136.566L139.055 119.254L136.642 115.604H138.098ZM147.285 115.604V116.574H143.286V115.604H147.285ZM144.64 113.806H145.904V121.168C145.904 121.419 145.943 121.608 146.021 121.735C146.098 121.863 146.198 121.947 146.321 121.988C146.444 122.029 146.576 122.05 146.718 122.05C146.823 122.05 146.932 122.041 147.046 122.022C147.164 122 147.253 121.981 147.312 121.968L147.319 123C147.219 123.032 147.087 123.062 146.923 123.089C146.763 123.121 146.57 123.137 146.342 123.137C146.032 123.137 145.747 123.075 145.487 122.952C145.228 122.829 145.02 122.624 144.865 122.337C144.715 122.045 144.64 121.653 144.64 121.161V113.806Z" fill="#9AA4B2"/>
<circle cx="391" cy="48" r="12" fill="#BDBDBD"/>
<rect x="389" y="45.3333" width="3.99999" height="10.6666" rx="2" fill="white"/>
<rect x="389" y="40" width="3.99999" height="3.99999" rx="2" fill="white"/>
<path d="M10 153.137H440" stroke="#27294D" stroke-width="2"/>
<path d="M62.0898 82.7773L58.3398 81.8594L59.8828 67.5625H75.2148V71.5469H63.7891L63.0078 78.5195C63.4505 78.2591 64.0625 78.0052 64.8438 77.7578C65.625 77.4974 66.5169 77.3672 67.5195 77.3672C68.8607 77.3672 70.0586 77.5885 71.1133 78.0312C72.181 78.4609 73.0859 79.0924 73.8281 79.9258C74.5703 80.7461 75.1367 81.7487 75.5273 82.9336C75.918 84.1055 76.1133 85.4271 76.1133 86.8984C76.1133 88.2135 75.918 89.444 75.5273 90.5898C75.1497 91.7357 74.5768 92.7448 73.8086 93.6172C73.0404 94.4896 72.0703 95.1732 70.8984 95.668C69.7396 96.1497 68.3659 96.3906 66.7773 96.3906C65.5924 96.3906 64.4531 96.2214 63.3594 95.8828C62.2786 95.5312 61.3086 95.0169 60.4492 94.3398C59.5898 93.6497 58.8997 92.8034 58.3789 91.8008C57.8581 90.7852 57.5586 89.6198 57.4805 88.3047H62.0898C62.207 89.2292 62.4609 90.0169 62.8516 90.668C63.2552 91.306 63.7891 91.7943 64.4531 92.1328C65.1172 92.4714 65.8854 92.6406 66.7578 92.6406C67.5521 92.6406 68.2357 92.5039 68.8086 92.2305C69.3815 91.944 69.8568 91.5404 70.2344 91.0195C70.625 90.4857 70.9115 89.8607 71.0938 89.1445C71.2891 88.4284 71.3867 87.6341 71.3867 86.7617C71.3867 85.9284 71.276 85.1667 71.0547 84.4766C70.8464 83.7865 70.5273 83.1875 70.0977 82.6797C69.681 82.1719 69.1536 81.7812 68.5156 81.5078C67.8776 81.2214 67.1419 81.0781 66.3086 81.0781C65.1888 81.0781 64.3294 81.2409 63.7305 81.5664C63.1445 81.8919 62.5977 82.2956 62.0898 82.7773ZM78.8516 93.6562C78.8516 92.9271 79.099 92.3151 79.5938 91.8203C80.0885 91.3125 80.7591 91.0586 81.6055 91.0586C82.4648 91.0586 83.1354 91.3125 83.6172 91.8203C84.112 92.3151 84.3594 92.9271 84.3594 93.6562C84.3594 94.3854 84.112 94.9974 83.6172 95.4922C83.1354 95.987 82.4648 96.2344 81.6055 96.2344C80.7591 96.2344 80.0885 95.987 79.5938 95.4922C79.099 94.9974 78.8516 94.3854 78.8516 93.6562ZM91.8047 92.2891H92.1953C93.9922 92.2891 95.4896 92.0547 96.6875 91.5859C97.8984 91.1042 98.862 90.4401 99.5781 89.5938C100.294 88.7474 100.809 87.7513 101.121 86.6055C101.434 85.4596 101.59 84.2161 101.59 82.875V77.9727C101.59 76.8138 101.466 75.7982 101.219 74.9258C100.984 74.0404 100.646 73.3047 100.203 72.7188C99.7734 72.1198 99.2721 71.6706 98.6992 71.3711C98.1393 71.0716 97.5339 70.9219 96.8828 70.9219C96.1667 70.9219 95.5221 71.0846 94.9492 71.4102C94.3893 71.7227 93.9141 72.1589 93.5234 72.7188C93.1458 73.2656 92.8529 73.9102 92.6445 74.6523C92.4492 75.3815 92.3516 76.1628 92.3516 76.9961C92.3516 77.7773 92.4427 78.5326 92.625 79.2617C92.8203 79.9779 93.1068 80.6159 93.4844 81.1758C93.862 81.7357 94.3372 82.1784 94.9102 82.5039C95.4831 82.8294 96.1536 82.9922 96.9219 82.9922C97.651 82.9922 98.3216 82.8555 98.9336 82.582C99.5456 82.2956 100.079 81.9115 100.535 81.4297C100.991 80.9479 101.349 80.4076 101.609 79.8086C101.87 79.2096 102.013 78.5977 102.039 77.9727L103.836 78.5195C103.836 79.5091 103.628 80.4857 103.211 81.4492C102.807 82.3997 102.241 83.2721 101.512 84.0664C100.796 84.8477 99.9557 85.4727 98.9922 85.9414C98.0417 86.4102 97.0065 86.6445 95.8867 86.6445C94.5326 86.6445 93.3346 86.3906 92.293 85.8828C91.2643 85.362 90.4049 84.6589 89.7148 83.7734C89.0378 82.888 88.5299 81.8724 88.1914 80.7266C87.8529 79.5807 87.6836 78.3763 87.6836 77.1133C87.6836 75.7461 87.8919 74.4635 88.3086 73.2656C88.7253 72.0677 89.3307 71.013 90.125 70.1016C90.9193 69.1771 91.8828 68.4609 93.0156 67.9531C94.1615 67.4323 95.457 67.1719 96.9023 67.1719C98.4388 67.1719 99.7865 67.4714 100.945 68.0703C102.104 68.6693 103.081 69.4961 103.875 70.5508C104.669 71.6055 105.268 72.8294 105.672 74.2227C106.076 75.6159 106.277 77.1133 106.277 78.7148V80.375C106.277 82.0547 106.128 83.6758 105.828 85.2383C105.529 86.7878 105.04 88.2266 104.363 89.5547C103.699 90.8698 102.82 92.0286 101.727 93.0312C100.646 94.0208 99.3177 94.7956 97.7422 95.3555C96.1797 95.9023 94.3438 96.1758 92.2344 96.1758H91.8047V92.2891ZM127.844 88.2461C127.844 90.0169 127.434 91.5078 126.613 92.7188C125.793 93.9297 124.673 94.8477 123.254 95.4727C121.848 96.0846 120.259 96.3906 118.488 96.3906C116.717 96.3906 115.122 96.0846 113.703 95.4727C112.284 94.8477 111.164 93.9297 110.344 92.7188C109.523 91.5078 109.113 90.0169 109.113 88.2461C109.113 87.0742 109.341 86.013 109.797 85.0625C110.253 84.099 110.897 83.2721 111.73 82.582C112.577 81.8789 113.566 81.3385 114.699 80.9609C115.845 80.5833 117.095 80.3945 118.449 80.3945C120.246 80.3945 121.854 80.7266 123.273 81.3906C124.693 82.0547 125.806 82.9727 126.613 84.1445C127.434 85.3164 127.844 86.6836 127.844 88.2461ZM123.117 88.0117C123.117 87.0612 122.922 86.2279 122.531 85.5117C122.141 84.7956 121.594 84.2422 120.891 83.8516C120.188 83.4609 119.374 83.2656 118.449 83.2656C117.512 83.2656 116.698 83.4609 116.008 83.8516C115.318 84.2422 114.777 84.7956 114.387 85.5117C114.009 86.2279 113.82 87.0612 113.82 88.0117C113.82 88.9753 114.009 89.8086 114.387 90.5117C114.764 91.2018 115.305 91.7292 116.008 92.0938C116.711 92.4583 117.538 92.6406 118.488 92.6406C119.439 92.6406 120.259 92.4583 120.949 92.0938C121.639 91.7292 122.173 91.2018 122.551 90.5117C122.928 89.8086 123.117 88.9753 123.117 88.0117ZM127.199 75.043C127.199 76.4622 126.822 77.7253 126.066 78.832C125.324 79.9388 124.296 80.8112 122.98 81.4492C121.665 82.0742 120.168 82.3867 118.488 82.3867C116.796 82.3867 115.285 82.0742 113.957 81.4492C112.642 80.8112 111.607 79.9388 110.852 78.832C110.109 77.7253 109.738 76.4622 109.738 75.043C109.738 73.3503 110.109 71.9245 110.852 70.7656C111.607 69.5938 112.642 68.7018 113.957 68.0898C115.272 67.4779 116.776 67.1719 118.469 67.1719C120.161 67.1719 121.665 67.4779 122.98 68.0898C124.296 68.7018 125.324 69.5938 126.066 70.7656C126.822 71.9245 127.199 73.3503 127.199 75.043ZM122.492 75.1992C122.492 74.3529 122.323 73.6107 121.984 72.9727C121.659 72.3216 121.197 71.8138 120.598 71.4492C119.999 71.0846 119.289 70.9023 118.469 70.9023C117.648 70.9023 116.939 71.0781 116.34 71.4297C115.741 71.7812 115.279 72.276 114.953 72.9141C114.628 73.5521 114.465 74.3138 114.465 75.1992C114.465 76.0716 114.628 76.8333 114.953 77.4844C115.279 78.1224 115.741 78.6237 116.34 78.9883C116.952 79.3529 117.668 79.5352 118.488 79.5352C119.309 79.5352 120.018 79.3529 120.617 78.9883C121.216 78.6237 121.678 78.1224 122.004 77.4844C122.329 76.8333 122.492 76.0716 122.492 75.1992ZM149.371 67.5625V70.1406L138.004 96H133.043L144.391 71.3125H129.664V67.5625H149.371ZM156.406 91.4688L156.387 94.8281C156.387 96.1562 156.055 97.5234 155.391 98.9297C154.727 100.336 153.848 101.495 152.754 102.406L150.234 100.941C150.599 100.355 150.931 99.763 151.23 99.1641C151.53 98.5651 151.771 97.9271 151.953 97.25C152.135 96.5729 152.227 95.8242 152.227 95.0039V91.4688H156.406ZM164.691 79.6523H167.504C168.598 79.6523 169.503 79.4635 170.219 79.0859C170.948 78.7083 171.488 78.1875 171.84 77.5234C172.191 76.8594 172.367 76.0977 172.367 75.2383C172.367 74.3398 172.204 73.5716 171.879 72.9336C171.566 72.2826 171.085 71.7812 170.434 71.4297C169.796 71.0781 168.982 70.9023 167.992 70.9023C167.159 70.9023 166.404 71.0716 165.727 71.4102C165.062 71.7357 164.535 72.2044 164.145 72.8164C163.754 73.4154 163.559 74.1315 163.559 74.9648H158.832C158.832 73.4544 159.229 72.1133 160.023 70.9414C160.818 69.7695 161.898 68.8516 163.266 68.1875C164.646 67.5104 166.195 67.1719 167.914 67.1719C169.75 67.1719 171.352 67.4779 172.719 68.0898C174.099 68.6888 175.173 69.5872 175.941 70.7852C176.71 71.9831 177.094 73.4674 177.094 75.2383C177.094 76.0456 176.905 76.8659 176.527 77.6992C176.15 78.5326 175.59 79.2943 174.848 79.9844C174.105 80.6615 173.181 81.2148 172.074 81.6445C170.967 82.0612 169.685 82.2695 168.227 82.2695H164.691V79.6523ZM164.691 83.3242V80.7461H168.227C169.893 80.7461 171.312 80.9414 172.484 81.332C173.669 81.7227 174.633 82.263 175.375 82.9531C176.117 83.6302 176.658 84.4049 176.996 85.2773C177.348 86.1497 177.523 87.0742 177.523 88.0508C177.523 89.3789 177.283 90.5638 176.801 91.6055C176.332 92.6341 175.661 93.5065 174.789 94.2227C173.917 94.9388 172.895 95.4792 171.723 95.8438C170.564 96.2083 169.301 96.3906 167.934 96.3906C166.71 96.3906 165.538 96.2214 164.418 95.8828C163.298 95.5443 162.296 95.043 161.41 94.3789C160.525 93.7018 159.822 92.862 159.301 91.8594C158.793 90.8438 158.539 89.6719 158.539 88.3438H163.246C163.246 89.1901 163.441 89.9388 163.832 90.5898C164.236 91.2279 164.796 91.7292 165.512 92.0938C166.241 92.4583 167.074 92.6406 168.012 92.6406C169.001 92.6406 169.854 92.4648 170.57 92.1133C171.286 91.7617 171.833 91.2409 172.211 90.5508C172.602 89.8607 172.797 89.0273 172.797 88.0508C172.797 86.944 172.582 86.0456 172.152 85.3555C171.723 84.6654 171.111 84.1576 170.316 83.832C169.522 83.4935 168.585 83.3242 167.504 83.3242H164.691ZM199.988 85.8633V89.6133H179.48L179.324 86.7812L191.59 67.5625H195.359L191.277 74.5547L184.227 85.8633H199.988ZM196.434 67.5625V96H191.727V67.5625H196.434Z" fill="white"/>
<path d="M319.057 194V185.273H322.006C322.69 185.273 323.25 185.396 323.685 185.643C324.122 185.888 324.446 186.219 324.656 186.636C324.866 187.054 324.972 187.52 324.972 188.034C324.972 188.548 324.866 189.016 324.656 189.436C324.449 189.857 324.128 190.192 323.693 190.442C323.259 190.689 322.702 190.812 322.023 190.812H319.909V189.875H321.989C322.457 189.875 322.834 189.794 323.118 189.632C323.402 189.47 323.608 189.251 323.736 188.976C323.866 188.697 323.932 188.384 323.932 188.034C323.932 187.685 323.866 187.372 323.736 187.097C323.608 186.821 323.401 186.605 323.114 186.449C322.827 186.29 322.446 186.21 321.972 186.21H320.114V194H319.057ZM326.538 194V187.455H327.509V188.443H327.577C327.697 188.119 327.913 187.857 328.225 187.655C328.538 187.453 328.89 187.352 329.282 187.352C329.356 187.352 329.448 187.354 329.559 187.357C329.67 187.359 329.754 187.364 329.81 187.369V188.392C329.776 188.384 329.698 188.371 329.576 188.354C329.457 188.334 329.33 188.324 329.197 188.324C328.879 188.324 328.594 188.391 328.344 188.524C328.097 188.655 327.901 188.837 327.756 189.07C327.614 189.3 327.543 189.562 327.543 189.858V194H326.538ZM333.462 194.136C332.871 194.136 332.353 193.996 331.907 193.714C331.464 193.433 331.117 193.04 330.867 192.534C330.62 192.028 330.496 191.437 330.496 190.761C330.496 190.08 330.62 189.484 330.867 188.976C331.117 188.467 331.464 188.072 331.907 187.791C332.353 187.51 332.871 187.369 333.462 187.369C334.053 187.369 334.57 187.51 335.013 187.791C335.46 188.072 335.806 188.467 336.053 188.976C336.303 189.484 336.428 190.08 336.428 190.761C336.428 191.437 336.303 192.028 336.053 192.534C335.806 193.04 335.46 193.433 335.013 193.714C334.57 193.996 334.053 194.136 333.462 194.136ZM333.462 193.233C333.911 193.233 334.281 193.118 334.57 192.888C334.86 192.658 335.075 192.355 335.214 191.98C335.353 191.605 335.423 191.199 335.423 190.761C335.423 190.324 335.353 189.916 335.214 189.538C335.075 189.161 334.86 188.855 334.57 188.622C334.281 188.389 333.911 188.273 333.462 188.273C333.013 188.273 332.644 188.389 332.354 188.622C332.065 188.855 331.85 189.161 331.711 189.538C331.572 189.916 331.502 190.324 331.502 190.761C331.502 191.199 331.572 191.605 331.711 191.98C331.85 192.355 332.065 192.658 332.354 192.888C332.644 193.118 333.013 193.233 333.462 193.233ZM340.435 194.136C339.89 194.136 339.408 193.999 338.99 193.723C338.573 193.445 338.246 193.053 338.01 192.547C337.775 192.038 337.657 191.438 337.657 190.744C337.657 190.057 337.775 189.46 338.01 188.955C338.246 188.449 338.574 188.058 338.995 187.783C339.415 187.507 339.901 187.369 340.452 187.369C340.878 187.369 341.215 187.44 341.462 187.582C341.712 187.722 341.902 187.881 342.033 188.06C342.167 188.236 342.27 188.381 342.344 188.494H342.429V185.273H343.435V194H342.463V192.994H342.344C342.27 193.114 342.165 193.264 342.029 193.446C341.892 193.625 341.698 193.786 341.445 193.928C341.192 194.067 340.855 194.136 340.435 194.136ZM340.571 193.233C340.975 193.233 341.316 193.128 341.594 192.918C341.873 192.705 342.084 192.411 342.229 192.036C342.374 191.658 342.446 191.222 342.446 190.727C342.446 190.239 342.375 189.811 342.233 189.445C342.091 189.075 341.881 188.788 341.603 188.584C341.324 188.376 340.98 188.273 340.571 188.273C340.145 188.273 339.79 188.382 339.506 188.601C339.225 188.817 339.013 189.111 338.871 189.483C338.732 189.852 338.662 190.267 338.662 190.727C338.662 191.193 338.733 191.616 338.875 191.997C339.02 192.375 339.233 192.676 339.515 192.901C339.799 193.122 340.151 193.233 340.571 193.233ZM349.542 191.324V187.455H350.547V194H349.542V192.892H349.473C349.32 193.224 349.081 193.507 348.757 193.74C348.434 193.97 348.025 194.085 347.53 194.085C347.121 194.085 346.757 193.996 346.439 193.817C346.121 193.635 345.871 193.362 345.689 192.999C345.507 192.632 345.417 192.17 345.417 191.614V187.455H346.422V191.545C346.422 192.023 346.556 192.403 346.823 192.688C347.093 192.972 347.436 193.114 347.854 193.114C348.104 193.114 348.358 193.05 348.617 192.922C348.878 192.794 349.097 192.598 349.273 192.334C349.452 192.07 349.542 191.733 349.542 191.324ZM355.048 194.136C354.435 194.136 353.906 193.991 353.463 193.702C353.02 193.412 352.679 193.013 352.44 192.504C352.202 191.996 352.082 191.415 352.082 190.761C352.082 190.097 352.205 189.51 352.449 189.001C352.696 188.49 353.04 188.091 353.48 187.804C353.923 187.514 354.44 187.369 355.031 187.369C355.491 187.369 355.906 187.455 356.276 187.625C356.645 187.795 356.947 188.034 357.183 188.341C357.419 188.648 357.565 189.006 357.622 189.415H356.616C356.54 189.116 356.369 188.852 356.105 188.622C355.844 188.389 355.491 188.273 355.048 188.273C354.656 188.273 354.313 188.375 354.017 188.58C353.724 188.781 353.496 189.067 353.331 189.436C353.169 189.803 353.088 190.233 353.088 190.727C353.088 191.233 353.168 191.673 353.327 192.048C353.489 192.423 353.716 192.714 354.009 192.922C354.304 193.129 354.651 193.233 355.048 193.233C355.31 193.233 355.547 193.188 355.76 193.097C355.973 193.006 356.153 192.875 356.301 192.705C356.449 192.534 356.554 192.33 356.616 192.091H357.622C357.565 192.477 357.425 192.825 357.2 193.135C356.979 193.442 356.685 193.686 356.318 193.868C355.955 194.047 355.531 194.136 355.048 194.136ZM361.939 187.455V188.307H358.547V187.455H361.939ZM359.536 185.886H360.541V192.125C360.541 192.409 360.582 192.622 360.665 192.764C360.75 192.903 360.858 192.997 360.989 193.045C361.122 193.091 361.263 193.114 361.411 193.114C361.521 193.114 361.612 193.108 361.683 193.097C361.754 193.082 361.811 193.071 361.854 193.062L362.058 193.966C361.99 193.991 361.895 194.017 361.773 194.043C361.651 194.071 361.496 194.085 361.308 194.085C361.024 194.085 360.746 194.024 360.473 193.902C360.203 193.78 359.979 193.594 359.8 193.344C359.624 193.094 359.536 192.778 359.536 192.398V185.886ZM369.878 185.273V194H368.821V186.381H368.77L366.639 187.795V186.722L368.821 185.273H369.878Z" fill="#9AA4B2"/>
<rect x="288" y="186" width="21" height="8" fill="#9AA4B2"/>
<path d="M319.057 219V210.273H322.006C322.69 210.273 323.25 210.396 323.685 210.643C324.122 210.888 324.446 211.219 324.656 211.636C324.866 212.054 324.972 212.52 324.972 213.034C324.972 213.548 324.866 214.016 324.656 214.436C324.449 214.857 324.128 215.192 323.693 215.442C323.259 215.689 322.702 215.812 322.023 215.812H319.909V214.875H321.989C322.457 214.875 322.834 214.794 323.118 214.632C323.402 214.47 323.608 214.251 323.736 213.976C323.866 213.697 323.932 213.384 323.932 213.034C323.932 212.685 323.866 212.372 323.736 212.097C323.608 211.821 323.401 211.605 323.114 211.449C322.827 211.29 322.446 211.21 321.972 211.21H320.114V219H319.057ZM326.538 219V212.455H327.509V213.443H327.577C327.697 213.119 327.913 212.857 328.225 212.655C328.538 212.453 328.89 212.352 329.282 212.352C329.356 212.352 329.448 212.354 329.559 212.357C329.67 212.359 329.754 212.364 329.81 212.369V213.392C329.776 213.384 329.698 213.371 329.576 213.354C329.457 213.334 329.33 213.324 329.197 213.324C328.879 213.324 328.594 213.391 328.344 213.524C328.097 213.655 327.901 213.837 327.756 214.07C327.614 214.3 327.543 214.562 327.543 214.858V219H326.538ZM333.462 219.136C332.871 219.136 332.353 218.996 331.907 218.714C331.464 218.433 331.117 218.04 330.867 217.534C330.62 217.028 330.496 216.437 330.496 215.761C330.496 215.08 330.62 214.484 330.867 213.976C331.117 213.467 331.464 213.072 331.907 212.791C332.353 212.51 332.871 212.369 333.462 212.369C334.053 212.369 334.57 212.51 335.013 212.791C335.46 213.072 335.806 213.467 336.053 213.976C336.303 214.484 336.428 215.08 336.428 215.761C336.428 216.437 336.303 217.028 336.053 217.534C335.806 218.04 335.46 218.433 335.013 218.714C334.57 218.996 334.053 219.136 333.462 219.136ZM333.462 218.233C333.911 218.233 334.281 218.118 334.57 217.888C334.86 217.658 335.075 217.355 335.214 216.98C335.353 216.605 335.423 216.199 335.423 215.761C335.423 215.324 335.353 214.916 335.214 214.538C335.075 214.161 334.86 213.855 334.57 213.622C334.281 213.389 333.911 213.273 333.462 213.273C333.013 213.273 332.644 213.389 332.354 213.622C332.065 213.855 331.85 214.161 331.711 214.538C331.572 214.916 331.502 215.324 331.502 215.761C331.502 216.199 331.572 216.605 331.711 216.98C331.85 217.355 332.065 217.658 332.354 217.888C332.644 218.118 333.013 218.233 333.462 218.233ZM340.435 219.136C339.89 219.136 339.408 218.999 338.99 218.723C338.573 218.445 338.246 218.053 338.01 217.547C337.775 217.038 337.657 216.438 337.657 215.744C337.657 215.057 337.775 214.46 338.01 213.955C338.246 213.449 338.574 213.058 338.995 212.783C339.415 212.507 339.901 212.369 340.452 212.369C340.878 212.369 341.215 212.44 341.462 212.582C341.712 212.722 341.902 212.881 342.033 213.06C342.167 213.236 342.27 213.381 342.344 213.494H342.429V210.273H343.435V219H342.463V217.994H342.344C342.27 218.114 342.165 218.264 342.029 218.446C341.892 218.625 341.698 218.786 341.445 218.928C341.192 219.067 340.855 219.136 340.435 219.136ZM340.571 218.233C340.975 218.233 341.316 218.128 341.594 217.918C341.873 217.705 342.084 217.411 342.229 217.036C342.374 216.658 342.446 216.222 342.446 215.727C342.446 215.239 342.375 214.811 342.233 214.445C342.091 214.075 341.881 213.788 341.603 213.584C341.324 213.376 340.98 213.273 340.571 213.273C340.145 213.273 339.79 213.382 339.506 213.601C339.225 213.817 339.013 214.111 338.871 214.483C338.732 214.852 338.662 215.267 338.662 215.727C338.662 216.193 338.733 216.616 338.875 216.997C339.02 217.375 339.233 217.676 339.515 217.901C339.799 218.122 340.151 218.233 340.571 218.233ZM349.542 216.324V212.455H350.547V219H349.542V217.892H349.473C349.32 218.224 349.081 218.507 348.757 218.74C348.434 218.97 348.025 219.085 347.53 219.085C347.121 219.085 346.757 218.996 346.439 218.817C346.121 218.635 345.871 218.362 345.689 217.999C345.507 217.632 345.417 217.17 345.417 216.614V212.455H346.422V216.545C346.422 217.023 346.556 217.403 346.823 217.688C347.093 217.972 347.436 218.114 347.854 218.114C348.104 218.114 348.358 218.05 348.617 217.922C348.878 217.794 349.097 217.598 349.273 217.334C349.452 217.07 349.542 216.733 349.542 216.324ZM355.048 219.136C354.435 219.136 353.906 218.991 353.463 218.702C353.02 218.412 352.679 218.013 352.44 217.504C352.202 216.996 352.082 216.415 352.082 215.761C352.082 215.097 352.205 214.51 352.449 214.001C352.696 213.49 353.04 213.091 353.48 212.804C353.923 212.514 354.44 212.369 355.031 212.369C355.491 212.369 355.906 212.455 356.276 212.625C356.645 212.795 356.947 213.034 357.183 213.341C357.419 213.648 357.565 214.006 357.622 214.415H356.616C356.54 214.116 356.369 213.852 356.105 213.622C355.844 213.389 355.491 213.273 355.048 213.273C354.656 213.273 354.313 213.375 354.017 213.58C353.724 213.781 353.496 214.067 353.331 214.436C353.169 214.803 353.088 215.233 353.088 215.727C353.088 216.233 353.168 216.673 353.327 217.048C353.489 217.423 353.716 217.714 354.009 217.922C354.304 218.129 354.651 218.233 355.048 218.233C355.31 218.233 355.547 218.188 355.76 218.097C355.973 218.006 356.153 217.875 356.301 217.705C356.449 217.534 356.554 217.33 356.616 217.091H357.622C357.565 217.477 357.425 217.825 357.2 218.135C356.979 218.442 356.685 218.686 356.318 218.868C355.955 219.047 355.531 219.136 355.048 219.136ZM361.939 212.455V213.307H358.547V212.455H361.939ZM359.536 210.886H360.541V217.125C360.541 217.409 360.582 217.622 360.665 217.764C360.75 217.903 360.858 217.997 360.989 218.045C361.122 218.091 361.263 218.114 361.411 218.114C361.521 218.114 361.612 218.108 361.683 218.097C361.754 218.082 361.811 218.071 361.854 218.062L362.058 218.966C361.99 218.991 361.895 219.017 361.773 219.043C361.651 219.071 361.496 219.085 361.308 219.085C361.024 219.085 360.746 219.024 360.473 218.902C360.203 218.78 359.979 218.594 359.8 218.344C359.624 218.094 359.536 217.778 359.536 217.398V210.886ZM366.81 219V218.233L369.69 215.08C370.028 214.71 370.307 214.389 370.526 214.116C370.744 213.841 370.906 213.582 371.011 213.341C371.119 213.097 371.173 212.841 371.173 212.574C371.173 212.267 371.099 212.001 370.952 211.777C370.807 211.553 370.608 211.379 370.355 211.257C370.102 211.135 369.818 211.074 369.503 211.074C369.168 211.074 368.875 211.143 368.625 211.283C368.378 211.419 368.186 211.611 368.05 211.858C367.916 212.105 367.849 212.395 367.849 212.727H366.844C366.844 212.216 366.962 211.767 367.197 211.381C367.433 210.994 367.754 210.693 368.161 210.477C368.57 210.261 369.028 210.153 369.537 210.153C370.048 210.153 370.501 210.261 370.896 210.477C371.291 210.693 371.601 210.984 371.825 211.351C372.05 211.717 372.162 212.125 372.162 212.574C372.162 212.895 372.104 213.209 371.987 213.516C371.874 213.82 371.675 214.159 371.391 214.534C371.109 214.906 370.719 215.361 370.219 215.898L368.259 217.994V218.062H372.315V219H366.81Z" fill="#9AA4B2"/>
<rect x="288" y="211" width="21" height="8" fill="#EEC72B"/>
<path d="M319.057 243V234.273H322.006C322.69 234.273 323.25 234.396 323.685 234.643C324.122 234.888 324.446 235.219 324.656 235.636C324.866 236.054 324.972 236.52 324.972 237.034C324.972 237.548 324.866 238.016 324.656 238.436C324.449 238.857 324.128 239.192 323.693 239.442C323.259 239.689 322.702 239.812 322.023 239.812H319.909V238.875H321.989C322.457 238.875 322.834 238.794 323.118 238.632C323.402 238.47 323.608 238.251 323.736 237.976C323.866 237.697 323.932 237.384 323.932 237.034C323.932 236.685 323.866 236.372 323.736 236.097C323.608 235.821 323.401 235.605 323.114 235.449C322.827 235.29 322.446 235.21 321.972 235.21H320.114V243H319.057ZM326.538 243V236.455H327.509V237.443H327.577C327.697 237.119 327.913 236.857 328.225 236.655C328.538 236.453 328.89 236.352 329.282 236.352C329.356 236.352 329.448 236.354 329.559 236.357C329.67 236.359 329.754 236.364 329.81 236.369V237.392C329.776 237.384 329.698 237.371 329.576 237.354C329.457 237.334 329.33 237.324 329.197 237.324C328.879 237.324 328.594 237.391 328.344 237.524C328.097 237.655 327.901 237.837 327.756 238.07C327.614 238.3 327.543 238.562 327.543 238.858V243H326.538ZM333.462 243.136C332.871 243.136 332.353 242.996 331.907 242.714C331.464 242.433 331.117 242.04 330.867 241.534C330.62 241.028 330.496 240.437 330.496 239.761C330.496 239.08 330.62 238.484 330.867 237.976C331.117 237.467 331.464 237.072 331.907 236.791C332.353 236.51 332.871 236.369 333.462 236.369C334.053 236.369 334.57 236.51 335.013 236.791C335.46 237.072 335.806 237.467 336.053 237.976C336.303 238.484 336.428 239.08 336.428 239.761C336.428 240.437 336.303 241.028 336.053 241.534C335.806 242.04 335.46 242.433 335.013 242.714C334.57 242.996 334.053 243.136 333.462 243.136ZM333.462 242.233C333.911 242.233 334.281 242.118 334.57 241.888C334.86 241.658 335.075 241.355 335.214 240.98C335.353 240.605 335.423 240.199 335.423 239.761C335.423 239.324 335.353 238.916 335.214 238.538C335.075 238.161 334.86 237.855 334.57 237.622C334.281 237.389 333.911 237.273 333.462 237.273C333.013 237.273 332.644 237.389 332.354 237.622C332.065 237.855 331.85 238.161 331.711 238.538C331.572 238.916 331.502 239.324 331.502 239.761C331.502 240.199 331.572 240.605 331.711 240.98C331.85 241.355 332.065 241.658 332.354 241.888C332.644 242.118 333.013 242.233 333.462 242.233ZM340.435 243.136C339.89 243.136 339.408 242.999 338.99 242.723C338.573 242.445 338.246 242.053 338.01 241.547C337.775 241.038 337.657 240.438 337.657 239.744C337.657 239.057 337.775 238.46 338.01 237.955C338.246 237.449 338.574 237.058 338.995 236.783C339.415 236.507 339.901 236.369 340.452 236.369C340.878 236.369 341.215 236.44 341.462 236.582C341.712 236.722 341.902 236.881 342.033 237.06C342.167 237.236 342.27 237.381 342.344 237.494H342.429V234.273H343.435V243H342.463V241.994H342.344C342.27 242.114 342.165 242.264 342.029 242.446C341.892 242.625 341.698 242.786 341.445 242.928C341.192 243.067 340.855 243.136 340.435 243.136ZM340.571 242.233C340.975 242.233 341.316 242.128 341.594 241.918C341.873 241.705 342.084 241.411 342.229 241.036C342.374 240.658 342.446 240.222 342.446 239.727C342.446 239.239 342.375 238.811 342.233 238.445C342.091 238.075 341.881 237.788 341.603 237.584C341.324 237.376 340.98 237.273 340.571 237.273C340.145 237.273 339.79 237.382 339.506 237.601C339.225 237.817 339.013 238.111 338.871 238.483C338.732 238.852 338.662 239.267 338.662 239.727C338.662 240.193 338.733 240.616 338.875 240.997C339.02 241.375 339.233 241.676 339.515 241.901C339.799 242.122 340.151 242.233 340.571 242.233ZM349.542 240.324V236.455H350.547V243H349.542V241.892H349.473C349.32 242.224 349.081 242.507 348.757 242.74C348.434 242.97 348.025 243.085 347.53 243.085C347.121 243.085 346.757 242.996 346.439 242.817C346.121 242.635 345.871 242.362 345.689 241.999C345.507 241.632 345.417 241.17 345.417 240.614V236.455H346.422V240.545C346.422 241.023 346.556 241.403 346.823 241.688C347.093 241.972 347.436 242.114 347.854 242.114C348.104 242.114 348.358 242.05 348.617 241.922C348.878 241.794 349.097 241.598 349.273 241.334C349.452 241.07 349.542 240.733 349.542 240.324ZM355.048 243.136C354.435 243.136 353.906 242.991 353.463 242.702C353.02 242.412 352.679 242.013 352.44 241.504C352.202 240.996 352.082 240.415 352.082 239.761C352.082 239.097 352.205 238.51 352.449 238.001C352.696 237.49 353.04 237.091 353.48 236.804C353.923 236.514 354.44 236.369 355.031 236.369C355.491 236.369 355.906 236.455 356.276 236.625C356.645 236.795 356.947 237.034 357.183 237.341C357.419 237.648 357.565 238.006 357.622 238.415H356.616C356.54 238.116 356.369 237.852 356.105 237.622C355.844 237.389 355.491 237.273 355.048 237.273C354.656 237.273 354.313 237.375 354.017 237.58C353.724 237.781 353.496 238.067 353.331 238.436C353.169 238.803 353.088 239.233 353.088 239.727C353.088 240.233 353.168 240.673 353.327 241.048C353.489 241.423 353.716 241.714 354.009 241.922C354.304 242.129 354.651 242.233 355.048 242.233C355.31 242.233 355.547 242.188 355.76 242.097C355.973 242.006 356.153 241.875 356.301 241.705C356.449 241.534 356.554 241.33 356.616 241.091H357.622C357.565 241.477 357.425 241.825 357.2 242.135C356.979 242.442 356.685 242.686 356.318 242.868C355.955 243.047 355.531 243.136 355.048 243.136ZM361.939 236.455V237.307H358.547V236.455H361.939ZM359.536 234.886H360.541V241.125C360.541 241.409 360.582 241.622 360.665 241.764C360.75 241.903 360.858 241.997 360.989 242.045C361.122 242.091 361.263 242.114 361.411 242.114C361.521 242.114 361.612 242.108 361.683 242.097C361.754 242.082 361.811 242.071 361.854 242.062L362.058 242.966C361.99 242.991 361.895 243.017 361.773 243.043C361.651 243.071 361.496 243.085 361.308 243.085C361.024 243.085 360.746 243.024 360.473 242.902C360.203 242.78 359.979 242.594 359.8 242.344C359.624 242.094 359.536 241.778 359.536 241.398V234.886ZM369.759 243.119C369.196 243.119 368.695 243.023 368.254 242.83C367.817 242.636 367.469 242.368 367.21 242.024C366.955 241.678 366.815 241.276 366.793 240.818H367.866C367.889 241.099 367.986 241.342 368.156 241.547C368.327 241.749 368.55 241.905 368.825 242.016C369.101 242.126 369.406 242.182 369.741 242.182C370.116 242.182 370.449 242.116 370.739 241.986C371.028 241.855 371.256 241.673 371.42 241.44C371.585 241.207 371.668 240.938 371.668 240.631C371.668 240.31 371.588 240.027 371.429 239.783C371.27 239.536 371.037 239.342 370.73 239.203C370.423 239.064 370.048 238.994 369.605 238.994H368.906V238.057H369.605C369.952 238.057 370.256 237.994 370.517 237.869C370.781 237.744 370.987 237.568 371.135 237.341C371.286 237.114 371.361 236.847 371.361 236.54C371.361 236.244 371.295 235.987 371.165 235.768C371.034 235.55 370.849 235.379 370.611 235.257C370.375 235.135 370.097 235.074 369.776 235.074C369.474 235.074 369.19 235.129 368.923 235.24C368.659 235.348 368.443 235.506 368.276 235.713C368.108 235.918 368.017 236.165 368.003 236.455H366.98C366.997 235.997 367.135 235.597 367.393 235.253C367.652 234.906 367.99 234.636 368.408 234.443C368.828 234.25 369.29 234.153 369.793 234.153C370.332 234.153 370.795 234.263 371.182 234.482C371.568 234.697 371.865 234.983 372.072 235.338C372.28 235.693 372.384 236.077 372.384 236.489C372.384 236.98 372.254 237.399 371.996 237.746C371.74 238.092 371.392 238.332 370.952 238.466V238.534C371.503 238.625 371.933 238.859 372.243 239.237C372.553 239.612 372.707 240.077 372.707 240.631C372.707 241.105 372.578 241.531 372.32 241.909C372.064 242.284 371.714 242.58 371.271 242.795C370.828 243.011 370.324 243.119 369.759 243.119Z" fill="#9AA4B2"/>
<rect x="288" y="235" width="21" height="8" fill="#5131CF"/>
<path d="M252 270.5C252 283.435 249.452 296.244 244.502 308.194C239.552 320.145 232.297 331.003 223.15 340.15L153.5 270.5H252Z" fill="#EEC72B"/>
<path d="M223.15 340.15C212.424 350.876 199.366 358.98 184.994 363.829C170.622 368.679 155.323 370.144 140.292 368.11C125.26 366.076 110.901 360.598 98.335 352.103C85.7684 343.608 75.3337 332.325 67.8442 319.135C60.3547 305.944 56.0127 291.202 55.1569 276.058C54.3011 260.913 56.9545 245.776 62.9102 231.825C68.8659 217.875 77.9631 205.488 89.4925 195.631C101.022 185.775 114.672 178.714 129.379 174.999L153.5 270.5L223.15 340.15Z" fill="#5131CF"/>
<path d="M128.006 175.356C142.74 171.409 158.189 170.936 173.135 173.977C188.082 177.018 202.119 183.488 214.139 192.878C226.159 202.268 235.834 214.321 242.402 228.088C248.969 241.855 252.25 256.958 251.985 272.209L153.5 270.5L128.006 175.356Z" fill="#9AA4B2"/>
<defs>
<filter id="filter0_d_444_3000" x="0" y="0" width="450" height="420" filterUnits="userSpaceOnUse" color-interpolation-filters="sRGB">
<feFlood flood-opacity="0" result="BackgroundImageFix"/>
<feColorMatrix in="SourceAlpha" type="matrix" values="0 0 0 0 0 0 0 0 0 0 0 0 0 0 0 0 0 0 127 0" result="hardAlpha"/>
<feOffset dy="2"/>
<feGaussianBlur stdDeviation="5"/>
<feComposite in2="hardAlpha" operator="out"/>
<feColorMatrix type="matrix" values="0 0 0 0 0 0 0 0 0 0 0 0 0 0 0 0 0 0 0.1 0"/>
<feBlend mode="normal" in2="BackgroundImageFix" result="effect1_dropShadow_444_3000"/>
<feBlend mode="normal" in="SourceGraphic" in2="effect1_dropShadow_444_3000" result="shape"/>
</filter>
</defs>
</svg>
