<svg width="94" height="48" fill="none" xmlns="http://www.w3.org/2000/svg"><path d="M0 8v26.531l3.394.013V21.911h8.16v-3.343H3.381V11.33h10.64V8H0Zm20.106 5.396a2.21 2.21 0 0 0 1.569-.655 2.246 2.246 0 0 0 0-3.165 2.21 2.21 0 0 0-3.139 0 2.246 2.246 0 0 0 0 3.165c.416.419.98.655 1.57.655Zm-1.71 3.33v17.818h3.394V16.725h-3.395Z" fill="#000"/><path fill-rule="evenodd" clip-rule="evenodd" d="M34.336 16.212c-4.491 0-7.624 3.83-7.624 8.383 0 4.554 3.133 8.383 7.624 8.383 2.063 0 3.76-.79 5-2.105v2.369a5.394 5.394 0 0 1-1.528 3.825 5.277 5.277 0 0 1-3.772 1.597c-1.084 0-2.154-.422-3.003-1.027l-1.697 2.961a8.626 8.626 0 0 0 8.873.332 8.713 8.713 0 0 0 3.311-3.224 8.804 8.804 0 0 0 1.21-4.478v-16.49h-3.394v1.593c-1.24-1.316-2.937-2.106-5-2.106v-.013Zm-4.243 8.383c0-2.83 2.141-5.053 4.622-5.053 2.48 0 4.608 2.237 4.608 5.053 0 2.83-2.14 5.04-4.608 5.04-2.48 0-4.622-2.21-4.622-5.04Z" fill="#000"/><path d="M54.925 19.542a3.68 3.68 0 0 0-2.575 1.118 3.74 3.74 0 0 0-1.055 2.62v11.264h-3.394V16.726h3.394v1.632a5.364 5.364 0 0 1 1.925-1.599 5.319 5.319 0 0 1 2.436-.546c2.376 0 4.204 1.185 5.248 3a6.523 6.523 0 0 1 2.321-2.184 6.462 6.462 0 0 1 3.071-.816c3.851 0 6.267 3.132 6.267 7.015v11.317h-3.369V23.267a3.74 3.74 0 0 0-1.054-2.619 3.68 3.68 0 0 0-2.575-1.118 3.68 3.68 0 0 0-2.575 1.118 3.74 3.74 0 0 0-1.055 2.62V34.53h-3.394V23.266a3.74 3.74 0 0 0-1.05-2.614 3.68 3.68 0 0 0-2.566-1.123v.013Z" fill="#000"/><path fill-rule="evenodd" clip-rule="evenodd" d="M90.619 18.752a8.184 8.184 0 0 0-2.724-1.89 8.128 8.128 0 0 0-3.243-.65c-5.04 0-8.616 4.29-8.616 9.423 0 5.132 3.577 9.423 8.616 9.423a8.168 8.168 0 0 0 3.242-.653 8.223 8.223 0 0 0 2.725-1.887v2.026H94V16.726h-3.394v2.027h.013Zm-11.202 6.883c0-3.396 2.585-6.093 5.6-6.093 3.004 0 5.602 2.697 5.602 6.093 0 3.395-2.585 6.08-5.601 6.08-3.003 0-5.601-2.685-5.601-6.08Z" fill="#000"/></svg>