<svg width="136" height="48" fill="none" xmlns="http://www.w3.org/2000/svg"><g clip-path="url(#a)"><path d="M98.434 14.052h-2.672v20.005h10.84v-2.484h-8.168V14.052Zm18.487 16.497a4.596 4.596 0 0 1-3.324 1.395c-2.042 0-2.867-1.003-2.867-2.332 0-1.983 1.368-2.942 4.301-2.942.543 0 1.434.065 1.89.152v3.727Zm-2.759-12.117a8.837 8.837 0 0 0-5.692 2.049l.956 1.656c1.086-.632 2.433-1.286 4.367-1.286 2.194 0 3.172 1.133 3.172 3.03v.98c-.435-.087-1.304-.153-1.869-.153-4.692 0-7.06 1.657-7.06 5.1 0 3.095 1.89 4.642 4.758 4.642 1.933 0 3.78-.894 4.41-2.332l.478 1.961h1.89V23.837c-.022-3.247-1.434-5.405-5.41-5.405Zm14.034 13.62c-.999 0-1.89-.13-2.563-.435v-9.24c.912-.763 2.042-1.308 3.476-1.308 2.585 0 3.584 1.83 3.584 4.794.022 4.206-1.607 6.19-4.497 6.19Zm1.13-13.62c-2.39 0-3.693 1.634-3.693 1.634v-6.014h-2.629v19.526c1.304.545 3.107.85 5.062.85 4.996 0 7.408-3.204 7.408-8.739 0-4.359-2.216-7.257-6.148-7.257ZM69.28 16.231c2.367 0 3.91.784 4.91 1.59l1.15-2.004c-1.564-1.373-3.693-2.114-5.93-2.114-5.692 0-9.69 3.487-9.69 10.504 0 7.366 4.302 10.243 9.234 10.243 2.476 0 4.562-.589 5.93-1.155l-.065-7.868v-2.506H67.5v2.485h4.67l.065 5.971c-.608.305-1.673.545-3.107.545-3.953 0-6.604-2.506-6.604-7.759 0-5.339 2.737-7.932 6.756-7.932Zm18.856-2.18h-2.628v14.973c0 3.247 1.412 5.405 5.387 5.405a7.89 7.89 0 0 0 1.608-.152v-2.354c-.37.065-.782.087-1.217.087-2.194 0-3.171-1.133-3.171-3.03v-7.997h4.388v-2.18h-4.388l.021-4.75ZM78.86 34.058h2.629V18.802H78.86v15.255Zm0-17.369h2.629v-2.636H78.86v2.637Z" fill="#888F9B"/><path d="m23.81 46 8.777-27.067H15.033L23.81 46Z" fill="#D74B3A"/><path d="m23.81 46-8.777-27.067H2.76L23.809 46Z" fill="#F36F3C"/><path d="M2.76 18.933.086 27.15c-.239.741.022 1.57.652 2.027l23.05 16.802-21.03-27.045Z" fill="#F3993F"/><path d="M2.759 18.933h12.296l-5.3-16.301c-.262-.85-1.456-.85-1.717 0l-5.28 16.301Z" fill="#D74B3A"/><path d="m23.81 46 8.777-27.067h12.296L23.81 46Z" fill="#F36F3C"/><path d="m44.861 18.933 2.672 8.216a1.824 1.824 0 0 1-.651 2.027l-23.05 16.802 21.03-27.045Z" fill="#F3993F"/><path d="M44.861 18.933H32.565l5.279-16.301c.282-.828 1.456-.828 1.716 0l5.301 16.301Z" fill="#D74B3A"/></g><defs><clipPath id="a"><path fill="#fff" d="M0 0h136v48H0z"/></clipPath></defs></svg>