<svg width="148" height="48" fill="none" xmlns="http://www.w3.org/2000/svg"><path d="M.24 26.206 15.793 41.76C7.851 40.418 1.582 34.149.24 26.206ZM0 21.983 20.017 42a18.998 18.998 0 0 0 3.474-.51L.51 18.51A18.999 18.999 0 0 0 0 21.983Zm1.506-6.462 24.973 24.973c.91-.39 1.783-.85 2.612-1.371L2.877 12.909c-.521.83-.98 1.703-1.371 2.612Zm3.063-4.904A18.97 18.97 0 0 1 18.986 4C29.487 4 38 12.513 38 23.014a18.97 18.97 0 0 1-6.617 14.417L4.569 10.617Z" fill="#5E6AD2"/><path d="M57.81 34.4h13.932v-3.794h-9.33v-17.97H57.81V34.4Zm16.894 0h4.527V18.077h-4.527V34.4Zm2.274-18.257c1.318 0 2.455-.999 2.455-2.295 0-1.286-1.137-2.285-2.455-2.285-1.307 0-2.444.999-2.444 2.285 0 1.296 1.137 2.295 2.444 2.295Zm10.407 8.82c.01-2.104 1.264-3.337 3.092-3.337 1.817 0 2.912 1.19 2.9 3.189V34.4h4.528V24.007c0-3.804-2.232-6.142-5.632-6.142-2.423 0-4.177 1.19-4.91 3.092h-.191v-2.88h-4.315V34.4h4.528v-9.437Zm21.569 9.756c4.049 0 6.759-1.966 7.396-4.995l-4.176-.276c-.457 1.243-1.637 1.891-3.135 1.891-2.263 0-3.698-1.498-3.698-3.931v-.011h11.116v-1.243c0-5.548-3.358-8.29-7.673-8.29-4.803 0-7.917 3.412-7.917 8.449 0 5.175 3.071 8.406 8.087 8.406Zm-3.613-10.128c.085-1.86 1.509-3.347 3.517-3.347 1.956 0 3.316 1.403 3.337 3.347h-6.854Zm18.788 10.117c2.412 0 3.975-1.052 4.772-2.572h.127V34.4h4.293V23.39c0-3.889-3.326-5.525-6.854-5.525-4.017 0-6.557 1.87-7.184 4.846l4.187.34c.308-1.084 1.275-1.881 2.901-1.881 1.562 0 2.413.765 2.423 2.136.011 1.073-1.116 1.232-3.953 1.509-3.23.297-6.132 1.381-6.132 5.026 0 3.23 2.306 4.867 5.42 4.867Zm1.297-3.124c-1.393 0-2.391-.648-2.391-1.892 0-1.275 1.052-1.902 2.646-2.125.988-.138 2.603-.372 3.145-.733v1.732c0 1.71-1.413 3.018-3.4 3.018Zm11.407 2.816h4.528v-9.235c.01-1.998 1.455-3.368 3.283-3.368.616 0 1.116.17 1.541.382l1.36-3.74c-.595-.362-1.36-.596-2.231-.596-1.839 0-3.327 1.063-3.922 3.082h-.17v-2.848h-4.389V34.4Z" fill="#040406"/></svg>