<svg width="80" height="48" fill="none" xmlns="http://www.w3.org/2000/svg"><path fill-rule="evenodd" clip-rule="evenodd" d="M79.306 25.817c0-5.64-2.732-10.09-7.953-10.09-5.243 0-8.415 4.45-8.415 10.046 0 6.63 3.745 9.98 9.12 9.98 2.622 0 4.604-.596 6.102-1.433v-4.406c-1.498.75-3.216 1.212-5.397 1.212-2.137 0-4.031-.749-4.274-3.349h10.773c0-.286.044-1.431.044-1.96Zm-10.883-2.093c0-2.49 1.52-3.525 2.908-3.525 1.344 0 2.776 1.036 2.776 3.525h-5.684Zm-13.989-7.997c-2.158 0-3.546 1.014-4.317 1.719l-.287-1.366h-4.846v25.686L50.49 40.6l.022-6.235c.793.573 1.96 1.388 3.9 1.388 3.943 0 7.534-3.172 7.534-10.155-.023-6.389-3.657-9.87-7.513-9.87Zm-1.321 15.179c-1.3 0-2.071-.463-2.6-1.036l-.022-8.173c.573-.639 1.366-1.08 2.622-1.08 2.004 0 3.392 2.248 3.392 5.134 0 2.952-1.366 5.155-3.392 5.155ZM37.406 14.428l5.529-1.19V8.766l-5.53 1.168v4.494Z" fill="#635BFF"/><path d="M42.935 16.102h-5.53v19.276h5.53V16.102Z" fill="#635BFF"/><path fill-rule="evenodd" clip-rule="evenodd" d="m31.48 17.732-.353-1.63H26.37v19.276h5.507V22.314c1.3-1.696 3.503-1.388 4.186-1.145v-5.067c-.705-.264-3.283-.75-4.582 1.63Zm-11.015-6.41-5.375 1.145-.022 17.645c0 3.26 2.445 5.662 5.705 5.662 1.807 0 3.129-.33 3.856-.727v-4.472c-.705.287-4.186 1.3-4.186-1.96v-7.82h4.186v-4.693h-4.186l.022-4.78ZM5.573 21.697c0-.859.705-1.19 1.873-1.19 1.674 0 3.789.508 5.463 1.41v-5.176c-1.828-.727-3.635-1.014-5.463-1.014C2.974 15.727 0 18.063 0 21.962c0 6.08 8.371 5.11 8.371 7.732 0 1.013-.881 1.344-2.115 1.344-1.828 0-4.163-.75-6.014-1.762v5.243a15.272 15.272 0 0 0 6.014 1.255c4.582 0 7.733-2.269 7.733-6.212-.022-6.565-8.416-5.397-8.416-7.865Z" fill="#635BFF"/></svg>